<svg width="41" height="22" viewBox="0 0 41 22" fill="none" xmlns="http://www.w3.org/2000/svg">
<g clip-path="url(#clip0_232_233)">
<path d="M2.08369 16V6.214H4.26769V14.054H8.43969V16H2.08369ZM11.615 12.234C11.615 12.85 11.7877 13.354 12.133 13.746C12.4877 14.1287 12.9357 14.32 13.477 14.32C14.0277 14.32 14.4757 14.1287 14.821 13.746C15.1757 13.354 15.353 12.85 15.353 12.234C15.353 11.618 15.1757 11.114 14.821 10.722C14.4757 10.33 14.0277 10.134 13.477 10.134C12.9357 10.134 12.4877 10.33 12.133 10.722C11.7877 11.114 11.615 11.618 11.615 12.234ZM17.467 12.234C17.467 13.326 17.089 14.2453 16.333 14.992C15.577 15.7387 14.625 16.112 13.477 16.112C12.3383 16.112 11.391 15.7387 10.635 14.992C9.87902 14.2453 9.50102 13.326 9.50102 12.234C9.50102 11.142 9.87902 10.2227 10.635 9.476C11.391 8.72 12.3383 8.342 13.477 8.342C14.625 8.342 15.577 8.72 16.333 9.476C17.089 10.2227 17.467 11.142 17.467 12.234ZM24.5048 12.08C24.5048 11.4733 24.3368 10.9973 24.0008 10.652C23.6648 10.3067 23.2495 10.134 22.7548 10.134C22.2601 10.134 21.8308 10.3067 21.4668 10.652C21.1121 10.9973 20.9348 11.4687 20.9348 12.066C20.9348 12.6633 21.1075 13.1487 21.4528 13.522C21.8075 13.886 22.2368 14.068 22.7408 14.068C23.2448 14.068 23.6648 13.886 24.0008 13.522C24.3368 13.158 24.5048 12.6773 24.5048 12.08ZM24.7988 14.726C24.1361 15.4633 23.3101 15.832 22.3208 15.832C21.3408 15.832 20.5101 15.5007 19.8288 14.838C19.1568 14.166 18.8208 13.2747 18.8208 12.164C18.8208 11.044 19.1661 10.1293 19.8568 9.42C20.5568 8.70133 21.3548 8.342 22.2508 8.342C23.1468 8.342 23.8888 8.71067 24.4768 9.448V8.454H26.5768V15.02C26.5768 15.692 26.4601 16.2893 26.2268 16.812C25.9935 17.3347 25.6808 17.7453 25.2888 18.044C24.5141 18.66 23.5995 18.968 22.5448 18.968C21.9848 18.968 21.4108 18.8747 20.8228 18.688C20.2441 18.5107 19.7355 18.254 19.2968 17.918L20.1088 16.336C20.7995 16.8587 21.5275 17.12 22.2928 17.12C23.0675 17.12 23.6788 16.9287 24.1268 16.546C24.5748 16.1633 24.7988 15.5567 24.7988 14.726ZM30.8647 16H28.7647V8.468H30.8647V16ZM28.9327 7.516C28.6994 7.27333 28.5827 6.97933 28.5827 6.634C28.5827 6.28867 28.6994 5.99933 28.9327 5.766C29.1754 5.52333 29.4694 5.402 29.8147 5.402C30.16 5.402 30.4494 5.52333 30.6827 5.766C30.9254 5.99933 31.0467 6.28867 31.0467 6.634C31.0467 6.97933 30.9254 7.27333 30.6827 7.516C30.4494 7.74933 30.16 7.866 29.8147 7.866C29.4694 7.866 29.1754 7.74933 28.9327 7.516ZM35.1526 11.8V16H33.0526V8.468H35.1526V9.308C35.7873 8.664 36.5013 8.342 37.2946 8.342C38.0879 8.342 38.7506 8.622 39.2826 9.182C39.8239 9.742 40.0946 10.4887 40.0946 11.422V16H37.9946V11.744C37.9946 10.5867 37.5699 10.008 36.7206 10.008C36.3006 10.008 35.9319 10.162 35.6146 10.47C35.3066 10.7687 35.1526 11.212 35.1526 11.8Z" fill="#23A6F0"/>
</g>
<defs>
<clipPath id="clip0_232_233">
<rect width="41" height="22" fill="white"/>
</clipPath>
</defs>
</svg>
