<svg width="328" height="664" viewBox="0 0 328 664" fill="none" xmlns="http://www.w3.org/2000/svg">
<rect x="1" y="0.5" width="326" height="663" fill="white"/>
<rect x="1" y="0.5" width="326" height="663" stroke="#23A6F0"/>
<path d="M145.664 58.224V61.512H137.888V65.136H145.28V68.424H137.888V75H134.144V58.224H145.664ZM162.548 63.792C162.548 66.48 161.484 68.216 159.356 69L163.604 75H158.996L155.276 69.648H152.684V75H148.94V58.224H155.3C157.908 58.224 159.764 58.664 160.868 59.544C161.988 60.424 162.548 61.84 162.548 63.792ZM155.42 66.408C156.7 66.408 157.572 66.2 158.036 65.784C158.5 65.368 158.732 64.712 158.732 63.816C158.732 62.904 158.492 62.28 158.012 61.944C157.532 61.608 156.692 61.44 155.492 61.44H152.684V66.408H155.42ZM178.573 58.224V61.56H170.221V65.016H177.733V68.208H170.221V71.688H178.837V75H166.477V58.224H178.573ZM194.376 58.224V61.56H186.024V65.016H193.536V68.208H186.024V71.688H194.64V75H182.28V58.224H194.376Z" fill="#252B42"/>
<path d="M94.3376 129.352C94.3376 128.349 94.0176 127.496 93.3776 126.792C92.7376 126.088 91.9482 125.736 91.0096 125.736C90.0816 125.736 89.2976 126.088 88.6576 126.792C88.0176 127.496 87.6976 128.349 87.6976 129.352C87.6976 130.344 88.0176 131.192 88.6576 131.896C89.2976 132.589 90.0816 132.936 91.0096 132.936C91.9482 132.936 92.7376 132.589 93.3776 131.896C94.0176 131.192 94.3376 130.344 94.3376 129.352ZM95.1856 133.464C94.0549 134.563 92.6629 135.112 91.0096 135.112C89.3562 135.112 87.9642 134.563 86.8336 133.464C85.7029 132.355 85.1376 130.979 85.1376 129.336C85.1376 127.693 85.7029 126.323 86.8336 125.224C87.9642 124.115 89.3562 123.56 91.0096 123.56C92.6629 123.56 94.0549 124.115 95.1856 125.224C96.3162 126.323 96.8816 127.693 96.8816 129.336C96.8816 130.979 96.3162 132.355 95.1856 133.464ZM103.384 128.504C102.67 128.504 102.136 128.76 101.784 129.272C101.432 129.773 101.256 130.44 101.256 131.272V135H98.8563V126.392H101.256V127.528C101.566 127.176 101.95 126.877 102.408 126.632C102.878 126.387 103.352 126.259 103.832 126.248L103.848 128.504H103.384ZM111.566 130.52C111.566 129.827 111.374 129.283 110.99 128.888C110.606 128.493 110.132 128.296 109.566 128.296C109.001 128.296 108.51 128.493 108.094 128.888C107.689 129.283 107.486 129.821 107.486 130.504C107.486 131.187 107.684 131.741 108.078 132.168C108.484 132.584 108.974 132.792 109.55 132.792C110.126 132.792 110.606 132.584 110.99 132.168C111.374 131.752 111.566 131.203 111.566 130.52ZM111.902 133.544C111.145 134.387 110.201 134.808 109.07 134.808C107.95 134.808 107.001 134.429 106.222 133.672C105.454 132.904 105.07 131.885 105.07 130.616C105.07 129.336 105.465 128.291 106.254 127.48C107.054 126.659 107.966 126.248 108.99 126.248C110.014 126.248 110.862 126.669 111.534 127.512V126.376H113.934V133.88C113.934 134.648 113.801 135.331 113.534 135.928C113.268 136.525 112.91 136.995 112.462 137.336C111.577 138.04 110.532 138.392 109.326 138.392C108.686 138.392 108.03 138.285 107.358 138.072C106.697 137.869 106.116 137.576 105.614 137.192L106.542 135.384C107.332 135.981 108.164 136.28 109.038 136.28C109.924 136.28 110.622 136.061 111.134 135.624C111.646 135.187 111.902 134.493 111.902 133.544ZM123.618 135H121.362V133.96C120.744 134.739 119.976 135.128 119.058 135.128C118.152 135.128 117.389 134.867 116.77 134.344C116.152 133.811 115.842 133.107 115.842 132.232C115.842 131.347 116.162 130.685 116.802 130.248C117.442 129.811 118.317 129.592 119.426 129.592H121.218V129.544C121.218 128.627 120.733 128.168 119.762 128.168C119.346 128.168 118.904 128.253 118.434 128.424C117.976 128.584 117.586 128.787 117.266 129.032L116.194 127.48C117.325 126.659 118.616 126.248 120.066 126.248C121.112 126.248 121.965 126.509 122.626 127.032C123.288 127.555 123.618 128.381 123.618 129.512V135ZM121.202 131.72V131.304H119.698C118.738 131.304 118.258 131.603 118.258 132.2C118.258 132.509 118.37 132.749 118.594 132.92C118.829 133.08 119.16 133.16 119.586 133.16C120.013 133.16 120.386 133.032 120.706 132.776C121.037 132.509 121.202 132.157 121.202 131.72ZM128.306 130.2V135H125.906V126.392H128.306V127.352C129.032 126.616 129.848 126.248 130.754 126.248C131.661 126.248 132.418 126.568 133.026 127.208C133.645 127.848 133.954 128.701 133.954 129.768V135H131.554V130.136C131.554 128.813 131.069 128.152 130.098 128.152C129.618 128.152 129.197 128.328 128.834 128.68C128.482 129.021 128.306 129.528 128.306 130.2ZM138.625 135H136.225V126.392H138.625V135ZM136.417 125.304C136.15 125.027 136.017 124.691 136.017 124.296C136.017 123.901 136.15 123.571 136.417 123.304C136.694 123.027 137.03 122.888 137.425 122.888C137.82 122.888 138.15 123.027 138.417 123.304C138.694 123.571 138.833 123.901 138.833 124.296C138.833 124.691 138.694 125.027 138.417 125.304C138.15 125.571 137.82 125.704 137.425 125.704C137.03 125.704 136.694 125.571 136.417 125.304ZM140.837 128.376V126.392H147.781V128.264L143.605 133H148.021V135H140.533V133.016L144.597 128.376H140.837ZM157.397 133.752C156.426 134.669 155.285 135.128 153.973 135.128C152.671 135.128 151.594 134.728 150.741 133.928C149.887 133.117 149.461 132.035 149.461 130.68C149.461 129.325 149.893 128.248 150.757 127.448C151.631 126.648 152.661 126.248 153.845 126.248C155.029 126.248 156.031 126.605 156.853 127.32C157.685 128.035 158.101 129.016 158.101 130.264V131.544H151.829C151.903 132.013 152.149 132.397 152.565 132.696C152.981 132.995 153.45 133.144 153.973 133.144C154.815 133.144 155.509 132.861 156.053 132.296L157.397 133.752ZM155.669 129.832C155.615 129.32 155.423 128.925 155.093 128.648C154.762 128.371 154.357 128.232 153.877 128.232C153.407 128.232 152.975 128.376 152.581 128.664C152.186 128.952 151.957 129.341 151.893 129.832H155.669ZM171.562 135H169.306V133.96C168.687 134.739 167.919 135.128 167.002 135.128C166.095 135.128 165.333 134.867 164.714 134.344C164.095 133.811 163.786 133.107 163.786 132.232C163.786 131.347 164.106 130.685 164.746 130.248C165.386 129.811 166.261 129.592 167.37 129.592H169.162V129.544C169.162 128.627 168.677 128.168 167.706 128.168C167.29 128.168 166.847 128.253 166.378 128.424C165.919 128.584 165.53 128.787 165.21 129.032L164.138 127.48C165.269 126.659 166.559 126.248 168.01 126.248C169.055 126.248 169.909 126.509 170.57 127.032C171.231 127.555 171.562 128.381 171.562 129.512V135ZM169.146 131.72V131.304H167.642C166.682 131.304 166.202 131.603 166.202 132.2C166.202 132.509 166.314 132.749 166.538 132.92C166.773 133.08 167.103 133.16 167.53 133.16C167.957 133.16 168.33 133.032 168.65 132.776C168.981 132.509 169.146 132.157 169.146 131.72ZM177.978 133C178.778 133 179.498 132.6 180.138 131.8L181.562 133.4C180.453 134.552 179.253 135.128 177.962 135.128C176.671 135.128 175.578 134.723 174.682 133.912C173.797 133.091 173.354 132.024 173.354 130.712C173.354 129.389 173.802 128.317 174.698 127.496C175.605 126.664 176.677 126.248 177.914 126.248C178.533 126.248 179.157 126.376 179.786 126.632C180.426 126.888 180.986 127.267 181.466 127.768L180.218 129.4C179.941 129.069 179.599 128.813 179.194 128.632C178.799 128.451 178.405 128.36 178.01 128.36C177.381 128.36 176.837 128.568 176.378 128.984C175.93 129.389 175.706 129.96 175.706 130.696C175.706 131.421 175.93 131.987 176.378 132.392C176.837 132.797 177.37 133 177.978 133ZM187.791 128.504C187.076 128.504 186.543 128.76 186.191 129.272C185.839 129.773 185.663 130.44 185.663 131.272V135H183.263V126.392H185.663V127.528C185.972 127.176 186.356 126.877 186.815 126.632C187.284 126.387 187.759 126.259 188.239 126.248L188.255 128.504H187.791ZM191.736 130.696C191.736 131.4 191.933 131.976 192.328 132.424C192.733 132.861 193.245 133.08 193.864 133.08C194.493 133.08 195.005 132.861 195.4 132.424C195.805 131.976 196.008 131.4 196.008 130.696C196.008 129.992 195.805 129.416 195.4 128.968C195.005 128.52 194.493 128.296 193.864 128.296C193.245 128.296 192.733 128.52 192.328 128.968C191.933 129.416 191.736 129.992 191.736 130.696ZM198.424 130.696C198.424 131.944 197.992 132.995 197.128 133.848C196.264 134.701 195.176 135.128 193.864 135.128C192.562 135.128 191.48 134.701 190.616 133.848C189.752 132.995 189.32 131.944 189.32 130.696C189.32 129.448 189.752 128.397 190.616 127.544C191.48 126.68 192.562 126.248 193.864 126.248C195.176 126.248 196.264 126.68 197.128 127.544C197.992 128.397 198.424 129.448 198.424 130.696ZM206.708 132.328C206.708 133.171 206.394 133.848 205.764 134.36C205.146 134.872 204.356 135.128 203.396 135.128C202.756 135.128 202.09 135.016 201.396 134.792C200.703 134.557 200.079 134.216 199.524 133.768L200.58 132.264C201.476 132.957 202.431 133.304 203.444 133.304C203.754 133.304 203.999 133.245 204.18 133.128C204.362 133 204.452 132.835 204.452 132.632C204.452 132.429 204.324 132.243 204.068 132.072C203.823 131.901 203.46 131.741 202.98 131.592C202.511 131.443 202.148 131.315 201.892 131.208C201.647 131.101 201.364 130.947 201.044 130.744C200.394 130.339 200.068 129.741 200.068 128.952C200.068 128.152 200.388 127.501 201.028 127C201.668 126.499 202.495 126.248 203.508 126.248C204.522 126.248 205.535 126.589 206.548 127.272L205.652 128.872C204.906 128.36 204.159 128.104 203.412 128.104C202.676 128.104 202.308 128.307 202.308 128.712C202.308 128.936 202.426 129.112 202.66 129.24C202.895 129.368 203.284 129.517 203.828 129.688C204.372 129.859 204.756 129.992 204.98 130.088C205.215 130.173 205.492 130.312 205.812 130.504C206.41 130.867 206.708 131.475 206.708 132.328ZM215.121 132.328C215.121 133.171 214.806 133.848 214.177 134.36C213.558 134.872 212.769 135.128 211.809 135.128C211.169 135.128 210.502 135.016 209.809 134.792C209.115 134.557 208.491 134.216 207.937 133.768L208.993 132.264C209.889 132.957 210.843 133.304 211.857 133.304C212.166 133.304 212.411 133.245 212.593 133.128C212.774 133 212.865 132.835 212.865 132.632C212.865 132.429 212.737 132.243 212.481 132.072C212.235 131.901 211.873 131.741 211.393 131.592C210.923 131.443 210.561 131.315 210.305 131.208C210.059 131.101 209.777 130.947 209.457 130.744C208.806 130.339 208.481 129.741 208.481 128.952C208.481 128.152 208.801 127.501 209.441 127C210.081 126.499 210.907 126.248 211.921 126.248C212.934 126.248 213.947 126.589 214.961 127.272L214.065 128.872C213.318 128.36 212.571 128.104 211.825 128.104C211.089 128.104 210.721 128.307 210.721 128.712C210.721 128.936 210.838 129.112 211.073 129.24C211.307 129.368 211.697 129.517 212.241 129.688C212.785 129.859 213.169 129.992 213.393 130.088C213.627 130.173 213.905 130.312 214.225 130.504C214.822 130.867 215.121 131.475 215.121 132.328ZM228.684 135H226.428V133.96C225.809 134.739 225.041 135.128 224.124 135.128C223.217 135.128 222.455 134.867 221.836 134.344C221.217 133.811 220.908 133.107 220.908 132.232C220.908 131.347 221.228 130.685 221.868 130.248C222.508 129.811 223.383 129.592 224.492 129.592H226.284V129.544C226.284 128.627 225.799 128.168 224.828 128.168C224.412 128.168 223.969 128.253 223.5 128.424C223.041 128.584 222.652 128.787 222.332 129.032L221.26 127.48C222.391 126.659 223.681 126.248 225.132 126.248C226.177 126.248 227.031 126.509 227.692 127.032C228.353 127.555 228.684 128.381 228.684 129.512V135ZM226.268 131.72V131.304H224.764C223.804 131.304 223.324 131.603 223.324 132.2C223.324 132.509 223.436 132.749 223.66 132.92C223.895 133.08 224.225 133.16 224.652 133.16C225.079 133.16 225.452 133.032 225.772 132.776C226.103 132.509 226.268 132.157 226.268 131.72ZM233.372 135H230.972V123.128H233.372V135ZM238.144 135H235.744V123.128H238.144V135ZM117.898 159H115.642V157.96C115.023 158.739 114.255 159.128 113.338 159.128C112.431 159.128 111.669 158.867 111.05 158.344C110.431 157.811 110.122 157.107 110.122 156.232C110.122 155.347 110.442 154.685 111.082 154.248C111.722 153.811 112.597 153.592 113.706 153.592H115.498V153.544C115.498 152.627 115.013 152.168 114.042 152.168C113.626 152.168 113.183 152.253 112.714 152.424C112.255 152.584 111.866 152.787 111.546 153.032L110.474 151.48C111.605 150.659 112.895 150.248 114.346 150.248C115.391 150.248 116.245 150.509 116.906 151.032C117.567 151.555 117.898 152.381 117.898 153.512V159ZM115.482 155.72V155.304H113.978C113.018 155.304 112.538 155.603 112.538 156.2C112.538 156.509 112.65 156.749 112.874 156.92C113.109 157.08 113.439 157.16 113.866 157.16C114.293 157.16 114.666 157.032 114.986 156.776C115.317 156.509 115.482 156.157 115.482 155.72ZM125.194 150.248C126.197 150.248 127.087 150.669 127.866 151.512C128.655 152.344 129.05 153.395 129.05 154.664C129.05 155.933 128.655 156.995 127.866 157.848C127.087 158.701 126.17 159.128 125.114 159.128C124.069 159.128 123.226 158.707 122.586 157.864V162.104H120.186V150.392H122.586V151.352C123.322 150.616 124.191 150.248 125.194 150.248ZM122.554 154.712C122.554 155.405 122.746 155.976 123.13 156.424C123.525 156.861 123.999 157.08 124.554 157.08C125.109 157.08 125.594 156.861 126.01 156.424C126.426 155.976 126.634 155.405 126.634 154.712C126.634 154.019 126.431 153.437 126.026 152.968C125.621 152.499 125.135 152.264 124.57 152.264C124.005 152.264 123.525 152.499 123.13 152.968C122.746 153.427 122.554 154.008 122.554 154.712ZM135.95 150.248C136.953 150.248 137.844 150.669 138.622 151.512C139.412 152.344 139.806 153.395 139.806 154.664C139.806 155.933 139.412 156.995 138.622 157.848C137.844 158.701 136.926 159.128 135.87 159.128C134.825 159.128 133.982 158.707 133.342 157.864V162.104H130.942V150.392H133.342V151.352C134.078 150.616 134.948 150.248 135.95 150.248ZM133.31 154.712C133.31 155.405 133.502 155.976 133.886 156.424C134.281 156.861 134.756 157.08 135.31 157.08C135.865 157.08 136.35 156.861 136.766 156.424C137.182 155.976 137.39 155.405 137.39 154.712C137.39 154.019 137.188 153.437 136.782 152.968C136.377 152.499 135.892 152.264 135.326 152.264C134.761 152.264 134.281 152.499 133.886 152.968C133.502 153.427 133.31 154.008 133.31 154.712ZM148.1 156.328C148.1 157.171 147.786 157.848 147.156 158.36C146.538 158.872 145.748 159.128 144.788 159.128C144.148 159.128 143.482 159.016 142.788 158.792C142.095 158.557 141.471 158.216 140.916 157.768L141.972 156.264C142.868 156.957 143.823 157.304 144.836 157.304C145.146 157.304 145.391 157.245 145.572 157.128C145.754 157 145.844 156.835 145.844 156.632C145.844 156.429 145.716 156.243 145.46 156.072C145.215 155.901 144.852 155.741 144.372 155.592C143.903 155.443 143.54 155.315 143.284 155.208C143.039 155.101 142.756 154.947 142.436 154.744C141.786 154.339 141.46 153.741 141.46 152.952C141.46 152.152 141.78 151.501 142.42 151C143.06 150.499 143.887 150.248 144.9 150.248C145.914 150.248 146.927 150.589 147.94 151.272L147.044 152.872C146.298 152.36 145.551 152.104 144.804 152.104C144.068 152.104 143.7 152.307 143.7 152.712C143.7 152.936 143.818 153.112 144.052 153.24C144.287 153.368 144.676 153.517 145.22 153.688C145.764 153.859 146.148 153.992 146.372 154.088C146.607 154.173 146.884 154.312 147.204 154.504C147.802 154.867 148.1 155.475 148.1 156.328ZM159.312 150.248C160.357 150.248 161.269 150.659 162.048 151.48C162.826 152.291 163.216 153.336 163.216 154.616C163.216 155.896 162.816 156.968 162.016 157.832C161.216 158.696 160.304 159.128 159.28 159.128C158.266 159.128 157.424 158.707 156.752 157.864V159H154.352V147.128H156.752V151.352C157.413 150.616 158.266 150.248 159.312 150.248ZM156.72 154.712C156.72 155.405 156.912 155.976 157.296 156.424C157.69 156.861 158.165 157.08 158.72 157.08C159.274 157.08 159.76 156.861 160.176 156.424C160.592 155.976 160.8 155.405 160.8 154.712C160.8 154.019 160.597 153.437 160.192 152.968C159.786 152.499 159.301 152.264 158.736 152.264C158.17 152.264 157.69 152.499 157.296 152.968C156.912 153.427 156.72 154.008 156.72 154.712ZM166.424 162.392C165.581 162.392 164.787 162.051 164.04 161.368L165.128 159.592C165.533 159.987 165.949 160.184 166.376 160.184C166.6 160.184 166.792 160.072 166.952 159.848C167.112 159.635 167.192 159.405 167.192 159.16C167.192 158.915 166.083 155.992 163.864 150.392H166.424L168.52 155.752L170.616 150.392H173.176L169.176 160.536C168.941 161.123 168.573 161.576 168.072 161.896C167.581 162.227 167.032 162.392 166.424 162.392ZM181.192 154.36V159H178.792V147.128H181.192V151.352C181.918 150.616 182.728 150.248 183.624 150.248C184.531 150.248 185.294 150.568 185.912 151.208C186.531 151.848 186.84 152.701 186.84 153.768V159H184.44V154.296C184.44 152.973 183.955 152.312 182.984 152.312C182.504 152.312 182.083 152.488 181.72 152.84C181.368 153.181 181.192 153.688 181.192 154.36ZM196.423 159H194.167V157.96C193.548 158.739 192.78 159.128 191.863 159.128C190.956 159.128 190.194 158.867 189.575 158.344C188.956 157.811 188.647 157.107 188.647 156.232C188.647 155.347 188.967 154.685 189.607 154.248C190.247 153.811 191.122 153.592 192.231 153.592H194.023V153.544C194.023 152.627 193.538 152.168 192.567 152.168C192.151 152.168 191.708 152.253 191.239 152.424C190.78 152.584 190.391 152.787 190.071 153.032L188.999 151.48C190.13 150.659 191.42 150.248 192.871 150.248C193.916 150.248 194.77 150.509 195.431 151.032C196.092 151.555 196.423 152.381 196.423 153.512V159ZM194.007 155.72V155.304H192.503C191.543 155.304 191.063 155.603 191.063 156.2C191.063 156.509 191.175 156.749 191.399 156.92C191.634 157.08 191.964 157.16 192.391 157.16C192.818 157.16 193.191 157.032 193.511 156.776C193.842 156.509 194.007 156.157 194.007 155.72ZM201.111 154.2V159H198.711V150.392H201.111V151.352C201.836 150.616 202.652 150.248 203.559 150.248C204.466 150.248 205.223 150.568 205.831 151.208C206.45 151.848 206.759 152.701 206.759 153.768V159H204.359V154.136C204.359 152.813 203.874 152.152 202.903 152.152C202.423 152.152 202.002 152.328 201.639 152.68C201.287 153.021 201.111 153.528 201.111 154.2ZM212.47 159.128C211.456 159.128 210.55 158.696 209.75 157.832C208.95 156.968 208.55 155.896 208.55 154.616C208.55 153.336 208.939 152.291 209.718 151.48C210.496 150.659 211.408 150.248 212.454 150.248C213.499 150.248 214.352 150.616 215.014 151.352V147.128H217.414V159H215.014V157.864C214.342 158.707 213.494 159.128 212.47 159.128ZM210.966 154.712C210.966 155.405 211.174 155.976 211.59 156.424C212.006 156.861 212.491 157.08 213.046 157.08C213.6 157.08 214.07 156.861 214.454 156.424C214.848 155.976 215.046 155.405 215.046 154.712C215.046 154.008 214.848 153.427 214.454 152.968C214.07 152.499 213.595 152.264 213.03 152.264C212.464 152.264 211.979 152.499 211.574 152.968C211.168 153.437 210.966 154.019 210.966 154.712Z" fill="#737373"/>
<g clip-path="url(#clip0_232_1966)">
<path d="M115.68 221.12C114.8 222.827 114.36 225.08 114.36 227.88C114.36 230.68 114.8 232.933 115.68 234.64C116.56 236.347 117.933 237.2 119.8 237.2C121.667 237.2 123.04 236.347 123.92 234.64C124.8 232.933 125.24 230.68 125.24 227.88C125.24 225.08 124.8 222.827 123.92 221.12C123.04 219.413 121.667 218.56 119.8 218.56C117.933 218.56 116.56 219.413 115.68 221.12ZM119.8 242.32C115.933 242.32 113.04 241.013 111.12 238.4C109.2 235.76 108.24 232.253 108.24 227.88C108.24 223.48 109.2 219.973 111.12 217.36C113.04 214.72 115.933 213.4 119.8 213.4C123.667 213.4 126.56 214.72 128.48 217.36C130.4 219.973 131.36 223.48 131.36 227.88C131.36 232.253 130.4 235.76 128.48 238.4C126.56 241.013 123.667 242.32 119.8 242.32Z" fill="#23A6F0"/>
<path d="M150.48 226.656V224.904C148.448 224.584 146.576 223.664 144.864 222.144L147.096 219.432C148.344 220.52 149.472 221.216 150.48 221.52V217.944C148.8 217.512 147.568 216.936 146.784 216.216C146 215.48 145.608 214.432 145.608 213.072C145.608 211.696 146.056 210.568 146.952 209.688C147.848 208.792 149.024 208.256 150.48 208.08V206.904H153.024V208.128C154.624 208.352 156.216 209.016 157.8 210.12L155.832 212.952C154.824 212.232 153.888 211.752 153.024 211.512V214.968C154.752 215.416 156.024 216.016 156.84 216.768C157.672 217.52 158.088 218.584 158.088 219.96C158.088 221.336 157.624 222.472 156.696 223.368C155.784 224.264 154.56 224.8 153.024 224.976V226.656H150.48ZM154.248 220.152C154.248 219.816 154.16 219.536 153.984 219.312C153.808 219.088 153.488 218.88 153.024 218.688V221.64C153.84 221.384 154.248 220.888 154.248 220.152ZM150.48 211.416C149.792 211.656 149.448 212.096 149.448 212.736C149.448 213.376 149.792 213.864 150.48 214.2V211.416Z" fill="#23A6F0"/>
<path d="M149.348 239.2H145.316V249H147.136V246.172H149.348C151.924 246.172 153.52 244.842 153.52 242.686C153.52 240.516 151.924 239.2 149.348 239.2ZM149.264 244.632H147.136V240.74H149.264C150.86 240.74 151.686 241.454 151.686 242.686C151.686 243.918 150.86 244.632 149.264 244.632ZM162.37 245.304C162.37 242.966 160.774 241.44 158.59 241.44C156.364 241.44 154.726 243.036 154.726 245.262C154.726 247.488 156.35 249.098 158.856 249.098C160.144 249.098 161.194 248.678 161.866 247.88L160.928 246.802C160.396 247.348 159.738 247.614 158.898 247.614C157.596 247.614 156.686 246.914 156.476 245.822H162.342C162.356 245.654 162.37 245.444 162.37 245.304ZM158.59 242.84C159.738 242.84 160.564 243.582 160.704 244.66H156.462C156.63 243.568 157.456 242.84 158.59 242.84ZM165.917 242.616V241.524H164.251V249H166.001V245.374C166.001 243.848 166.841 243.064 168.171 243.064C168.297 243.064 168.423 243.078 168.577 243.106V241.44C167.331 241.44 166.421 241.832 165.917 242.616ZM185.291 249L185.277 239.2H183.779L179.957 245.696L176.065 239.2H174.567V249H176.303V242.588L179.523 247.88H180.335L183.555 242.504L183.569 249H185.291ZM191.33 249.098C193.654 249.098 195.32 247.502 195.32 245.262C195.32 243.022 193.654 241.44 191.33 241.44C189.034 241.44 187.354 243.022 187.354 245.262C187.354 247.502 189.034 249.098 191.33 249.098ZM191.33 247.6C190.07 247.6 189.118 246.69 189.118 245.262C189.118 243.834 190.07 242.924 191.33 242.924C192.604 242.924 193.556 243.834 193.556 245.262C193.556 246.69 192.604 247.6 191.33 247.6ZM201.436 241.44C200.344 241.44 199.434 241.804 198.86 242.49V241.524H197.194V249H198.944V245.22C198.944 243.722 199.784 242.966 201.03 242.966C202.15 242.966 202.808 243.61 202.808 244.94V249H204.558V244.716C204.558 242.462 203.228 241.44 201.436 241.44ZM210.982 247.348C210.716 247.558 210.366 247.656 210.002 247.656C209.33 247.656 208.966 247.264 208.966 246.536V242.98H210.968V241.58H208.966V239.872H207.216V241.58H205.984V242.98H207.216V246.578C207.216 248.23 208.154 249.098 209.792 249.098C210.422 249.098 211.052 248.93 211.472 248.594L210.982 247.348ZM217.353 241.44C216.317 241.44 215.435 241.776 214.861 242.392V238.612H213.111V249H214.861V245.22C214.861 243.722 215.701 242.966 216.947 242.966C218.067 242.966 218.725 243.61 218.725 244.94V249H220.475V244.716C220.475 242.462 219.145 241.44 217.353 241.44Z" fill="#8EC2F2"/>
</g>
<g clip-path="url(#clip1_232_1966)">
<g clip-path="url(#clip2_232_1966)">
<rect x="40.5" y="291" width="32" height="32" rx="16" fill="#2DC071"/>
<g clip-path="url(#clip3_232_1966)">
<path fill-rule="evenodd" clip-rule="evenodd" d="M64.7957 301.204C64.8604 301.269 64.9118 301.346 64.9469 301.43C64.9819 301.515 65 301.605 65 301.697C65 301.788 64.9819 301.879 64.9469 301.963C64.9118 302.048 64.8604 302.125 64.7957 302.189L55.0578 311.927C54.9932 311.992 54.9164 312.043 54.8319 312.078C54.7474 312.113 54.6568 312.131 54.5654 312.131C54.4739 312.131 54.3833 312.113 54.2988 312.078C54.2143 312.043 54.1375 311.992 54.0729 311.927L49.204 307.058C49.0734 306.928 49 306.75 49 306.566C49 306.381 49.0734 306.204 49.204 306.073C49.3346 305.943 49.5117 305.869 49.6964 305.869C49.8811 305.869 50.0583 305.943 50.1889 306.073L54.5654 310.451L63.8107 301.204C63.8754 301.14 63.9521 301.088 64.0366 301.053C64.1211 301.018 64.2117 301 64.3032 301C64.3947 301 64.4853 301.018 64.5698 301.053C64.6543 301.088 64.731 301.14 64.7957 301.204Z" fill="white"/>
</g>
<path d="M86.294 306.855C86.658 307.303 87.148 307.527 87.764 307.527C88.38 307.527 88.8653 307.303 89.22 306.855C89.584 306.398 89.766 305.777 89.766 304.993V299.589H91.95V305.063C91.95 306.482 91.558 307.574 90.774 308.339C89.99 309.095 88.9867 309.473 87.764 309.473C86.5413 309.473 85.5333 309.09 84.74 308.325C83.956 307.56 83.564 306.472 83.564 305.063V299.589H85.748V304.993C85.748 305.777 85.93 306.398 86.294 306.855ZM96.1983 305.175V309.375H94.0983V301.843H96.1983V302.683C96.833 302.039 97.547 301.717 98.3403 301.717C99.1336 301.717 99.7963 301.997 100.328 302.557C100.87 303.117 101.14 303.864 101.14 304.797V309.375H99.0403V305.119C99.0403 303.962 98.6156 303.383 97.7663 303.383C97.3463 303.383 96.9776 303.537 96.6603 303.845C96.3523 304.144 96.1983 304.587 96.1983 305.175ZM105.34 309.375H103.24V298.987H105.34V309.375ZM109.628 309.375H107.528V301.843H109.628V309.375ZM107.696 300.891C107.462 300.648 107.346 300.354 107.346 300.009C107.346 299.664 107.462 299.374 107.696 299.141C107.938 298.898 108.232 298.777 108.578 298.777C108.923 298.777 109.212 298.898 109.446 299.141C109.688 299.374 109.81 299.664 109.81 300.009C109.81 300.354 109.688 300.648 109.446 300.891C109.212 301.124 108.923 301.241 108.578 301.241C108.232 301.241 107.938 301.124 107.696 300.891ZM118.731 305.315V309.375H116.617V305.259C116.617 304.662 116.524 304.223 116.337 303.943C116.16 303.663 115.866 303.523 115.455 303.523C115.054 303.523 114.695 303.677 114.377 303.985C114.069 304.284 113.915 304.727 113.915 305.315V309.375H111.815V301.843H113.915V302.697C114.494 302.044 115.157 301.717 115.903 301.717C116.379 301.717 116.809 301.857 117.191 302.137C117.583 302.417 117.877 302.758 118.073 303.159C118.363 302.702 118.75 302.347 119.235 302.095C119.73 301.843 120.225 301.717 120.719 301.717C121.606 301.717 122.32 301.983 122.861 302.515C123.403 303.038 123.673 303.798 123.673 304.797V309.375H121.559V305.259C121.559 304.102 121.135 303.523 120.285 303.523C119.865 303.523 119.501 303.677 119.193 303.985C118.885 304.284 118.731 304.727 118.731 305.315ZM127.883 309.375H125.783V301.843H127.883V309.375ZM125.951 300.891C125.718 300.648 125.601 300.354 125.601 300.009C125.601 299.664 125.718 299.374 125.951 299.141C126.194 298.898 126.488 298.777 126.833 298.777C127.178 298.777 127.468 298.898 127.701 299.141C127.944 299.374 128.065 299.664 128.065 300.009C128.065 300.354 127.944 300.648 127.701 300.891C127.468 301.124 127.178 301.241 126.833 301.241C126.488 301.241 126.194 301.124 125.951 300.891ZM132.577 303.355V306.729C132.577 307.018 132.652 307.247 132.801 307.415C132.95 307.574 133.128 307.653 133.333 307.653C133.725 307.653 134.056 307.476 134.327 307.121L135.111 308.591C134.458 309.188 133.767 309.487 133.039 309.487C132.32 309.487 131.709 309.249 131.205 308.773C130.71 308.297 130.463 307.648 130.463 306.827V303.355H129.581V301.843H130.463V299.589H132.577V301.843H134.397V303.355H132.577ZM142.961 308.283C142.112 309.086 141.113 309.487 139.965 309.487C138.826 309.487 137.884 309.137 137.137 308.437C136.39 307.728 136.017 306.78 136.017 305.595C136.017 304.41 136.395 303.467 137.151 302.767C137.916 302.067 138.817 301.717 139.853 301.717C140.889 301.717 141.766 302.03 142.485 302.655C143.213 303.28 143.577 304.139 143.577 305.231V306.351H138.089C138.154 306.762 138.369 307.098 138.733 307.359C139.097 307.62 139.508 307.751 139.965 307.751C140.702 307.751 141.309 307.504 141.785 307.009L142.961 308.283ZM141.449 304.853C141.402 304.405 141.234 304.06 140.945 303.817C140.656 303.574 140.301 303.453 139.881 303.453C139.47 303.453 139.092 303.579 138.747 303.831C138.402 304.083 138.201 304.424 138.145 304.853H141.449ZM148.301 309.487C147.415 309.487 146.621 309.109 145.921 308.353C145.221 307.597 144.871 306.659 144.871 305.539C144.871 304.419 145.212 303.504 145.893 302.795C146.575 302.076 147.373 301.717 148.287 301.717C149.202 301.717 149.949 302.039 150.527 302.683V298.987H152.627V309.375H150.527V308.381C149.939 309.118 149.197 309.487 148.301 309.487ZM146.985 305.623C146.985 306.23 147.167 306.729 147.531 307.121C147.895 307.504 148.32 307.695 148.805 307.695C149.291 307.695 149.701 307.504 150.037 307.121C150.383 306.729 150.555 306.23 150.555 305.623C150.555 305.007 150.383 304.498 150.037 304.097C149.701 303.686 149.286 303.481 148.791 303.481C148.297 303.481 147.872 303.686 147.517 304.097C147.163 304.508 146.985 305.016 146.985 305.623ZM163.089 301.717C163.966 301.717 164.746 302.086 165.427 302.823C166.118 303.551 166.463 304.47 166.463 305.581C166.463 306.692 166.118 307.62 165.427 308.367C164.746 309.114 163.943 309.487 163.019 309.487C162.104 309.487 161.367 309.118 160.807 308.381V312.091H158.707V301.843H160.807V302.683C161.451 302.039 162.212 301.717 163.089 301.717ZM160.779 305.623C160.779 306.23 160.947 306.729 161.283 307.121C161.628 307.504 162.044 307.695 162.529 307.695C163.014 307.695 163.439 307.504 163.803 307.121C164.167 306.729 164.349 306.23 164.349 305.623C164.349 305.016 164.172 304.508 163.817 304.097C163.462 303.686 163.038 303.481 162.543 303.481C162.048 303.481 161.628 303.686 161.283 304.097C160.947 304.498 160.779 305.007 160.779 305.623ZM172.193 303.691C171.568 303.691 171.101 303.915 170.793 304.363C170.485 304.802 170.331 305.385 170.331 306.113V309.375H168.231V301.843H170.331V302.837C170.602 302.529 170.938 302.268 171.339 302.053C171.75 301.838 172.165 301.726 172.585 301.717L172.599 303.691H172.193ZM175.758 305.609C175.758 306.225 175.93 306.729 176.276 307.121C176.63 307.504 177.078 307.695 177.62 307.695C178.17 307.695 178.618 307.504 178.964 307.121C179.318 306.729 179.496 306.225 179.496 305.609C179.496 304.993 179.318 304.489 178.964 304.097C178.618 303.705 178.17 303.509 177.62 303.509C177.078 303.509 176.63 303.705 176.276 304.097C175.93 304.489 175.758 304.993 175.758 305.609ZM181.61 305.609C181.61 306.701 181.232 307.62 180.476 308.367C179.72 309.114 178.768 309.487 177.62 309.487C176.481 309.487 175.534 309.114 174.778 308.367C174.022 307.62 173.644 306.701 173.644 305.609C173.644 304.517 174.022 303.598 174.778 302.851C175.534 302.095 176.481 301.717 177.62 301.717C178.768 301.717 179.72 302.095 180.476 302.851C181.232 303.598 181.61 304.517 181.61 305.609ZM186.379 309.487C185.493 309.487 184.699 309.109 183.999 308.353C183.299 307.597 182.949 306.659 182.949 305.539C182.949 304.419 183.29 303.504 183.971 302.795C184.653 302.076 185.451 301.717 186.365 301.717C187.28 301.717 188.027 302.039 188.605 302.683V298.987H190.705V309.375H188.605V308.381C188.017 309.118 187.275 309.487 186.379 309.487ZM185.063 305.623C185.063 306.23 185.245 306.729 185.609 307.121C185.973 307.504 186.398 307.695 186.883 307.695C187.369 307.695 187.779 307.504 188.115 307.121C188.461 306.729 188.633 306.23 188.633 305.623C188.633 305.007 188.461 304.498 188.115 304.097C187.779 303.686 187.364 303.481 186.869 303.481C186.375 303.481 185.95 303.686 185.595 304.097C185.241 304.508 185.063 305.016 185.063 305.623ZM197.752 305.903V301.843H199.866V309.375H197.752V308.381C197.229 309.118 196.552 309.487 195.722 309.487C194.9 309.487 194.21 309.23 193.65 308.717C193.09 308.194 192.81 307.424 192.81 306.407V301.843H194.924V305.945C194.924 307.102 195.348 307.681 196.198 307.681C196.618 307.681 196.982 307.532 197.29 307.233C197.598 306.925 197.752 306.482 197.752 305.903ZM205.661 307.625C206.361 307.625 206.991 307.275 207.551 306.575L208.797 307.975C207.826 308.983 206.776 309.487 205.647 309.487C204.517 309.487 203.561 309.132 202.777 308.423C202.002 307.704 201.615 306.771 201.615 305.623C201.615 304.466 202.007 303.528 202.791 302.809C203.584 302.081 204.522 301.717 205.605 301.717C206.146 301.717 206.692 301.829 207.243 302.053C207.803 302.277 208.293 302.608 208.713 303.047L207.621 304.475C207.378 304.186 207.079 303.962 206.725 303.803C206.379 303.644 206.034 303.565 205.689 303.565C205.138 303.565 204.662 303.747 204.261 304.111C203.869 304.466 203.673 304.965 203.673 305.609C203.673 306.244 203.869 306.738 204.261 307.093C204.662 307.448 205.129 307.625 205.661 307.625ZM212.903 303.355V306.729C212.903 307.018 212.978 307.247 213.127 307.415C213.276 307.574 213.454 307.653 213.659 307.653C214.051 307.653 214.382 307.476 214.653 307.121L215.437 308.591C214.784 309.188 214.093 309.487 213.365 309.487C212.646 309.487 212.035 309.249 211.531 308.773C211.036 308.297 210.789 307.648 210.789 306.827V303.355H209.907V301.843H210.789V299.589H212.903V301.843H214.723V303.355H212.903ZM225.513 305.903V301.843H227.627V309.375H225.513V308.381C224.99 309.118 224.313 309.487 223.483 309.487C222.661 309.487 221.971 309.23 221.411 308.717C220.851 308.194 220.571 307.424 220.571 306.407V301.843H222.685V305.945C222.685 307.102 223.109 307.681 223.959 307.681C224.379 307.681 224.743 307.532 225.051 307.233C225.359 306.925 225.513 306.482 225.513 305.903ZM234.192 301.717C235.069 301.717 235.848 302.086 236.53 302.823C237.22 303.551 237.566 304.47 237.566 305.581C237.566 306.692 237.22 307.62 236.53 308.367C235.848 309.114 235.046 309.487 234.122 309.487C233.207 309.487 232.47 309.118 231.91 308.381V312.091H229.81V301.843H231.91V302.683C232.554 302.039 233.314 301.717 234.192 301.717ZM231.882 305.623C231.882 306.23 232.05 306.729 232.386 307.121C232.731 307.504 233.146 307.695 233.632 307.695C234.117 307.695 234.542 307.504 234.906 307.121C235.27 306.729 235.452 306.23 235.452 305.623C235.452 305.016 235.274 304.508 234.92 304.097C234.565 303.686 234.14 303.481 233.646 303.481C233.151 303.481 232.731 303.686 232.386 304.097C232.05 304.498 231.882 305.007 231.882 305.623ZM242.344 309.487C241.457 309.487 240.664 309.109 239.964 308.353C239.264 307.597 238.914 306.659 238.914 305.539C238.914 304.419 239.255 303.504 239.936 302.795C240.617 302.076 241.415 301.717 242.33 301.717C243.245 301.717 243.991 302.039 244.57 302.683V298.987H246.67V309.375H244.57V308.381C243.982 309.118 243.24 309.487 242.344 309.487ZM241.028 305.623C241.028 306.23 241.21 306.729 241.574 307.121C241.938 307.504 242.363 307.695 242.848 307.695C243.333 307.695 243.744 307.504 244.08 307.121C244.425 306.729 244.598 306.23 244.598 305.623C244.598 305.007 244.425 304.498 244.08 304.097C243.744 303.686 243.329 303.481 242.834 303.481C242.339 303.481 241.915 303.686 241.56 304.097C241.205 304.508 241.028 305.016 241.028 305.623ZM255.256 309.375H253.282V308.465C252.741 309.146 252.069 309.487 251.266 309.487C250.473 309.487 249.805 309.258 249.264 308.801C248.723 308.334 248.452 307.718 248.452 306.953C248.452 306.178 248.732 305.6 249.292 305.217C249.852 304.834 250.617 304.643 251.588 304.643H253.156V304.601C253.156 303.798 252.731 303.397 251.882 303.397C251.518 303.397 251.131 303.472 250.72 303.621C250.319 303.761 249.978 303.938 249.698 304.153L248.76 302.795C249.749 302.076 250.879 301.717 252.148 301.717C253.063 301.717 253.809 301.946 254.388 302.403C254.967 302.86 255.256 303.584 255.256 304.573V309.375ZM253.142 306.505V306.141H251.826C250.986 306.141 250.566 306.402 250.566 306.925C250.566 307.196 250.664 307.406 250.86 307.555C251.065 307.695 251.355 307.765 251.728 307.765C252.101 307.765 252.428 307.653 252.708 307.429C252.997 307.196 253.142 306.888 253.142 306.505ZM259.795 303.355V306.729C259.795 307.018 259.869 307.247 260.019 307.415C260.168 307.574 260.345 307.653 260.551 307.653C260.943 307.653 261.274 307.476 261.545 307.121L262.329 308.591C261.675 309.188 260.985 309.487 260.257 309.487C259.538 309.487 258.927 309.249 258.423 308.773C257.928 308.297 257.681 307.648 257.681 306.827V303.355H256.799V301.843H257.681V299.589H259.795V301.843H261.615V303.355H259.795ZM270.179 308.283C269.329 309.086 268.331 309.487 267.183 309.487C266.044 309.487 265.101 309.137 264.355 308.437C263.608 307.728 263.235 306.78 263.235 305.595C263.235 304.41 263.613 303.467 264.369 302.767C265.134 302.067 266.035 301.717 267.071 301.717C268.107 301.717 268.984 302.03 269.703 302.655C270.431 303.28 270.795 304.139 270.795 305.231V306.351H265.307C265.372 306.762 265.587 307.098 265.951 307.359C266.315 307.62 266.725 307.751 267.183 307.751C267.92 307.751 268.527 307.504 269.003 307.009L270.179 308.283ZM268.667 304.853C268.62 304.405 268.452 304.06 268.163 303.817C267.873 303.574 267.519 303.453 267.099 303.453C266.688 303.453 266.31 303.579 265.965 303.831C265.619 304.083 265.419 304.424 265.363 304.853H268.667ZM278.179 307.037C278.179 307.774 277.904 308.367 277.353 308.815C276.812 309.263 276.121 309.487 275.281 309.487C274.721 309.487 274.138 309.389 273.531 309.193C272.924 308.988 272.378 308.689 271.893 308.297L272.817 306.981C273.601 307.588 274.436 307.891 275.323 307.891C275.594 307.891 275.808 307.84 275.967 307.737C276.126 307.625 276.205 307.48 276.205 307.303C276.205 307.126 276.093 306.962 275.869 306.813C275.654 306.664 275.337 306.524 274.917 306.393C274.506 306.262 274.189 306.15 273.965 306.057C273.75 305.964 273.503 305.828 273.223 305.651C272.654 305.296 272.369 304.774 272.369 304.083C272.369 303.383 272.649 302.814 273.209 302.375C273.769 301.936 274.492 301.717 275.379 301.717C276.266 301.717 277.152 302.016 278.039 302.613L277.255 304.013C276.602 303.565 275.948 303.341 275.295 303.341C274.651 303.341 274.329 303.518 274.329 303.873C274.329 304.069 274.432 304.223 274.637 304.335C274.842 304.447 275.183 304.578 275.659 304.727C276.135 304.876 276.471 304.993 276.667 305.077C276.872 305.152 277.115 305.273 277.395 305.441C277.918 305.758 278.179 306.29 278.179 307.037Z" fill="#252B42"/>
</g>
<g clip-path="url(#clip4_232_1966)">
<rect x="40.5" y="338" width="32" height="32" rx="16" fill="#2DC071"/>
<g clip-path="url(#clip5_232_1966)">
<path fill-rule="evenodd" clip-rule="evenodd" d="M64.7957 348.204C64.8604 348.269 64.9118 348.346 64.9469 348.43C64.9819 348.515 65 348.605 65 348.697C65 348.788 64.9819 348.879 64.9469 348.963C64.9118 349.048 64.8604 349.125 64.7957 349.189L55.0578 358.927C54.9932 358.992 54.9164 359.043 54.8319 359.078C54.7474 359.113 54.6568 359.131 54.5654 359.131C54.4739 359.131 54.3833 359.113 54.2988 359.078C54.2143 359.043 54.1375 358.992 54.0729 358.927L49.204 354.058C49.0734 353.928 49 353.75 49 353.566C49 353.381 49.0734 353.204 49.204 353.073C49.3346 352.943 49.5117 352.869 49.6964 352.869C49.8811 352.869 50.0583 352.943 50.1889 353.073L54.5654 357.451L63.8107 348.204C63.8754 348.14 63.9521 348.088 64.0366 348.053C64.1211 348.018 64.2117 348 64.3032 348C64.3947 348 64.4853 348.018 64.5698 348.053C64.6543 348.088 64.731 348.14 64.7957 348.204Z" fill="white"/>
</g>
<path d="M86.294 353.855C86.658 354.303 87.148 354.527 87.764 354.527C88.38 354.527 88.8653 354.303 89.22 353.855C89.584 353.398 89.766 352.777 89.766 351.993V346.589H91.95V352.063C91.95 353.482 91.558 354.574 90.774 355.339C89.99 356.095 88.9867 356.473 87.764 356.473C86.5413 356.473 85.5333 356.09 84.74 355.325C83.956 354.56 83.564 353.472 83.564 352.063V346.589H85.748V351.993C85.748 352.777 85.93 353.398 86.294 353.855ZM96.1983 352.175V356.375H94.0983V348.843H96.1983V349.683C96.833 349.039 97.547 348.717 98.3403 348.717C99.1336 348.717 99.7963 348.997 100.328 349.557C100.87 350.117 101.14 350.864 101.14 351.797V356.375H99.0403V352.119C99.0403 350.962 98.6156 350.383 97.7663 350.383C97.3463 350.383 96.9776 350.537 96.6603 350.845C96.3523 351.144 96.1983 351.587 96.1983 352.175ZM105.34 356.375H103.24V345.987H105.34V356.375ZM109.628 356.375H107.528V348.843H109.628V356.375ZM107.696 347.891C107.462 347.648 107.346 347.354 107.346 347.009C107.346 346.664 107.462 346.374 107.696 346.141C107.938 345.898 108.232 345.777 108.578 345.777C108.923 345.777 109.212 345.898 109.446 346.141C109.688 346.374 109.81 346.664 109.81 347.009C109.81 347.354 109.688 347.648 109.446 347.891C109.212 348.124 108.923 348.241 108.578 348.241C108.232 348.241 107.938 348.124 107.696 347.891ZM118.731 352.315V356.375H116.617V352.259C116.617 351.662 116.524 351.223 116.337 350.943C116.16 350.663 115.866 350.523 115.455 350.523C115.054 350.523 114.695 350.677 114.377 350.985C114.069 351.284 113.915 351.727 113.915 352.315V356.375H111.815V348.843H113.915V349.697C114.494 349.044 115.157 348.717 115.903 348.717C116.379 348.717 116.809 348.857 117.191 349.137C117.583 349.417 117.877 349.758 118.073 350.159C118.363 349.702 118.75 349.347 119.235 349.095C119.73 348.843 120.225 348.717 120.719 348.717C121.606 348.717 122.32 348.983 122.861 349.515C123.403 350.038 123.673 350.798 123.673 351.797V356.375H121.559V352.259C121.559 351.102 121.135 350.523 120.285 350.523C119.865 350.523 119.501 350.677 119.193 350.985C118.885 351.284 118.731 351.727 118.731 352.315ZM127.883 356.375H125.783V348.843H127.883V356.375ZM125.951 347.891C125.718 347.648 125.601 347.354 125.601 347.009C125.601 346.664 125.718 346.374 125.951 346.141C126.194 345.898 126.488 345.777 126.833 345.777C127.178 345.777 127.468 345.898 127.701 346.141C127.944 346.374 128.065 346.664 128.065 347.009C128.065 347.354 127.944 347.648 127.701 347.891C127.468 348.124 127.178 348.241 126.833 348.241C126.488 348.241 126.194 348.124 125.951 347.891ZM132.577 350.355V353.729C132.577 354.018 132.652 354.247 132.801 354.415C132.95 354.574 133.128 354.653 133.333 354.653C133.725 354.653 134.056 354.476 134.327 354.121L135.111 355.591C134.458 356.188 133.767 356.487 133.039 356.487C132.32 356.487 131.709 356.249 131.205 355.773C130.71 355.297 130.463 354.648 130.463 353.827V350.355H129.581V348.843H130.463V346.589H132.577V348.843H134.397V350.355H132.577ZM142.961 355.283C142.112 356.086 141.113 356.487 139.965 356.487C138.826 356.487 137.884 356.137 137.137 355.437C136.39 354.728 136.017 353.78 136.017 352.595C136.017 351.41 136.395 350.467 137.151 349.767C137.916 349.067 138.817 348.717 139.853 348.717C140.889 348.717 141.766 349.03 142.485 349.655C143.213 350.28 143.577 351.139 143.577 352.231V353.351H138.089C138.154 353.762 138.369 354.098 138.733 354.359C139.097 354.62 139.508 354.751 139.965 354.751C140.702 354.751 141.309 354.504 141.785 354.009L142.961 355.283ZM141.449 351.853C141.402 351.405 141.234 351.06 140.945 350.817C140.656 350.574 140.301 350.453 139.881 350.453C139.47 350.453 139.092 350.579 138.747 350.831C138.402 351.083 138.201 351.424 138.145 351.853H141.449ZM148.301 356.487C147.415 356.487 146.621 356.109 145.921 355.353C145.221 354.597 144.871 353.659 144.871 352.539C144.871 351.419 145.212 350.504 145.893 349.795C146.575 349.076 147.373 348.717 148.287 348.717C149.202 348.717 149.949 349.039 150.527 349.683V345.987H152.627V356.375H150.527V355.381C149.939 356.118 149.197 356.487 148.301 356.487ZM146.985 352.623C146.985 353.23 147.167 353.729 147.531 354.121C147.895 354.504 148.32 354.695 148.805 354.695C149.291 354.695 149.701 354.504 150.037 354.121C150.383 353.729 150.555 353.23 150.555 352.623C150.555 352.007 150.383 351.498 150.037 351.097C149.701 350.686 149.286 350.481 148.791 350.481C148.297 350.481 147.872 350.686 147.517 351.097C147.163 351.508 146.985 352.016 146.985 352.623ZM163.089 348.717C163.966 348.717 164.746 349.086 165.427 349.823C166.118 350.551 166.463 351.47 166.463 352.581C166.463 353.692 166.118 354.62 165.427 355.367C164.746 356.114 163.943 356.487 163.019 356.487C162.104 356.487 161.367 356.118 160.807 355.381V359.091H158.707V348.843H160.807V349.683C161.451 349.039 162.212 348.717 163.089 348.717ZM160.779 352.623C160.779 353.23 160.947 353.729 161.283 354.121C161.628 354.504 162.044 354.695 162.529 354.695C163.014 354.695 163.439 354.504 163.803 354.121C164.167 353.729 164.349 353.23 164.349 352.623C164.349 352.016 164.172 351.508 163.817 351.097C163.462 350.686 163.038 350.481 162.543 350.481C162.048 350.481 161.628 350.686 161.283 351.097C160.947 351.498 160.779 352.007 160.779 352.623ZM172.193 350.691C171.568 350.691 171.101 350.915 170.793 351.363C170.485 351.802 170.331 352.385 170.331 353.113V356.375H168.231V348.843H170.331V349.837C170.602 349.529 170.938 349.268 171.339 349.053C171.75 348.838 172.165 348.726 172.585 348.717L172.599 350.691H172.193ZM175.758 352.609C175.758 353.225 175.93 353.729 176.276 354.121C176.63 354.504 177.078 354.695 177.62 354.695C178.17 354.695 178.618 354.504 178.964 354.121C179.318 353.729 179.496 353.225 179.496 352.609C179.496 351.993 179.318 351.489 178.964 351.097C178.618 350.705 178.17 350.509 177.62 350.509C177.078 350.509 176.63 350.705 176.276 351.097C175.93 351.489 175.758 351.993 175.758 352.609ZM181.61 352.609C181.61 353.701 181.232 354.62 180.476 355.367C179.72 356.114 178.768 356.487 177.62 356.487C176.481 356.487 175.534 356.114 174.778 355.367C174.022 354.62 173.644 353.701 173.644 352.609C173.644 351.517 174.022 350.598 174.778 349.851C175.534 349.095 176.481 348.717 177.62 348.717C178.768 348.717 179.72 349.095 180.476 349.851C181.232 350.598 181.61 351.517 181.61 352.609ZM186.379 356.487C185.493 356.487 184.699 356.109 183.999 355.353C183.299 354.597 182.949 353.659 182.949 352.539C182.949 351.419 183.29 350.504 183.971 349.795C184.653 349.076 185.451 348.717 186.365 348.717C187.28 348.717 188.027 349.039 188.605 349.683V345.987H190.705V356.375H188.605V355.381C188.017 356.118 187.275 356.487 186.379 356.487ZM185.063 352.623C185.063 353.23 185.245 353.729 185.609 354.121C185.973 354.504 186.398 354.695 186.883 354.695C187.369 354.695 187.779 354.504 188.115 354.121C188.461 353.729 188.633 353.23 188.633 352.623C188.633 352.007 188.461 351.498 188.115 351.097C187.779 350.686 187.364 350.481 186.869 350.481C186.375 350.481 185.95 350.686 185.595 351.097C185.241 351.508 185.063 352.016 185.063 352.623ZM197.752 352.903V348.843H199.866V356.375H197.752V355.381C197.229 356.118 196.552 356.487 195.722 356.487C194.9 356.487 194.21 356.23 193.65 355.717C193.09 355.194 192.81 354.424 192.81 353.407V348.843H194.924V352.945C194.924 354.102 195.348 354.681 196.198 354.681C196.618 354.681 196.982 354.532 197.29 354.233C197.598 353.925 197.752 353.482 197.752 352.903ZM205.661 354.625C206.361 354.625 206.991 354.275 207.551 353.575L208.797 354.975C207.826 355.983 206.776 356.487 205.647 356.487C204.517 356.487 203.561 356.132 202.777 355.423C202.002 354.704 201.615 353.771 201.615 352.623C201.615 351.466 202.007 350.528 202.791 349.809C203.584 349.081 204.522 348.717 205.605 348.717C206.146 348.717 206.692 348.829 207.243 349.053C207.803 349.277 208.293 349.608 208.713 350.047L207.621 351.475C207.378 351.186 207.079 350.962 206.725 350.803C206.379 350.644 206.034 350.565 205.689 350.565C205.138 350.565 204.662 350.747 204.261 351.111C203.869 351.466 203.673 351.965 203.673 352.609C203.673 353.244 203.869 353.738 204.261 354.093C204.662 354.448 205.129 354.625 205.661 354.625ZM212.903 350.355V353.729C212.903 354.018 212.978 354.247 213.127 354.415C213.276 354.574 213.454 354.653 213.659 354.653C214.051 354.653 214.382 354.476 214.653 354.121L215.437 355.591C214.784 356.188 214.093 356.487 213.365 356.487C212.646 356.487 212.035 356.249 211.531 355.773C211.036 355.297 210.789 354.648 210.789 353.827V350.355H209.907V348.843H210.789V346.589H212.903V348.843H214.723V350.355H212.903ZM225.513 352.903V348.843H227.627V356.375H225.513V355.381C224.99 356.118 224.313 356.487 223.483 356.487C222.661 356.487 221.971 356.23 221.411 355.717C220.851 355.194 220.571 354.424 220.571 353.407V348.843H222.685V352.945C222.685 354.102 223.109 354.681 223.959 354.681C224.379 354.681 224.743 354.532 225.051 354.233C225.359 353.925 225.513 353.482 225.513 352.903ZM234.192 348.717C235.069 348.717 235.848 349.086 236.53 349.823C237.22 350.551 237.566 351.47 237.566 352.581C237.566 353.692 237.22 354.62 236.53 355.367C235.848 356.114 235.046 356.487 234.122 356.487C233.207 356.487 232.47 356.118 231.91 355.381V359.091H229.81V348.843H231.91V349.683C232.554 349.039 233.314 348.717 234.192 348.717ZM231.882 352.623C231.882 353.23 232.05 353.729 232.386 354.121C232.731 354.504 233.146 354.695 233.632 354.695C234.117 354.695 234.542 354.504 234.906 354.121C235.27 353.729 235.452 353.23 235.452 352.623C235.452 352.016 235.274 351.508 234.92 351.097C234.565 350.686 234.14 350.481 233.646 350.481C233.151 350.481 232.731 350.686 232.386 351.097C232.05 351.498 231.882 352.007 231.882 352.623ZM242.344 356.487C241.457 356.487 240.664 356.109 239.964 355.353C239.264 354.597 238.914 353.659 238.914 352.539C238.914 351.419 239.255 350.504 239.936 349.795C240.617 349.076 241.415 348.717 242.33 348.717C243.245 348.717 243.991 349.039 244.57 349.683V345.987H246.67V356.375H244.57V355.381C243.982 356.118 243.24 356.487 242.344 356.487ZM241.028 352.623C241.028 353.23 241.21 353.729 241.574 354.121C241.938 354.504 242.363 354.695 242.848 354.695C243.333 354.695 243.744 354.504 244.08 354.121C244.425 353.729 244.598 353.23 244.598 352.623C244.598 352.007 244.425 351.498 244.08 351.097C243.744 350.686 243.329 350.481 242.834 350.481C242.339 350.481 241.915 350.686 241.56 351.097C241.205 351.508 241.028 352.016 241.028 352.623ZM255.256 356.375H253.282V355.465C252.741 356.146 252.069 356.487 251.266 356.487C250.473 356.487 249.805 356.258 249.264 355.801C248.723 355.334 248.452 354.718 248.452 353.953C248.452 353.178 248.732 352.6 249.292 352.217C249.852 351.834 250.617 351.643 251.588 351.643H253.156V351.601C253.156 350.798 252.731 350.397 251.882 350.397C251.518 350.397 251.131 350.472 250.72 350.621C250.319 350.761 249.978 350.938 249.698 351.153L248.76 349.795C249.749 349.076 250.879 348.717 252.148 348.717C253.063 348.717 253.809 348.946 254.388 349.403C254.967 349.86 255.256 350.584 255.256 351.573V356.375ZM253.142 353.505V353.141H251.826C250.986 353.141 250.566 353.402 250.566 353.925C250.566 354.196 250.664 354.406 250.86 354.555C251.065 354.695 251.355 354.765 251.728 354.765C252.101 354.765 252.428 354.653 252.708 354.429C252.997 354.196 253.142 353.888 253.142 353.505ZM259.795 350.355V353.729C259.795 354.018 259.869 354.247 260.019 354.415C260.168 354.574 260.345 354.653 260.551 354.653C260.943 354.653 261.274 354.476 261.545 354.121L262.329 355.591C261.675 356.188 260.985 356.487 260.257 356.487C259.538 356.487 258.927 356.249 258.423 355.773C257.928 355.297 257.681 354.648 257.681 353.827V350.355H256.799V348.843H257.681V346.589H259.795V348.843H261.615V350.355H259.795ZM270.179 355.283C269.329 356.086 268.331 356.487 267.183 356.487C266.044 356.487 265.101 356.137 264.355 355.437C263.608 354.728 263.235 353.78 263.235 352.595C263.235 351.41 263.613 350.467 264.369 349.767C265.134 349.067 266.035 348.717 267.071 348.717C268.107 348.717 268.984 349.03 269.703 349.655C270.431 350.28 270.795 351.139 270.795 352.231V353.351H265.307C265.372 353.762 265.587 354.098 265.951 354.359C266.315 354.62 266.725 354.751 267.183 354.751C267.92 354.751 268.527 354.504 269.003 354.009L270.179 355.283ZM268.667 351.853C268.62 351.405 268.452 351.06 268.163 350.817C267.873 350.574 267.519 350.453 267.099 350.453C266.688 350.453 266.31 350.579 265.965 350.831C265.619 351.083 265.419 351.424 265.363 351.853H268.667ZM278.179 354.037C278.179 354.774 277.904 355.367 277.353 355.815C276.812 356.263 276.121 356.487 275.281 356.487C274.721 356.487 274.138 356.389 273.531 356.193C272.924 355.988 272.378 355.689 271.893 355.297L272.817 353.981C273.601 354.588 274.436 354.891 275.323 354.891C275.594 354.891 275.808 354.84 275.967 354.737C276.126 354.625 276.205 354.48 276.205 354.303C276.205 354.126 276.093 353.962 275.869 353.813C275.654 353.664 275.337 353.524 274.917 353.393C274.506 353.262 274.189 353.15 273.965 353.057C273.75 352.964 273.503 352.828 273.223 352.651C272.654 352.296 272.369 351.774 272.369 351.083C272.369 350.383 272.649 349.814 273.209 349.375C273.769 348.936 274.492 348.717 275.379 348.717C276.266 348.717 277.152 349.016 278.039 349.613L277.255 351.013C276.602 350.565 275.948 350.341 275.295 350.341C274.651 350.341 274.329 350.518 274.329 350.873C274.329 351.069 274.432 351.223 274.637 351.335C274.842 351.447 275.183 351.578 275.659 351.727C276.135 351.876 276.471 351.993 276.667 352.077C276.872 352.152 277.115 352.273 277.395 352.441C277.918 352.758 278.179 353.29 278.179 354.037Z" fill="#252B42"/>
</g>
<g clip-path="url(#clip6_232_1966)">
<rect x="40.5" y="385" width="32" height="32" rx="16" fill="#2DC071"/>
<g clip-path="url(#clip7_232_1966)">
<path fill-rule="evenodd" clip-rule="evenodd" d="M64.7957 395.204C64.8604 395.269 64.9118 395.346 64.9469 395.43C64.9819 395.515 65 395.605 65 395.697C65 395.788 64.9819 395.879 64.9469 395.963C64.9118 396.048 64.8604 396.125 64.7957 396.189L55.0578 405.927C54.9932 405.992 54.9164 406.043 54.8319 406.078C54.7474 406.113 54.6568 406.131 54.5654 406.131C54.4739 406.131 54.3833 406.113 54.2988 406.078C54.2143 406.043 54.1375 405.992 54.0729 405.927L49.204 401.058C49.0734 400.928 49 400.75 49 400.566C49 400.381 49.0734 400.204 49.204 400.073C49.3346 399.943 49.5117 399.869 49.6964 399.869C49.8811 399.869 50.0583 399.943 50.1889 400.073L54.5654 404.451L63.8107 395.204C63.8754 395.14 63.9521 395.088 64.0366 395.053C64.1211 395.018 64.2117 395 64.3032 395C64.3947 395 64.4853 395.018 64.5698 395.053C64.6543 395.088 64.731 395.14 64.7957 395.204Z" fill="white"/>
</g>
<path d="M86.294 400.855C86.658 401.303 87.148 401.527 87.764 401.527C88.38 401.527 88.8653 401.303 89.22 400.855C89.584 400.398 89.766 399.777 89.766 398.993V393.589H91.95V399.063C91.95 400.482 91.558 401.574 90.774 402.339C89.99 403.095 88.9867 403.473 87.764 403.473C86.5413 403.473 85.5333 403.09 84.74 402.325C83.956 401.56 83.564 400.472 83.564 399.063V393.589H85.748V398.993C85.748 399.777 85.93 400.398 86.294 400.855ZM96.1983 399.175V403.375H94.0983V395.843H96.1983V396.683C96.833 396.039 97.547 395.717 98.3403 395.717C99.1336 395.717 99.7963 395.997 100.328 396.557C100.87 397.117 101.14 397.864 101.14 398.797V403.375H99.0403V399.119C99.0403 397.962 98.6156 397.383 97.7663 397.383C97.3463 397.383 96.9776 397.537 96.6603 397.845C96.3523 398.144 96.1983 398.587 96.1983 399.175ZM105.34 403.375H103.24V392.987H105.34V403.375ZM109.628 403.375H107.528V395.843H109.628V403.375ZM107.696 394.891C107.462 394.648 107.346 394.354 107.346 394.009C107.346 393.664 107.462 393.374 107.696 393.141C107.938 392.898 108.232 392.777 108.578 392.777C108.923 392.777 109.212 392.898 109.446 393.141C109.688 393.374 109.81 393.664 109.81 394.009C109.81 394.354 109.688 394.648 109.446 394.891C109.212 395.124 108.923 395.241 108.578 395.241C108.232 395.241 107.938 395.124 107.696 394.891ZM118.731 399.315V403.375H116.617V399.259C116.617 398.662 116.524 398.223 116.337 397.943C116.16 397.663 115.866 397.523 115.455 397.523C115.054 397.523 114.695 397.677 114.377 397.985C114.069 398.284 113.915 398.727 113.915 399.315V403.375H111.815V395.843H113.915V396.697C114.494 396.044 115.157 395.717 115.903 395.717C116.379 395.717 116.809 395.857 117.191 396.137C117.583 396.417 117.877 396.758 118.073 397.159C118.363 396.702 118.75 396.347 119.235 396.095C119.73 395.843 120.225 395.717 120.719 395.717C121.606 395.717 122.32 395.983 122.861 396.515C123.403 397.038 123.673 397.798 123.673 398.797V403.375H121.559V399.259C121.559 398.102 121.135 397.523 120.285 397.523C119.865 397.523 119.501 397.677 119.193 397.985C118.885 398.284 118.731 398.727 118.731 399.315ZM127.883 403.375H125.783V395.843H127.883V403.375ZM125.951 394.891C125.718 394.648 125.601 394.354 125.601 394.009C125.601 393.664 125.718 393.374 125.951 393.141C126.194 392.898 126.488 392.777 126.833 392.777C127.178 392.777 127.468 392.898 127.701 393.141C127.944 393.374 128.065 393.664 128.065 394.009C128.065 394.354 127.944 394.648 127.701 394.891C127.468 395.124 127.178 395.241 126.833 395.241C126.488 395.241 126.194 395.124 125.951 394.891ZM132.577 397.355V400.729C132.577 401.018 132.652 401.247 132.801 401.415C132.95 401.574 133.128 401.653 133.333 401.653C133.725 401.653 134.056 401.476 134.327 401.121L135.111 402.591C134.458 403.188 133.767 403.487 133.039 403.487C132.32 403.487 131.709 403.249 131.205 402.773C130.71 402.297 130.463 401.648 130.463 400.827V397.355H129.581V395.843H130.463V393.589H132.577V395.843H134.397V397.355H132.577ZM142.961 402.283C142.112 403.086 141.113 403.487 139.965 403.487C138.826 403.487 137.884 403.137 137.137 402.437C136.39 401.728 136.017 400.78 136.017 399.595C136.017 398.41 136.395 397.467 137.151 396.767C137.916 396.067 138.817 395.717 139.853 395.717C140.889 395.717 141.766 396.03 142.485 396.655C143.213 397.28 143.577 398.139 143.577 399.231V400.351H138.089C138.154 400.762 138.369 401.098 138.733 401.359C139.097 401.62 139.508 401.751 139.965 401.751C140.702 401.751 141.309 401.504 141.785 401.009L142.961 402.283ZM141.449 398.853C141.402 398.405 141.234 398.06 140.945 397.817C140.656 397.574 140.301 397.453 139.881 397.453C139.47 397.453 139.092 397.579 138.747 397.831C138.402 398.083 138.201 398.424 138.145 398.853H141.449ZM148.301 403.487C147.415 403.487 146.621 403.109 145.921 402.353C145.221 401.597 144.871 400.659 144.871 399.539C144.871 398.419 145.212 397.504 145.893 396.795C146.575 396.076 147.373 395.717 148.287 395.717C149.202 395.717 149.949 396.039 150.527 396.683V392.987H152.627V403.375H150.527V402.381C149.939 403.118 149.197 403.487 148.301 403.487ZM146.985 399.623C146.985 400.23 147.167 400.729 147.531 401.121C147.895 401.504 148.32 401.695 148.805 401.695C149.291 401.695 149.701 401.504 150.037 401.121C150.383 400.729 150.555 400.23 150.555 399.623C150.555 399.007 150.383 398.498 150.037 398.097C149.701 397.686 149.286 397.481 148.791 397.481C148.297 397.481 147.872 397.686 147.517 398.097C147.163 398.508 146.985 399.016 146.985 399.623ZM163.089 395.717C163.966 395.717 164.746 396.086 165.427 396.823C166.118 397.551 166.463 398.47 166.463 399.581C166.463 400.692 166.118 401.62 165.427 402.367C164.746 403.114 163.943 403.487 163.019 403.487C162.104 403.487 161.367 403.118 160.807 402.381V406.091H158.707V395.843H160.807V396.683C161.451 396.039 162.212 395.717 163.089 395.717ZM160.779 399.623C160.779 400.23 160.947 400.729 161.283 401.121C161.628 401.504 162.044 401.695 162.529 401.695C163.014 401.695 163.439 401.504 163.803 401.121C164.167 400.729 164.349 400.23 164.349 399.623C164.349 399.016 164.172 398.508 163.817 398.097C163.462 397.686 163.038 397.481 162.543 397.481C162.048 397.481 161.628 397.686 161.283 398.097C160.947 398.498 160.779 399.007 160.779 399.623ZM172.193 397.691C171.568 397.691 171.101 397.915 170.793 398.363C170.485 398.802 170.331 399.385 170.331 400.113V403.375H168.231V395.843H170.331V396.837C170.602 396.529 170.938 396.268 171.339 396.053C171.75 395.838 172.165 395.726 172.585 395.717L172.599 397.691H172.193ZM175.758 399.609C175.758 400.225 175.93 400.729 176.276 401.121C176.63 401.504 177.078 401.695 177.62 401.695C178.17 401.695 178.618 401.504 178.964 401.121C179.318 400.729 179.496 400.225 179.496 399.609C179.496 398.993 179.318 398.489 178.964 398.097C178.618 397.705 178.17 397.509 177.62 397.509C177.078 397.509 176.63 397.705 176.276 398.097C175.93 398.489 175.758 398.993 175.758 399.609ZM181.61 399.609C181.61 400.701 181.232 401.62 180.476 402.367C179.72 403.114 178.768 403.487 177.62 403.487C176.481 403.487 175.534 403.114 174.778 402.367C174.022 401.62 173.644 400.701 173.644 399.609C173.644 398.517 174.022 397.598 174.778 396.851C175.534 396.095 176.481 395.717 177.62 395.717C178.768 395.717 179.72 396.095 180.476 396.851C181.232 397.598 181.61 398.517 181.61 399.609ZM186.379 403.487C185.493 403.487 184.699 403.109 183.999 402.353C183.299 401.597 182.949 400.659 182.949 399.539C182.949 398.419 183.29 397.504 183.971 396.795C184.653 396.076 185.451 395.717 186.365 395.717C187.28 395.717 188.027 396.039 188.605 396.683V392.987H190.705V403.375H188.605V402.381C188.017 403.118 187.275 403.487 186.379 403.487ZM185.063 399.623C185.063 400.23 185.245 400.729 185.609 401.121C185.973 401.504 186.398 401.695 186.883 401.695C187.369 401.695 187.779 401.504 188.115 401.121C188.461 400.729 188.633 400.23 188.633 399.623C188.633 399.007 188.461 398.498 188.115 398.097C187.779 397.686 187.364 397.481 186.869 397.481C186.375 397.481 185.95 397.686 185.595 398.097C185.241 398.508 185.063 399.016 185.063 399.623ZM197.752 399.903V395.843H199.866V403.375H197.752V402.381C197.229 403.118 196.552 403.487 195.722 403.487C194.9 403.487 194.21 403.23 193.65 402.717C193.09 402.194 192.81 401.424 192.81 400.407V395.843H194.924V399.945C194.924 401.102 195.348 401.681 196.198 401.681C196.618 401.681 196.982 401.532 197.29 401.233C197.598 400.925 197.752 400.482 197.752 399.903ZM205.661 401.625C206.361 401.625 206.991 401.275 207.551 400.575L208.797 401.975C207.826 402.983 206.776 403.487 205.647 403.487C204.517 403.487 203.561 403.132 202.777 402.423C202.002 401.704 201.615 400.771 201.615 399.623C201.615 398.466 202.007 397.528 202.791 396.809C203.584 396.081 204.522 395.717 205.605 395.717C206.146 395.717 206.692 395.829 207.243 396.053C207.803 396.277 208.293 396.608 208.713 397.047L207.621 398.475C207.378 398.186 207.079 397.962 206.725 397.803C206.379 397.644 206.034 397.565 205.689 397.565C205.138 397.565 204.662 397.747 204.261 398.111C203.869 398.466 203.673 398.965 203.673 399.609C203.673 400.244 203.869 400.738 204.261 401.093C204.662 401.448 205.129 401.625 205.661 401.625ZM212.903 397.355V400.729C212.903 401.018 212.978 401.247 213.127 401.415C213.276 401.574 213.454 401.653 213.659 401.653C214.051 401.653 214.382 401.476 214.653 401.121L215.437 402.591C214.784 403.188 214.093 403.487 213.365 403.487C212.646 403.487 212.035 403.249 211.531 402.773C211.036 402.297 210.789 401.648 210.789 400.827V397.355H209.907V395.843H210.789V393.589H212.903V395.843H214.723V397.355H212.903ZM225.513 399.903V395.843H227.627V403.375H225.513V402.381C224.99 403.118 224.313 403.487 223.483 403.487C222.661 403.487 221.971 403.23 221.411 402.717C220.851 402.194 220.571 401.424 220.571 400.407V395.843H222.685V399.945C222.685 401.102 223.109 401.681 223.959 401.681C224.379 401.681 224.743 401.532 225.051 401.233C225.359 400.925 225.513 400.482 225.513 399.903ZM234.192 395.717C235.069 395.717 235.848 396.086 236.53 396.823C237.22 397.551 237.566 398.47 237.566 399.581C237.566 400.692 237.22 401.62 236.53 402.367C235.848 403.114 235.046 403.487 234.122 403.487C233.207 403.487 232.47 403.118 231.91 402.381V406.091H229.81V395.843H231.91V396.683C232.554 396.039 233.314 395.717 234.192 395.717ZM231.882 399.623C231.882 400.23 232.05 400.729 232.386 401.121C232.731 401.504 233.146 401.695 233.632 401.695C234.117 401.695 234.542 401.504 234.906 401.121C235.27 400.729 235.452 400.23 235.452 399.623C235.452 399.016 235.274 398.508 234.92 398.097C234.565 397.686 234.14 397.481 233.646 397.481C233.151 397.481 232.731 397.686 232.386 398.097C232.05 398.498 231.882 399.007 231.882 399.623ZM242.344 403.487C241.457 403.487 240.664 403.109 239.964 402.353C239.264 401.597 238.914 400.659 238.914 399.539C238.914 398.419 239.255 397.504 239.936 396.795C240.617 396.076 241.415 395.717 242.33 395.717C243.245 395.717 243.991 396.039 244.57 396.683V392.987H246.67V403.375H244.57V402.381C243.982 403.118 243.24 403.487 242.344 403.487ZM241.028 399.623C241.028 400.23 241.21 400.729 241.574 401.121C241.938 401.504 242.363 401.695 242.848 401.695C243.333 401.695 243.744 401.504 244.08 401.121C244.425 400.729 244.598 400.23 244.598 399.623C244.598 399.007 244.425 398.498 244.08 398.097C243.744 397.686 243.329 397.481 242.834 397.481C242.339 397.481 241.915 397.686 241.56 398.097C241.205 398.508 241.028 399.016 241.028 399.623ZM255.256 403.375H253.282V402.465C252.741 403.146 252.069 403.487 251.266 403.487C250.473 403.487 249.805 403.258 249.264 402.801C248.723 402.334 248.452 401.718 248.452 400.953C248.452 400.178 248.732 399.6 249.292 399.217C249.852 398.834 250.617 398.643 251.588 398.643H253.156V398.601C253.156 397.798 252.731 397.397 251.882 397.397C251.518 397.397 251.131 397.472 250.72 397.621C250.319 397.761 249.978 397.938 249.698 398.153L248.76 396.795C249.749 396.076 250.879 395.717 252.148 395.717C253.063 395.717 253.809 395.946 254.388 396.403C254.967 396.86 255.256 397.584 255.256 398.573V403.375ZM253.142 400.505V400.141H251.826C250.986 400.141 250.566 400.402 250.566 400.925C250.566 401.196 250.664 401.406 250.86 401.555C251.065 401.695 251.355 401.765 251.728 401.765C252.101 401.765 252.428 401.653 252.708 401.429C252.997 401.196 253.142 400.888 253.142 400.505ZM259.795 397.355V400.729C259.795 401.018 259.869 401.247 260.019 401.415C260.168 401.574 260.345 401.653 260.551 401.653C260.943 401.653 261.274 401.476 261.545 401.121L262.329 402.591C261.675 403.188 260.985 403.487 260.257 403.487C259.538 403.487 258.927 403.249 258.423 402.773C257.928 402.297 257.681 401.648 257.681 400.827V397.355H256.799V395.843H257.681V393.589H259.795V395.843H261.615V397.355H259.795ZM270.179 402.283C269.329 403.086 268.331 403.487 267.183 403.487C266.044 403.487 265.101 403.137 264.355 402.437C263.608 401.728 263.235 400.78 263.235 399.595C263.235 398.41 263.613 397.467 264.369 396.767C265.134 396.067 266.035 395.717 267.071 395.717C268.107 395.717 268.984 396.03 269.703 396.655C270.431 397.28 270.795 398.139 270.795 399.231V400.351H265.307C265.372 400.762 265.587 401.098 265.951 401.359C266.315 401.62 266.725 401.751 267.183 401.751C267.92 401.751 268.527 401.504 269.003 401.009L270.179 402.283ZM268.667 398.853C268.62 398.405 268.452 398.06 268.163 397.817C267.873 397.574 267.519 397.453 267.099 397.453C266.688 397.453 266.31 397.579 265.965 397.831C265.619 398.083 265.419 398.424 265.363 398.853H268.667ZM278.179 401.037C278.179 401.774 277.904 402.367 277.353 402.815C276.812 403.263 276.121 403.487 275.281 403.487C274.721 403.487 274.138 403.389 273.531 403.193C272.924 402.988 272.378 402.689 271.893 402.297L272.817 400.981C273.601 401.588 274.436 401.891 275.323 401.891C275.594 401.891 275.808 401.84 275.967 401.737C276.126 401.625 276.205 401.48 276.205 401.303C276.205 401.126 276.093 400.962 275.869 400.813C275.654 400.664 275.337 400.524 274.917 400.393C274.506 400.262 274.189 400.15 273.965 400.057C273.75 399.964 273.503 399.828 273.223 399.651C272.654 399.296 272.369 398.774 272.369 398.083C272.369 397.383 272.649 396.814 273.209 396.375C273.769 395.936 274.492 395.717 275.379 395.717C276.266 395.717 277.152 396.016 278.039 396.613L277.255 398.013C276.602 397.565 275.948 397.341 275.295 397.341C274.651 397.341 274.329 397.518 274.329 397.873C274.329 398.069 274.432 398.223 274.637 398.335C274.842 398.447 275.183 398.578 275.659 398.727C276.135 398.876 276.471 398.993 276.667 399.077C276.872 399.152 277.115 399.273 277.395 399.441C277.918 399.758 278.179 400.29 278.179 401.037Z" fill="#252B42"/>
</g>
<g clip-path="url(#clip8_232_1966)">
<rect x="40.5" y="432" width="32" height="32" rx="16" fill="#BDBDBD"/>
<g clip-path="url(#clip9_232_1966)">
<path fill-rule="evenodd" clip-rule="evenodd" d="M64.7957 442.204C64.8604 442.269 64.9118 442.346 64.9469 442.43C64.9819 442.515 65 442.605 65 442.697C65 442.788 64.9819 442.879 64.9469 442.963C64.9118 443.048 64.8604 443.125 64.7957 443.189L55.0578 452.927C54.9932 452.992 54.9164 453.043 54.8319 453.078C54.7474 453.113 54.6568 453.131 54.5654 453.131C54.4739 453.131 54.3833 453.113 54.2988 453.078C54.2143 453.043 54.1375 452.992 54.0729 452.927L49.204 448.058C49.0734 447.928 49 447.75 49 447.566C49 447.381 49.0734 447.204 49.204 447.073C49.3346 446.943 49.5117 446.869 49.6964 446.869C49.8811 446.869 50.0583 446.943 50.1889 447.073L54.5654 451.451L63.8107 442.204C63.8754 442.14 63.9521 442.088 64.0366 442.053C64.1211 442.018 64.2117 442 64.3032 442C64.3947 442 64.4853 442.018 64.5698 442.053C64.6543 442.088 64.731 442.14 64.7957 442.204Z" fill="white"/>
</g>
<path d="M82.934 440.589H86.896V450.375H84.796V442.451H82.934V440.589ZM95.9065 445.391H98.1045V448.863C97.1338 449.946 95.7898 450.487 94.0725 450.487C92.6352 450.487 91.4265 450.011 90.4465 449.059C89.4758 448.107 88.9905 446.908 88.9905 445.461C88.9905 444.005 89.4852 442.792 90.4745 441.821C91.4732 440.85 92.6725 440.365 94.0725 440.365C95.4818 440.365 96.7045 440.827 97.7405 441.751L96.6065 443.389C96.1678 443.006 95.7618 442.745 95.3885 442.605C95.0245 442.456 94.6278 442.381 94.1985 442.381C93.3678 442.381 92.6678 442.666 92.0985 443.235C91.5292 443.795 91.2445 444.537 91.2445 445.461C91.2445 446.385 91.5152 447.127 92.0565 447.687C92.6072 448.238 93.2605 448.513 94.0165 448.513C94.7725 448.513 95.4025 448.368 95.9065 448.079V445.391ZM104.534 450.375H100.25V440.589H104.058C104.721 440.589 105.29 440.668 105.766 440.827C106.252 440.986 106.616 441.2 106.858 441.471C107.297 441.975 107.516 442.544 107.516 443.179C107.516 443.944 107.269 444.514 106.774 444.887C106.606 445.018 106.49 445.102 106.424 445.139C106.359 445.167 106.242 445.218 106.074 445.293C106.681 445.424 107.162 445.699 107.516 446.119C107.88 446.53 108.062 447.043 108.062 447.659C108.062 448.34 107.829 448.942 107.362 449.465C106.821 450.072 105.878 450.375 104.534 450.375ZM102.434 444.551H103.47C104.077 444.551 104.525 444.486 104.814 444.355C105.113 444.224 105.262 443.944 105.262 443.515C105.262 443.076 105.127 442.787 104.856 442.647C104.586 442.507 104.128 442.437 103.484 442.437H102.434V444.551ZM102.434 448.527H103.932C104.558 448.527 105.024 448.452 105.332 448.303C105.65 448.144 105.808 447.841 105.808 447.393C105.808 446.936 105.64 446.637 105.304 446.497C104.978 446.348 104.45 446.273 103.722 446.273H102.434V448.527ZM122.38 448.443C123.453 448.443 124.33 448.018 125.012 447.169L126.412 448.611C125.301 449.862 123.99 450.487 122.478 450.487C120.975 450.487 119.734 450.011 118.754 449.059C117.783 448.107 117.298 446.908 117.298 445.461C117.298 444.005 117.792 442.792 118.782 441.821C119.78 440.85 120.998 440.365 122.436 440.365C124.041 440.365 125.385 440.976 126.468 442.199L125.11 443.739C124.419 442.88 123.56 442.451 122.534 442.451C121.712 442.451 121.008 442.722 120.42 443.263C119.841 443.795 119.552 444.518 119.552 445.433C119.552 446.338 119.827 447.066 120.378 447.617C120.928 448.168 121.596 448.443 122.38 448.443ZM130.23 450.375H128.13V439.987H130.23V450.375ZM134.097 446.609C134.097 447.225 134.27 447.729 134.615 448.121C134.97 448.504 135.418 448.695 135.959 448.695C136.51 448.695 136.958 448.504 137.303 448.121C137.658 447.729 137.835 447.225 137.835 446.609C137.835 445.993 137.658 445.489 137.303 445.097C136.958 444.705 136.51 444.509 135.959 444.509C135.418 444.509 134.97 444.705 134.615 445.097C134.27 445.489 134.097 445.993 134.097 446.609ZM139.949 446.609C139.949 447.701 139.571 448.62 138.815 449.367C138.059 450.114 137.107 450.487 135.959 450.487C134.821 450.487 133.873 450.114 133.117 449.367C132.361 448.62 131.983 447.701 131.983 446.609C131.983 445.517 132.361 444.598 133.117 443.851C133.873 443.095 134.821 442.717 135.959 442.717C137.107 442.717 138.059 443.095 138.815 443.851C139.571 444.598 139.949 445.517 139.949 446.609ZM146.567 446.903V442.843H148.681V450.375H146.567V449.381C146.045 450.118 145.368 450.487 144.537 450.487C143.716 450.487 143.025 450.23 142.465 449.717C141.905 449.194 141.625 448.424 141.625 447.407V442.843H143.739V446.945C143.739 448.102 144.164 448.681 145.013 448.681C145.433 448.681 145.797 448.532 146.105 448.233C146.413 447.925 146.567 447.482 146.567 446.903ZM153.874 450.487C152.988 450.487 152.194 450.109 151.494 449.353C150.794 448.597 150.444 447.659 150.444 446.539C150.444 445.419 150.785 444.504 151.466 443.795C152.148 443.076 152.946 442.717 153.86 442.717C154.775 442.717 155.522 443.039 156.1 443.683V439.987H158.2V450.375H156.1V449.381C155.512 450.118 154.77 450.487 153.874 450.487ZM152.558 446.623C152.558 447.23 152.74 447.729 153.104 448.121C153.468 448.504 153.893 448.695 154.378 448.695C154.864 448.695 155.274 448.504 155.61 448.121C155.956 447.729 156.128 447.23 156.128 446.623C156.128 446.007 155.956 445.498 155.61 445.097C155.274 444.686 154.859 444.481 154.364 444.481C153.87 444.481 153.445 444.686 153.09 445.097C152.736 445.508 152.558 446.016 152.558 446.623ZM169.95 448.037C169.95 448.774 169.675 449.367 169.124 449.815C168.583 450.263 167.892 450.487 167.052 450.487C166.492 450.487 165.909 450.389 165.302 450.193C164.695 449.988 164.149 449.689 163.664 449.297L164.588 447.981C165.372 448.588 166.207 448.891 167.094 448.891C167.365 448.891 167.579 448.84 167.738 448.737C167.897 448.625 167.976 448.48 167.976 448.303C167.976 448.126 167.864 447.962 167.64 447.813C167.425 447.664 167.108 447.524 166.688 447.393C166.277 447.262 165.96 447.15 165.736 447.057C165.521 446.964 165.274 446.828 164.994 446.651C164.425 446.296 164.14 445.774 164.14 445.083C164.14 444.383 164.42 443.814 164.98 443.375C165.54 442.936 166.263 442.717 167.15 442.717C168.037 442.717 168.923 443.016 169.81 443.613L169.026 445.013C168.373 444.565 167.719 444.341 167.066 444.341C166.422 444.341 166.1 444.518 166.1 444.873C166.1 445.069 166.203 445.223 166.408 445.335C166.613 445.447 166.954 445.578 167.43 445.727C167.906 445.876 168.242 445.993 168.438 446.077C168.643 446.152 168.886 446.273 169.166 446.441C169.689 446.758 169.95 447.29 169.95 448.037ZM174.205 444.355V447.729C174.205 448.018 174.279 448.247 174.429 448.415C174.578 448.574 174.755 448.653 174.961 448.653C175.353 448.653 175.684 448.476 175.955 448.121L176.739 449.591C176.085 450.188 175.395 450.487 174.667 450.487C173.948 450.487 173.337 450.249 172.833 449.773C172.338 449.297 172.091 448.648 172.091 447.827V444.355H171.209V442.843H172.091V440.589H174.205V442.843H176.025V444.355H174.205ZM179.663 446.609C179.663 447.225 179.835 447.729 180.181 448.121C180.535 448.504 180.983 448.695 181.525 448.695C182.075 448.695 182.523 448.504 182.869 448.121C183.223 447.729 183.401 447.225 183.401 446.609C183.401 445.993 183.223 445.489 182.869 445.097C182.523 444.705 182.075 444.509 181.525 444.509C180.983 444.509 180.535 444.705 180.181 445.097C179.835 445.489 179.663 445.993 179.663 446.609ZM185.515 446.609C185.515 447.701 185.137 448.62 184.381 449.367C183.625 450.114 182.673 450.487 181.525 450.487C180.386 450.487 179.439 450.114 178.683 449.367C177.927 448.62 177.549 447.701 177.549 446.609C177.549 445.517 177.927 444.598 178.683 443.851C179.439 443.095 180.386 442.717 181.525 442.717C182.673 442.717 183.625 443.095 184.381 443.851C185.137 444.598 185.515 445.517 185.515 446.609ZM191.236 444.691C190.611 444.691 190.144 444.915 189.836 445.363C189.528 445.802 189.374 446.385 189.374 447.113V450.375H187.274V442.843H189.374V443.837C189.645 443.529 189.981 443.268 190.382 443.053C190.793 442.838 191.208 442.726 191.628 442.717L191.642 444.691H191.236ZM199.56 450.375H197.586V449.465C197.045 450.146 196.373 450.487 195.57 450.487C194.777 450.487 194.109 450.258 193.568 449.801C193.027 449.334 192.756 448.718 192.756 447.953C192.756 447.178 193.036 446.6 193.596 446.217C194.156 445.834 194.921 445.643 195.892 445.643H197.46V445.601C197.46 444.798 197.035 444.397 196.186 444.397C195.822 444.397 195.435 444.472 195.024 444.621C194.623 444.761 194.282 444.938 194.002 445.153L193.064 443.795C194.053 443.076 195.183 442.717 196.452 442.717C197.367 442.717 198.113 442.946 198.692 443.403C199.271 443.86 199.56 444.584 199.56 445.573V450.375ZM197.446 447.505V447.141H196.13C195.29 447.141 194.87 447.402 194.87 447.925C194.87 448.196 194.968 448.406 195.164 448.555C195.369 448.695 195.659 448.765 196.032 448.765C196.405 448.765 196.732 448.653 197.012 448.429C197.301 448.196 197.446 447.888 197.446 447.505ZM206.952 446.455C206.952 445.848 206.784 445.372 206.448 445.027C206.112 444.682 205.697 444.509 205.202 444.509C204.708 444.509 204.278 444.682 203.914 445.027C203.56 445.372 203.382 445.844 203.382 446.441C203.382 447.038 203.555 447.524 203.9 447.897C204.255 448.261 204.684 448.443 205.188 448.443C205.692 448.443 206.112 448.261 206.448 447.897C206.784 447.533 206.952 447.052 206.952 446.455ZM207.246 449.101C206.584 449.838 205.758 450.207 204.768 450.207C203.788 450.207 202.958 449.876 202.276 449.213C201.604 448.541 201.268 447.65 201.268 446.539C201.268 445.419 201.614 444.504 202.304 443.795C203.004 443.076 203.802 442.717 204.698 442.717C205.594 442.717 206.336 443.086 206.924 443.823V442.829H209.024V449.395C209.024 450.067 208.908 450.664 208.674 451.187C208.441 451.71 208.128 452.12 207.736 452.419C206.962 453.035 206.047 453.343 204.992 453.343C204.432 453.343 203.858 453.25 203.27 453.063C202.692 452.886 202.183 452.629 201.744 452.293L202.556 450.711C203.247 451.234 203.975 451.495 204.74 451.495C205.515 451.495 206.126 451.304 206.574 450.921C207.022 450.538 207.246 449.932 207.246 449.101ZM217.736 449.283C216.887 450.086 215.888 450.487 214.74 450.487C213.602 450.487 212.659 450.137 211.912 449.437C211.166 448.728 210.792 447.78 210.792 446.595C210.792 445.41 211.17 444.467 211.926 443.767C212.692 443.067 213.592 442.717 214.628 442.717C215.664 442.717 216.542 443.03 217.26 443.655C217.988 444.28 218.352 445.139 218.352 446.231V447.351H212.864C212.93 447.762 213.144 448.098 213.508 448.359C213.872 448.62 214.283 448.751 214.74 448.751C215.478 448.751 216.084 448.504 216.56 448.009L217.736 449.283ZM216.224 445.853C216.178 445.405 216.01 445.06 215.72 444.817C215.431 444.574 215.076 444.453 214.656 444.453C214.246 444.453 213.868 444.579 213.522 444.831C213.177 445.083 212.976 445.424 212.92 445.853H216.224Z" fill="#252B42"/>
</g>
<g clip-path="url(#clip10_232_1966)">
<rect x="40.5" y="479" width="32" height="32" rx="16" fill="#BDBDBD"/>
<g clip-path="url(#clip11_232_1966)">
<path fill-rule="evenodd" clip-rule="evenodd" d="M64.7957 489.204C64.8604 489.269 64.9118 489.346 64.9469 489.43C64.9819 489.515 65 489.605 65 489.697C65 489.788 64.9819 489.879 64.9469 489.963C64.9118 490.048 64.8604 490.125 64.7957 490.189L55.0578 499.927C54.9932 499.992 54.9164 500.043 54.8319 500.078C54.7474 500.113 54.6568 500.131 54.5654 500.131C54.4739 500.131 54.3833 500.113 54.2988 500.078C54.2143 500.043 54.1375 499.992 54.0729 499.927L49.204 495.058C49.0734 494.928 49 494.75 49 494.566C49 494.381 49.0734 494.204 49.204 494.073C49.3346 493.943 49.5117 493.869 49.6964 493.869C49.8811 493.869 50.0583 493.943 50.1889 494.073L54.5654 498.451L63.8107 489.204C63.8754 489.14 63.9521 489.088 64.0366 489.053C64.1211 489.018 64.2117 489 64.3032 489C64.3947 489 64.4853 489.018 64.5698 489.053C64.6543 489.088 64.731 489.14 64.7957 489.204Z" fill="white"/>
</g>
<path d="M90.76 486.214V488.16H85.888V490.176H90.27V492.038H85.888V494.068H90.914V496H83.704V486.214H90.76ZM99.7702 491.94V496H97.6562V491.884C97.6562 491.287 97.5628 490.848 97.3762 490.568C97.1988 490.288 96.9048 490.148 96.4942 490.148C96.0928 490.148 95.7335 490.302 95.4162 490.61C95.1082 490.909 94.9542 491.352 94.9542 491.94V496H92.8542V488.468H94.9542V489.322C95.5328 488.669 96.1955 488.342 96.9422 488.342C97.4182 488.342 97.8475 488.482 98.2302 488.762C98.6222 489.042 98.9162 489.383 99.1122 489.784C99.4015 489.327 99.7888 488.972 100.274 488.72C100.769 488.468 101.263 488.342 101.758 488.342C102.645 488.342 103.359 488.608 103.9 489.14C104.441 489.663 104.712 490.423 104.712 491.422V496H102.598V491.884C102.598 490.727 102.173 490.148 101.324 490.148C100.904 490.148 100.54 490.302 100.232 490.61C99.9242 490.909 99.7702 491.352 99.7702 491.94ZM113.22 496H111.246V495.09C110.704 495.771 110.032 496.112 109.23 496.112C108.436 496.112 107.769 495.883 107.228 495.426C106.686 494.959 106.416 494.343 106.416 493.578C106.416 492.803 106.696 492.225 107.256 491.842C107.816 491.459 108.581 491.268 109.552 491.268H111.12V491.226C111.12 490.423 110.695 490.022 109.846 490.022C109.482 490.022 109.094 490.097 108.684 490.246C108.282 490.386 107.942 490.563 107.662 490.778L106.724 489.42C107.713 488.701 108.842 488.342 110.112 488.342C111.026 488.342 111.773 488.571 112.352 489.028C112.93 489.485 113.22 490.209 113.22 491.198V496ZM111.106 493.13V492.766H109.79C108.95 492.766 108.53 493.027 108.53 493.55C108.53 493.821 108.628 494.031 108.824 494.18C109.029 494.32 109.318 494.39 109.692 494.39C110.065 494.39 110.392 494.278 110.672 494.054C110.961 493.821 111.106 493.513 111.106 493.13ZM117.434 496H115.334V488.468H117.434V496ZM115.502 487.516C115.269 487.273 115.152 486.979 115.152 486.634C115.152 486.289 115.269 485.999 115.502 485.766C115.745 485.523 116.039 485.402 116.384 485.402C116.73 485.402 117.019 485.523 117.252 485.766C117.495 485.999 117.616 486.289 117.616 486.634C117.616 486.979 117.495 487.273 117.252 487.516C117.019 487.749 116.73 487.866 116.384 487.866C116.039 487.866 115.745 487.749 115.502 487.516ZM121.722 496H119.622V485.612H121.722V496ZM134.199 496H132.225V495.09C131.684 495.771 131.012 496.112 130.209 496.112C129.416 496.112 128.749 495.883 128.207 495.426C127.666 494.959 127.395 494.343 127.395 493.578C127.395 492.803 127.675 492.225 128.235 491.842C128.795 491.459 129.561 491.268 130.531 491.268H132.099V491.226C132.099 490.423 131.675 490.022 130.825 490.022C130.461 490.022 130.074 490.097 129.663 490.246C129.262 490.386 128.921 490.563 128.641 490.778L127.703 489.42C128.693 488.701 129.822 488.342 131.091 488.342C132.006 488.342 132.753 488.571 133.331 489.028C133.91 489.485 134.199 490.209 134.199 491.198V496ZM132.085 493.13V492.766H130.769C129.929 492.766 129.509 493.027 129.509 493.55C129.509 493.821 129.607 494.031 129.803 494.18C130.009 494.32 130.298 494.39 130.671 494.39C131.045 494.39 131.371 494.278 131.651 494.054C131.941 493.821 132.085 493.513 132.085 493.13ZM138.414 491.8V496H136.314V488.468H138.414V489.308C139.049 488.664 139.763 488.342 140.556 488.342C141.349 488.342 142.012 488.622 142.544 489.182C143.085 489.742 143.356 490.489 143.356 491.422V496H141.256V491.744C141.256 490.587 140.831 490.008 139.982 490.008C139.562 490.008 139.193 490.162 138.876 490.47C138.568 490.769 138.414 491.212 138.414 491.8ZM148.465 496.112C147.579 496.112 146.785 495.734 146.085 494.978C145.385 494.222 145.035 493.284 145.035 492.164C145.035 491.044 145.376 490.129 146.057 489.42C146.739 488.701 147.537 488.342 148.451 488.342C149.366 488.342 150.113 488.664 150.691 489.308V485.612H152.791V496H150.691V495.006C150.103 495.743 149.361 496.112 148.465 496.112ZM147.149 492.248C147.149 492.855 147.331 493.354 147.695 493.746C148.059 494.129 148.484 494.32 148.969 494.32C149.455 494.32 149.865 494.129 150.201 493.746C150.547 493.354 150.719 492.855 150.719 492.248C150.719 491.632 150.547 491.123 150.201 490.722C149.865 490.311 149.45 490.106 148.955 490.106C148.461 490.106 148.036 490.311 147.681 490.722C147.327 491.133 147.149 491.641 147.149 492.248ZM162.483 494.25C163.183 494.25 163.813 493.9 164.373 493.2L165.619 494.6C164.648 495.608 163.598 496.112 162.469 496.112C161.34 496.112 160.383 495.757 159.599 495.048C158.824 494.329 158.437 493.396 158.437 492.248C158.437 491.091 158.829 490.153 159.613 489.434C160.406 488.706 161.344 488.342 162.427 488.342C162.968 488.342 163.514 488.454 164.065 488.678C164.625 488.902 165.115 489.233 165.535 489.672L164.443 491.1C164.2 490.811 163.902 490.587 163.547 490.428C163.202 490.269 162.856 490.19 162.511 490.19C161.96 490.19 161.484 490.372 161.083 490.736C160.691 491.091 160.495 491.59 160.495 492.234C160.495 492.869 160.691 493.363 161.083 493.718C161.484 494.073 161.951 494.25 162.483 494.25ZM168.776 492.234C168.776 492.85 168.949 493.354 169.294 493.746C169.649 494.129 170.097 494.32 170.638 494.32C171.189 494.32 171.637 494.129 171.982 493.746C172.337 493.354 172.514 492.85 172.514 492.234C172.514 491.618 172.337 491.114 171.982 490.722C171.637 490.33 171.189 490.134 170.638 490.134C170.097 490.134 169.649 490.33 169.294 490.722C168.949 491.114 168.776 491.618 168.776 492.234ZM174.628 492.234C174.628 493.326 174.25 494.245 173.494 494.992C172.738 495.739 171.786 496.112 170.638 496.112C169.5 496.112 168.552 495.739 167.796 494.992C167.04 494.245 166.662 493.326 166.662 492.234C166.662 491.142 167.04 490.223 167.796 489.476C168.552 488.72 169.5 488.342 170.638 488.342C171.786 488.342 172.738 488.72 173.494 489.476C174.25 490.223 174.628 491.142 174.628 492.234ZM183.304 491.94V496H181.19V491.884C181.19 491.287 181.097 490.848 180.91 490.568C180.733 490.288 180.439 490.148 180.028 490.148C179.627 490.148 179.267 490.302 178.95 490.61C178.642 490.909 178.488 491.352 178.488 491.94V496H176.388V488.468H178.488V489.322C179.067 488.669 179.729 488.342 180.476 488.342C180.952 488.342 181.381 488.482 181.764 488.762C182.156 489.042 182.45 489.383 182.646 489.784C182.935 489.327 183.323 488.972 183.808 488.72C184.303 488.468 184.797 488.342 185.292 488.342C186.179 488.342 186.893 488.608 187.434 489.14C187.975 489.663 188.246 490.423 188.246 491.422V496H186.132V491.884C186.132 490.727 185.707 490.148 184.858 490.148C184.438 490.148 184.074 490.302 183.766 490.61C183.458 490.909 183.304 491.352 183.304 491.94ZM197.272 491.94V496H195.158V491.884C195.158 491.287 195.064 490.848 194.878 490.568C194.7 490.288 194.406 490.148 193.996 490.148C193.594 490.148 193.235 490.302 192.918 490.61C192.61 490.909 192.456 491.352 192.456 491.94V496H190.356V488.468H192.456V489.322C193.034 488.669 193.697 488.342 194.444 488.342C194.92 488.342 195.349 488.482 195.732 488.762C196.124 489.042 196.418 489.383 196.614 489.784C196.903 489.327 197.29 488.972 197.776 488.72C198.27 488.468 198.765 488.342 199.26 488.342C200.146 488.342 200.86 488.608 201.402 489.14C201.943 489.663 202.214 490.423 202.214 491.422V496H200.1V491.884C200.1 490.727 199.675 490.148 198.826 490.148C198.406 490.148 198.042 490.302 197.734 490.61C197.426 490.909 197.272 491.352 197.272 491.94ZM209.181 492.528V488.468H211.295V496H209.181V495.006C208.659 495.743 207.982 496.112 207.151 496.112C206.33 496.112 205.639 495.855 205.079 495.342C204.519 494.819 204.239 494.049 204.239 493.032V488.468H206.353V492.57C206.353 493.727 206.778 494.306 207.627 494.306C208.047 494.306 208.411 494.157 208.719 493.858C209.027 493.55 209.181 493.107 209.181 492.528ZM215.578 491.8V496H213.478V488.468H215.578V489.308C216.213 488.664 216.927 488.342 217.72 488.342C218.514 488.342 219.176 488.622 219.708 489.182C220.25 489.742 220.52 490.489 220.52 491.422V496H218.42V491.744C218.42 490.587 217.996 490.008 217.146 490.008C216.726 490.008 216.358 490.162 216.04 490.47C215.732 490.769 215.578 491.212 215.578 491.8ZM224.72 496H222.62V488.468H224.72V496ZM222.788 487.516C222.554 487.273 222.438 486.979 222.438 486.634C222.438 486.289 222.554 485.999 222.788 485.766C223.03 485.523 223.324 485.402 223.67 485.402C224.015 485.402 224.304 485.523 224.538 485.766C224.78 485.999 224.902 486.289 224.902 486.634C224.902 486.979 224.78 487.273 224.538 487.516C224.304 487.749 224.015 487.866 223.67 487.866C223.324 487.866 223.03 487.749 222.788 487.516ZM229.414 489.98V493.354C229.414 493.643 229.488 493.872 229.638 494.04C229.787 494.199 229.964 494.278 230.17 494.278C230.562 494.278 230.893 494.101 231.164 493.746L231.948 495.216C231.294 495.813 230.604 496.112 229.876 496.112C229.157 496.112 228.546 495.874 228.042 495.398C227.547 494.922 227.3 494.273 227.3 493.452V489.98H226.418V488.468H227.3V486.214H229.414V488.468H231.234V489.98H229.414ZM234.576 498.968C233.838 498.968 233.143 498.669 232.49 498.072L233.442 496.518C233.796 496.863 234.16 497.036 234.534 497.036C234.73 497.036 234.898 496.938 235.038 496.742C235.178 496.555 235.248 496.355 235.248 496.14C235.248 495.925 234.277 493.368 232.336 488.468H234.576L236.41 493.158L238.244 488.468H240.484L236.984 497.344C236.778 497.857 236.456 498.254 236.018 498.534C235.588 498.823 235.108 498.968 234.576 498.968ZM89.164 517.662C89.164 518.399 88.8887 518.992 88.338 519.44C87.7967 519.888 87.106 520.112 86.266 520.112C85.706 520.112 85.1227 520.014 84.516 519.818C83.9093 519.613 83.3633 519.314 82.878 518.922L83.802 517.606C84.586 518.213 85.4213 518.516 86.308 518.516C86.5787 518.516 86.7933 518.465 86.952 518.362C87.1107 518.25 87.19 518.105 87.19 517.928C87.19 517.751 87.078 517.587 86.854 517.438C86.6393 517.289 86.322 517.149 85.902 517.018C85.4913 516.887 85.174 516.775 84.95 516.682C84.7353 516.589 84.488 516.453 84.208 516.276C83.6387 515.921 83.354 515.399 83.354 514.708C83.354 514.008 83.634 513.439 84.194 513C84.754 512.561 85.4773 512.342 86.364 512.342C87.2507 512.342 88.1373 512.641 89.024 513.238L88.24 514.638C87.5867 514.19 86.9333 513.966 86.28 513.966C85.636 513.966 85.314 514.143 85.314 514.498C85.314 514.694 85.4167 514.848 85.622 514.96C85.8273 515.072 86.168 515.203 86.644 515.352C87.12 515.501 87.456 515.618 87.652 515.702C87.8573 515.777 88.1 515.898 88.38 516.066C88.9027 516.383 89.164 516.915 89.164 517.662ZM95.8254 516.528V512.468H97.9394V520H95.8254V519.006C95.3028 519.743 94.6261 520.112 93.7954 520.112C92.9741 520.112 92.2834 519.855 91.7234 519.342C91.1634 518.819 90.8834 518.049 90.8834 517.032V512.468H92.9974V516.57C92.9974 517.727 93.4221 518.306 94.2714 518.306C94.6914 518.306 95.0554 518.157 95.3634 517.858C95.6714 517.55 95.8254 517.107 95.8254 516.528ZM104.505 512.342C105.382 512.342 106.161 512.711 106.843 513.448C107.533 514.176 107.879 515.095 107.879 516.206C107.879 517.317 107.533 518.245 106.843 518.992C106.161 519.739 105.359 520.112 104.435 520.112C103.52 520.112 102.783 519.743 102.223 519.006V522.716H100.123V512.468H102.223V513.308C102.867 512.664 103.627 512.342 104.505 512.342ZM102.195 516.248C102.195 516.855 102.363 517.354 102.699 517.746C103.044 518.129 103.459 518.32 103.945 518.32C104.43 518.32 104.855 518.129 105.219 517.746C105.583 517.354 105.765 516.855 105.765 516.248C105.765 515.641 105.587 515.133 105.233 514.722C104.878 514.311 104.453 514.106 103.959 514.106C103.464 514.106 103.044 514.311 102.699 514.722C102.363 515.123 102.195 515.632 102.195 516.248ZM114.029 512.342C114.906 512.342 115.685 512.711 116.367 513.448C117.057 514.176 117.403 515.095 117.403 516.206C117.403 517.317 117.057 518.245 116.367 518.992C115.685 519.739 114.883 520.112 113.959 520.112C113.044 520.112 112.307 519.743 111.747 519.006V522.716H109.647V512.468H111.747V513.308C112.391 512.664 113.151 512.342 114.029 512.342ZM111.719 516.248C111.719 516.855 111.887 517.354 112.223 517.746C112.568 518.129 112.983 518.32 113.469 518.32C113.954 518.32 114.379 518.129 114.743 517.746C115.107 517.354 115.289 516.855 115.289 516.248C115.289 515.641 115.111 515.133 114.757 514.722C114.402 514.311 113.977 514.106 113.483 514.106C112.988 514.106 112.568 514.311 112.223 514.722C111.887 515.123 111.719 515.632 111.719 516.248ZM120.851 516.234C120.851 516.85 121.024 517.354 121.369 517.746C121.724 518.129 122.172 518.32 122.713 518.32C123.264 518.32 123.712 518.129 124.057 517.746C124.412 517.354 124.589 516.85 124.589 516.234C124.589 515.618 124.412 515.114 124.057 514.722C123.712 514.33 123.264 514.134 122.713 514.134C122.172 514.134 121.724 514.33 121.369 514.722C121.024 515.114 120.851 515.618 120.851 516.234ZM126.703 516.234C126.703 517.326 126.325 518.245 125.569 518.992C124.813 519.739 123.861 520.112 122.713 520.112C121.574 520.112 120.627 519.739 119.871 518.992C119.115 518.245 118.737 517.326 118.737 516.234C118.737 515.142 119.115 514.223 119.871 513.476C120.627 512.72 121.574 512.342 122.713 512.342C123.861 512.342 124.813 512.72 125.569 513.476C126.325 514.223 126.703 515.142 126.703 516.234ZM132.425 514.316C131.799 514.316 131.333 514.54 131.025 514.988C130.717 515.427 130.563 516.01 130.563 516.738V520H128.463V512.468H130.563V513.462C130.833 513.154 131.169 512.893 131.571 512.678C131.981 512.463 132.397 512.351 132.817 512.342L132.831 514.316H132.425ZM136.925 513.98V517.354C136.925 517.643 136.999 517.872 137.149 518.04C137.298 518.199 137.475 518.278 137.681 518.278C138.073 518.278 138.404 518.101 138.675 517.746L139.459 519.216C138.805 519.813 138.115 520.112 137.387 520.112C136.668 520.112 136.057 519.874 135.553 519.398C135.058 518.922 134.811 518.273 134.811 517.452V513.98H133.929V512.468H134.811V510.214H136.925V512.468H138.745V513.98H136.925Z" fill="#252B42"/>
</g>
</g>
<rect x="41" y="562" width="246" height="52" rx="5" fill="#23A6F0"/>
<path d="M128.791 585.104V593H126.607V585.104H123.835V583.214H131.563V585.104H128.791ZM137.117 587.316C136.491 587.316 136.025 587.54 135.717 587.988C135.409 588.427 135.255 589.01 135.255 589.738V593H133.155V585.468H135.255V586.462C135.525 586.154 135.861 585.893 136.263 585.678C136.673 585.463 137.089 585.351 137.509 585.342L137.523 587.316H137.117ZM140.412 595.968C139.675 595.968 138.98 595.669 138.326 595.072L139.278 593.518C139.633 593.863 139.997 594.036 140.37 594.036C140.566 594.036 140.734 593.938 140.874 593.742C141.014 593.555 141.084 593.355 141.084 593.14C141.084 592.925 140.114 590.368 138.172 585.468H140.412L142.246 590.158L144.08 585.468H146.32L142.82 594.344C142.615 594.857 142.293 595.254 141.854 595.534C141.425 595.823 140.944 595.968 140.412 595.968ZM153.966 585.034V585.538H155.786V587.05H153.966V593H151.852V587.05H150.97V585.538H151.852V585.076C151.852 584.255 152.099 583.606 152.594 583.13C153.098 582.645 153.718 582.402 154.456 582.402C155.202 582.402 155.879 582.682 156.486 583.242L155.73 584.656C155.422 584.301 155.081 584.124 154.708 584.124C154.493 584.124 154.316 584.203 154.176 584.362C154.036 584.511 153.966 584.735 153.966 585.034ZM158.795 589.234C158.795 589.85 158.967 590.354 159.313 590.746C159.667 591.129 160.115 591.32 160.657 591.32C161.207 591.32 161.655 591.129 162.001 590.746C162.355 590.354 162.533 589.85 162.533 589.234C162.533 588.618 162.355 588.114 162.001 587.722C161.655 587.33 161.207 587.134 160.657 587.134C160.115 587.134 159.667 587.33 159.313 587.722C158.967 588.114 158.795 588.618 158.795 589.234ZM164.647 589.234C164.647 590.326 164.269 591.245 163.513 591.992C162.757 592.739 161.805 593.112 160.657 593.112C159.518 593.112 158.571 592.739 157.815 591.992C157.059 591.245 156.681 590.326 156.681 589.234C156.681 588.142 157.059 587.223 157.815 586.476C158.571 585.72 159.518 585.342 160.657 585.342C161.805 585.342 162.757 585.72 163.513 586.476C164.269 587.223 164.647 588.142 164.647 589.234ZM170.369 587.316C169.743 587.316 169.277 587.54 168.969 587.988C168.661 588.427 168.507 589.01 168.507 589.738V593H166.407V585.468H168.507V586.462C168.777 586.154 169.113 585.893 169.515 585.678C169.925 585.463 170.341 585.351 170.761 585.342L170.775 587.316H170.369ZM178.76 585.034V585.538H180.58V587.05H178.76V593H176.646V587.05H175.764V585.538H176.646V585.076C176.646 584.255 176.893 583.606 177.388 583.13C177.892 582.645 178.512 582.402 179.25 582.402C179.996 582.402 180.673 582.682 181.28 583.242L180.524 584.656C180.216 584.301 179.875 584.124 179.502 584.124C179.287 584.124 179.11 584.203 178.97 584.362C178.83 584.511 178.76 584.735 178.76 585.034ZM186.049 587.316C185.423 587.316 184.957 587.54 184.649 587.988C184.341 588.427 184.187 589.01 184.187 589.738V593H182.087V585.468H184.187V586.462C184.457 586.154 184.793 585.893 185.195 585.678C185.605 585.463 186.021 585.351 186.441 585.342L186.455 587.316H186.049ZM194.566 591.908C193.717 592.711 192.718 593.112 191.57 593.112C190.432 593.112 189.489 592.762 188.742 592.062C187.996 591.353 187.622 590.405 187.622 589.22C187.622 588.035 188 587.092 188.756 586.392C189.522 585.692 190.422 585.342 191.458 585.342C192.494 585.342 193.372 585.655 194.09 586.28C194.818 586.905 195.182 587.764 195.182 588.856V589.976H189.694C189.76 590.387 189.974 590.723 190.338 590.984C190.702 591.245 191.113 591.376 191.57 591.376C192.308 591.376 192.914 591.129 193.39 590.634L194.566 591.908ZM193.054 588.478C193.008 588.03 192.84 587.685 192.55 587.442C192.261 587.199 191.906 587.078 191.486 587.078C191.076 587.078 190.698 587.204 190.352 587.456C190.007 587.708 189.806 588.049 189.75 588.478H193.054ZM203.421 591.908C202.571 592.711 201.573 593.112 200.425 593.112C199.286 593.112 198.343 592.762 197.597 592.062C196.85 591.353 196.477 590.405 196.477 589.22C196.477 588.035 196.855 587.092 197.611 586.392C198.376 585.692 199.277 585.342 200.313 585.342C201.349 585.342 202.226 585.655 202.945 586.28C203.673 586.905 204.037 587.764 204.037 588.856V589.976H198.549C198.614 590.387 198.829 590.723 199.193 590.984C199.557 591.245 199.967 591.376 200.425 591.376C201.162 591.376 201.769 591.129 202.245 590.634L203.421 591.908ZM201.909 588.478C201.862 588.03 201.694 587.685 201.405 587.442C201.115 587.199 200.761 587.078 200.341 587.078C199.93 587.078 199.552 587.204 199.207 587.456C198.861 587.708 198.661 588.049 198.605 588.478H201.909Z" fill="white"/>
<defs>
<clipPath id="clip0_232_1966">
<rect width="116" height="56" fill="white" transform="translate(106 200)"/>
</clipPath>
<clipPath id="clip1_232_1966">
<rect width="247" height="236" fill="white" transform="translate(40.5 291)"/>
</clipPath>
<clipPath id="clip2_232_1966">
<rect width="247" height="32" fill="white" transform="translate(40.5 291)"/>
</clipPath>
<clipPath id="clip3_232_1966">
<rect width="16" height="11" fill="white" transform="translate(48.5 301)"/>
</clipPath>
<clipPath id="clip4_232_1966">
<rect width="247" height="32" fill="white" transform="translate(40.5 338)"/>
</clipPath>
<clipPath id="clip5_232_1966">
<rect width="16" height="11" fill="white" transform="translate(48.5 348)"/>
</clipPath>
<clipPath id="clip6_232_1966">
<rect width="247" height="32" fill="white" transform="translate(40.5 385)"/>
</clipPath>
<clipPath id="clip7_232_1966">
<rect width="16" height="11" fill="white" transform="translate(48.5 395)"/>
</clipPath>
<clipPath id="clip8_232_1966">
<rect width="247" height="32" fill="white" transform="translate(40.5 432)"/>
</clipPath>
<clipPath id="clip9_232_1966">
<rect width="16" height="11" fill="white" transform="translate(48.5 442)"/>
</clipPath>
<clipPath id="clip10_232_1966">
<rect width="210" height="48" fill="white" transform="translate(40.5 479)"/>
</clipPath>
<clipPath id="clip11_232_1966">
<rect width="16" height="11" fill="white" transform="translate(48.5 489)"/>
</clipPath>
</defs>
</svg>
