<svg width="414" height="98" viewBox="0 0 414 98" fill="none" xmlns="http://www.w3.org/2000/svg">
<g clip-path="url(#clip0_1_4916)">
<path d="M145.623 35.84L142.977 41.188H141.675L139.043 35.84V42H136.859V32.214H139.813L142.333 37.59L144.867 32.214H147.807V42H145.623V35.84ZM156.605 42H154.631V41.09C154.09 41.7713 153.418 42.112 152.615 42.112C151.822 42.112 151.154 41.8833 150.613 41.426C150.072 40.9593 149.801 40.3433 149.801 39.578C149.801 38.8033 150.081 38.2247 150.641 37.842C151.201 37.4593 151.966 37.268 152.937 37.268H154.505V37.226C154.505 36.4233 154.08 36.022 153.231 36.022C152.867 36.022 152.48 36.0967 152.069 36.246C151.668 36.386 151.327 36.5633 151.047 36.778L150.109 35.42C151.098 34.7013 152.228 34.342 153.497 34.342C154.412 34.342 155.158 34.5707 155.737 35.028C156.316 35.4853 156.605 36.2087 156.605 37.198V42ZM154.491 39.13V38.766H153.175C152.335 38.766 151.915 39.0273 151.915 39.55C151.915 39.8207 152.013 40.0307 152.209 40.18C152.414 40.32 152.704 40.39 153.077 40.39C153.45 40.39 153.777 40.278 154.057 40.054C154.346 39.8207 154.491 39.5127 154.491 39.13ZM161.729 42.112C160.843 42.112 160.049 41.734 159.349 40.978C158.649 40.222 158.299 39.284 158.299 38.164C158.299 37.044 158.64 36.1293 159.321 35.42C160.003 34.7013 160.801 34.342 161.715 34.342C162.63 34.342 163.377 34.664 163.955 35.308V31.612H166.055V42H163.955V41.006C163.367 41.7433 162.625 42.112 161.729 42.112ZM160.413 38.248C160.413 38.8547 160.595 39.354 160.959 39.746C161.323 40.1287 161.748 40.32 162.233 40.32C162.719 40.32 163.129 40.1287 163.465 39.746C163.811 39.354 163.983 38.8547 163.983 38.248C163.983 37.632 163.811 37.1233 163.465 36.722C163.129 36.3113 162.714 36.106 162.219 36.106C161.725 36.106 161.3 36.3113 160.945 36.722C160.591 37.1327 160.413 37.6413 160.413 38.248ZM174.768 40.908C173.918 41.7107 172.92 42.112 171.772 42.112C170.633 42.112 169.69 41.762 168.944 41.062C168.197 40.3527 167.824 39.4053 167.824 38.22C167.824 37.0347 168.202 36.092 168.958 35.392C169.723 34.692 170.624 34.342 171.66 34.342C172.696 34.342 173.573 34.6547 174.292 35.28C175.02 35.9053 175.384 36.764 175.384 37.856V38.976H169.896C169.961 39.3867 170.176 39.7227 170.54 39.984C170.904 40.2453 171.314 40.376 171.772 40.376C172.509 40.376 173.116 40.1287 173.592 39.634L174.768 40.908ZM173.256 37.478C173.209 37.03 173.041 36.6847 172.752 36.442C172.462 36.1993 172.108 36.078 171.688 36.078C171.277 36.078 170.899 36.204 170.554 36.456C170.208 36.708 170.008 37.0487 169.952 37.478H173.256ZM184.251 37.842L185.987 32.214H188.269L189.991 37.842L191.937 32.214H194.303L190.887 42H189.263L187.121 35.196L184.993 42H183.369L179.953 32.214H182.319L184.251 37.842ZM197.549 42H195.449V34.468H197.549V42ZM195.617 33.516C195.384 33.2733 195.267 32.9793 195.267 32.634C195.267 32.2887 195.384 31.9993 195.617 31.766C195.86 31.5233 196.154 31.402 196.499 31.402C196.844 31.402 197.134 31.5233 197.367 31.766C197.61 31.9993 197.731 32.2887 197.731 32.634C197.731 32.9793 197.61 33.2733 197.367 33.516C197.134 33.7493 196.844 33.866 196.499 33.866C196.154 33.866 195.86 33.7493 195.617 33.516ZM202.243 35.98V39.354C202.243 39.6433 202.318 39.872 202.467 40.04C202.616 40.1987 202.794 40.278 202.999 40.278C203.391 40.278 203.722 40.1007 203.993 39.746L204.777 41.216C204.124 41.8133 203.433 42.112 202.705 42.112C201.986 42.112 201.375 41.874 200.871 41.398C200.376 40.922 200.129 40.2733 200.129 39.452V35.98H199.247V34.468H200.129V32.214H202.243V34.468H204.063V35.98H202.243ZM208.203 37.94V42H206.103V31.612H208.203V35.308C208.838 34.664 209.547 34.342 210.331 34.342C211.124 34.342 211.792 34.622 212.333 35.182C212.874 35.742 213.145 36.4887 213.145 37.422V42H211.045V37.884C211.045 36.7267 210.62 36.148 209.771 36.148C209.351 36.148 208.982 36.302 208.665 36.61C208.357 36.9087 208.203 37.352 208.203 37.94ZM219.346 42V32.214H221.53V40.054H225.702V42H219.346ZM228.877 38.234C228.877 38.85 229.05 39.354 229.395 39.746C229.75 40.1287 230.198 40.32 230.739 40.32C231.29 40.32 231.738 40.1287 232.083 39.746C232.438 39.354 232.615 38.85 232.615 38.234C232.615 37.618 232.438 37.114 232.083 36.722C231.738 36.33 231.29 36.134 230.739 36.134C230.198 36.134 229.75 36.33 229.395 36.722C229.05 37.114 228.877 37.618 228.877 38.234ZM234.729 38.234C234.729 39.326 234.351 40.2453 233.595 40.992C232.839 41.7387 231.887 42.112 230.739 42.112C229.6 42.112 228.653 41.7387 227.897 40.992C227.141 40.2453 226.763 39.326 226.763 38.234C226.763 37.142 227.141 36.2227 227.897 35.476C228.653 34.72 229.6 34.342 230.739 34.342C231.887 34.342 232.839 34.72 233.595 35.476C234.351 36.2227 234.729 37.142 234.729 38.234ZM238.355 42L235.373 34.454H237.557L239.433 39.2L241.309 34.454H243.493L240.511 42H238.355ZM251.252 40.908C250.403 41.7107 249.404 42.112 248.256 42.112C247.117 42.112 246.175 41.762 245.428 41.062C244.681 40.3527 244.308 39.4053 244.308 38.22C244.308 37.0347 244.686 36.092 245.442 35.392C246.207 34.692 247.108 34.342 248.144 34.342C249.18 34.342 250.057 34.6547 250.776 35.28C251.504 35.9053 251.868 36.764 251.868 37.856V38.976H246.38C246.445 39.3867 246.66 39.7227 247.024 39.984C247.388 40.2453 247.799 40.376 248.256 40.376C248.993 40.376 249.6 40.1287 250.076 39.634L251.252 40.908ZM249.74 37.478C249.693 37.03 249.525 36.6847 249.236 36.442C248.947 36.1993 248.592 36.078 248.172 36.078C247.761 36.078 247.383 36.204 247.038 36.456C246.693 36.708 246.492 37.0487 246.436 37.478H249.74ZM261.968 42H257.684V32.214H261.492C262.154 32.214 262.724 32.2933 263.2 32.452C263.685 32.6107 264.049 32.8253 264.292 33.096C264.73 33.6 264.95 34.1693 264.95 34.804C264.95 35.5693 264.702 36.1387 264.208 36.512C264.04 36.6427 263.923 36.7267 263.858 36.764C263.792 36.792 263.676 36.8433 263.508 36.918C264.114 37.0487 264.595 37.324 264.95 37.744C265.314 38.1547 265.496 38.668 265.496 39.284C265.496 39.9653 265.262 40.5673 264.796 41.09C264.254 41.6967 263.312 42 261.968 42ZM259.868 36.176H260.904C261.51 36.176 261.958 36.1107 262.248 35.98C262.546 35.8493 262.696 35.5693 262.696 35.14C262.696 34.7013 262.56 34.412 262.29 34.272C262.019 34.132 261.562 34.062 260.918 34.062H259.868V36.176ZM259.868 40.152H261.366C261.991 40.152 262.458 40.0773 262.766 39.928C263.083 39.7693 263.242 39.466 263.242 39.018C263.242 38.5607 263.074 38.262 262.738 38.122C262.411 37.9727 261.884 37.898 261.156 37.898H259.868V40.152ZM268.491 44.968C267.754 44.968 267.059 44.6693 266.405 44.072L267.357 42.518C267.712 42.8633 268.076 43.036 268.449 43.036C268.645 43.036 268.813 42.938 268.953 42.742C269.093 42.5553 269.163 42.3547 269.163 42.14C269.163 41.9253 268.193 39.368 266.251 34.468H268.491L270.325 39.158L272.159 34.468H274.399L270.899 43.344C270.694 43.8573 270.372 44.254 269.933 44.534C269.504 44.8233 269.023 44.968 268.491 44.968ZM118.685 56.214V58.132H114.149V60.246H118.461V62.164H114.149V66H111.965V56.214H118.685ZM122.628 66H120.528V58.468H122.628V66ZM120.696 57.516C120.462 57.2733 120.346 56.9793 120.346 56.634C120.346 56.2887 120.462 55.9993 120.696 55.766C120.938 55.5233 121.232 55.402 121.578 55.402C121.923 55.402 122.212 55.5233 122.446 55.766C122.688 55.9993 122.81 56.2887 122.81 56.634C122.81 56.9793 122.688 57.2733 122.446 57.516C122.212 57.7493 121.923 57.866 121.578 57.866C121.232 57.866 120.938 57.7493 120.696 57.516ZM126.915 61.8V66H124.815V58.468H126.915V59.308C127.55 58.664 128.264 58.342 129.057 58.342C129.851 58.342 130.513 58.622 131.045 59.182C131.587 59.742 131.857 60.4887 131.857 61.422V66H129.757V61.744C129.757 60.5867 129.333 60.008 128.483 60.008C128.063 60.008 127.695 60.162 127.377 60.47C127.069 60.7687 126.915 61.212 126.915 61.8ZM136.057 66H133.957V55.612H136.057V66ZM144.643 66H142.669V65.09C142.127 65.7713 141.455 66.112 140.653 66.112C139.859 66.112 139.192 65.8833 138.651 65.426C138.109 64.9593 137.839 64.3433 137.839 63.578C137.839 62.8033 138.119 62.2247 138.679 61.842C139.239 61.4593 140.004 61.268 140.975 61.268H142.543V61.226C142.543 60.4233 142.118 60.022 141.269 60.022C140.905 60.022 140.517 60.0967 140.107 60.246C139.705 60.386 139.365 60.5633 139.085 60.778L138.147 59.42C139.136 58.7013 140.265 58.342 141.535 58.342C142.449 58.342 143.196 58.5707 143.775 59.028C144.353 59.4853 144.643 60.2087 144.643 61.198V66ZM142.529 63.13V62.766H141.213C140.373 62.766 139.953 63.0273 139.953 63.55C139.953 63.8207 140.051 64.0307 140.247 64.18C140.452 64.32 140.741 64.39 141.115 64.39C141.488 64.39 141.815 64.278 142.095 64.054C142.384 63.8207 142.529 63.5127 142.529 63.13ZM148.857 61.8V66H146.757V58.468H148.857V59.308C149.492 58.664 150.206 58.342 150.999 58.342C151.793 58.342 152.455 58.622 152.987 59.182C153.529 59.742 153.799 60.4887 153.799 61.422V66H151.699V61.744C151.699 60.5867 151.275 60.008 150.425 60.008C150.005 60.008 149.637 60.162 149.319 60.47C149.011 60.7687 148.857 61.212 148.857 61.8ZM158.909 66.112C158.022 66.112 157.229 65.734 156.529 64.978C155.829 64.222 155.479 63.284 155.479 62.164C155.479 61.044 155.819 60.1293 156.501 59.42C157.182 58.7013 157.98 58.342 158.895 58.342C159.809 58.342 160.556 58.664 161.135 59.308V55.612H163.235V66H161.135V65.006C160.547 65.7433 159.805 66.112 158.909 66.112ZM157.593 62.248C157.593 62.8547 157.775 63.354 158.139 63.746C158.503 64.1287 158.927 64.32 159.413 64.32C159.898 64.32 160.309 64.1287 160.645 63.746C160.99 63.354 161.163 62.8547 161.163 62.248C161.163 61.632 160.99 61.1233 160.645 60.722C160.309 60.3113 159.893 60.106 159.399 60.106C158.904 60.106 158.479 60.3113 158.125 60.722C157.77 61.1327 157.593 61.6413 157.593 62.248ZM176.496 66L175.586 63.886H171.484L170.574 66H168.25L172.478 56.214H174.592L178.82 66H176.496ZM173.542 59.126L172.31 61.968H174.76L173.542 59.126ZM182.046 66H179.946V55.612H182.046V66ZM186.334 66H184.234V55.612H186.334V66ZM200.561 59.462C200.561 61.03 199.94 62.0427 198.699 62.5L201.177 66H198.489L196.319 62.878H194.807V66H192.623V56.214H196.333C197.854 56.214 198.937 56.4707 199.581 56.984C200.234 57.4973 200.561 58.3233 200.561 59.462ZM196.403 60.988C197.15 60.988 197.658 60.8667 197.929 60.624C198.2 60.3813 198.335 59.9987 198.335 59.476C198.335 58.944 198.195 58.58 197.915 58.384C197.635 58.188 197.145 58.09 196.445 58.09H194.807V60.988H196.403ZM204.817 66H202.717V58.468H204.817V66ZM202.885 57.516C202.651 57.2733 202.535 56.9793 202.535 56.634C202.535 56.2887 202.651 55.9993 202.885 55.766C203.127 55.5233 203.421 55.402 203.767 55.402C204.112 55.402 204.401 55.5233 204.635 55.766C204.877 55.9993 204.999 56.2887 204.999 56.634C204.999 56.9793 204.877 57.2733 204.635 57.516C204.401 57.7493 204.112 57.866 203.767 57.866C203.421 57.866 203.127 57.7493 202.885 57.516ZM212.283 62.08C212.283 61.4733 212.115 60.9973 211.779 60.652C211.443 60.3067 211.027 60.134 210.533 60.134C210.038 60.134 209.609 60.3067 209.245 60.652C208.89 60.9973 208.713 61.4687 208.713 62.066C208.713 62.6633 208.885 63.1487 209.231 63.522C209.585 63.886 210.015 64.068 210.519 64.068C211.023 64.068 211.443 63.886 211.779 63.522C212.115 63.158 212.283 62.6773 212.283 62.08ZM212.577 64.726C211.914 65.4633 211.088 65.832 210.099 65.832C209.119 65.832 208.288 65.5007 207.607 64.838C206.935 64.166 206.599 63.2747 206.599 62.164C206.599 61.044 206.944 60.1293 207.635 59.42C208.335 58.7013 209.133 58.342 210.029 58.342C210.925 58.342 211.667 58.7107 212.255 59.448V58.454H214.355V65.02C214.355 65.692 214.238 66.2893 214.005 66.812C213.771 67.3347 213.459 67.7453 213.067 68.044C212.292 68.66 211.377 68.968 210.323 68.968C209.763 68.968 209.189 68.8747 208.601 68.688C208.022 68.5107 207.513 68.254 207.075 67.918L207.887 66.336C208.577 66.8587 209.305 67.12 210.071 67.12C210.845 67.12 211.457 66.9287 211.905 66.546C212.353 66.1633 212.577 65.5567 212.577 64.726ZM218.642 61.94V66H216.542V55.612H218.642V59.308C219.277 58.664 219.986 58.342 220.77 58.342C221.564 58.342 222.231 58.622 222.772 59.182C223.314 59.742 223.584 60.4887 223.584 61.422V66H221.484V61.884C221.484 60.7267 221.06 60.148 220.21 60.148C219.79 60.148 219.422 60.302 219.104 60.61C218.796 60.9087 218.642 61.352 218.642 61.94ZM228.19 59.98V63.354C228.19 63.6433 228.265 63.872 228.414 64.04C228.563 64.1987 228.741 64.278 228.946 64.278C229.338 64.278 229.669 64.1007 229.94 63.746L230.724 65.216C230.071 65.8133 229.38 66.112 228.652 66.112C227.933 66.112 227.322 65.874 226.818 65.398C226.323 64.922 226.076 64.2733 226.076 63.452V59.98H225.194V58.468H226.076V56.214H228.19V58.468H230.01V59.98H228.19ZM244.089 59.462C244.089 61.03 243.469 62.0427 242.227 62.5L244.705 66H242.017L239.847 62.878H238.335V66H236.151V56.214H239.861C241.383 56.214 242.465 56.4707 243.109 56.984C243.763 57.4973 244.089 58.3233 244.089 59.462ZM239.931 60.988C240.678 60.988 241.187 60.8667 241.457 60.624C241.728 60.3813 241.863 59.9987 241.863 59.476C241.863 58.944 241.723 58.58 241.443 58.384C241.163 58.188 240.673 58.09 239.973 58.09H238.335V60.988H239.931ZM252.837 64.908C251.988 65.7107 250.989 66.112 249.841 66.112C248.702 66.112 247.76 65.762 247.013 65.062C246.266 64.3527 245.893 63.4053 245.893 62.22C245.893 61.0347 246.271 60.092 247.027 59.392C247.792 58.692 248.693 58.342 249.729 58.342C250.765 58.342 251.642 58.6547 252.361 59.28C253.089 59.9053 253.453 60.764 253.453 61.856V62.976H247.965C248.03 63.3867 248.245 63.7227 248.609 63.984C248.973 64.2453 249.384 64.376 249.841 64.376C250.578 64.376 251.185 64.1287 251.661 63.634L252.837 64.908ZM251.325 61.478C251.278 61.03 251.11 60.6847 250.821 60.442C250.532 60.1993 250.177 60.078 249.757 60.078C249.346 60.078 248.968 60.204 248.623 60.456C248.278 60.708 248.077 61.0487 248.021 61.478H251.325ZM260.837 63.662C260.837 64.3993 260.562 64.992 260.011 65.44C259.47 65.888 258.779 66.112 257.939 66.112C257.379 66.112 256.796 66.014 256.189 65.818C255.583 65.6127 255.037 65.314 254.551 64.922L255.475 63.606C256.259 64.2127 257.095 64.516 257.981 64.516C258.252 64.516 258.467 64.4647 258.625 64.362C258.784 64.25 258.863 64.1053 258.863 63.928C258.863 63.7507 258.751 63.5873 258.527 63.438C258.313 63.2887 257.995 63.1487 257.575 63.018C257.165 62.8873 256.847 62.7753 256.623 62.682C256.409 62.5887 256.161 62.4533 255.881 62.276C255.312 61.9213 255.027 61.3987 255.027 60.708C255.027 60.008 255.307 59.4387 255.867 59C256.427 58.5613 257.151 58.342 258.037 58.342C258.924 58.342 259.811 58.6407 260.697 59.238L259.913 60.638C259.26 60.19 258.607 59.966 257.953 59.966C257.309 59.966 256.987 60.1433 256.987 60.498C256.987 60.694 257.09 60.848 257.295 60.96C257.501 61.072 257.841 61.2027 258.317 61.352C258.793 61.5013 259.129 61.618 259.325 61.702C259.531 61.7767 259.773 61.898 260.053 62.066C260.576 62.3833 260.837 62.9153 260.837 63.662ZM269.165 64.908C268.316 65.7107 267.317 66.112 266.169 66.112C265.03 66.112 264.088 65.762 263.341 65.062C262.594 64.3527 262.221 63.4053 262.221 62.22C262.221 61.0347 262.599 60.092 263.355 59.392C264.12 58.692 265.021 58.342 266.057 58.342C267.093 58.342 267.97 58.6547 268.689 59.28C269.417 59.9053 269.781 60.764 269.781 61.856V62.976H264.293C264.358 63.3867 264.573 63.7227 264.937 63.984C265.301 64.2453 265.712 64.376 266.169 64.376C266.906 64.376 267.513 64.1287 267.989 63.634L269.165 64.908ZM267.653 61.478C267.606 61.03 267.438 60.6847 267.149 60.442C266.86 60.1993 266.505 60.078 266.085 60.078C265.674 60.078 265.296 60.204 264.951 60.456C264.606 60.708 264.405 61.0487 264.349 61.478H267.653ZM275.457 60.316C274.832 60.316 274.365 60.54 274.057 60.988C273.749 61.4267 273.595 62.01 273.595 62.738V66H271.495V58.468H273.595V59.462C273.866 59.154 274.202 58.8927 274.603 58.678C275.014 58.4633 275.429 58.3513 275.849 58.342L275.863 60.316H275.457ZM279.481 66L276.499 58.454H278.683L280.559 63.2L282.435 58.454H284.619L281.637 66H279.481ZM292.378 64.908C291.529 65.7107 290.53 66.112 289.382 66.112C288.244 66.112 287.301 65.762 286.554 65.062C285.808 64.3527 285.434 63.4053 285.434 62.22C285.434 61.0347 285.812 60.092 286.568 59.392C287.334 58.692 288.234 58.342 289.27 58.342C290.306 58.342 291.184 58.6547 291.902 59.28C292.63 59.9053 292.994 60.764 292.994 61.856V62.976H287.506C287.572 63.3867 287.786 63.7227 288.15 63.984C288.514 64.2453 288.925 64.376 289.382 64.376C290.12 64.376 290.726 64.1287 291.202 63.634L292.378 64.908ZM290.866 61.478C290.82 61.03 290.652 60.6847 290.362 60.442C290.073 60.1993 289.718 60.078 289.298 60.078C288.888 60.078 288.51 60.204 288.164 60.456C287.819 60.708 287.618 61.0487 287.562 61.478H290.866ZM297.718 66.112C296.832 66.112 296.038 65.734 295.338 64.978C294.638 64.222 294.288 63.284 294.288 62.164C294.288 61.044 294.629 60.1293 295.31 59.42C295.992 58.7013 296.79 58.342 297.704 58.342C298.619 58.342 299.366 58.664 299.944 59.308V55.612H302.044V66H299.944V65.006C299.356 65.7433 298.614 66.112 297.718 66.112ZM296.402 62.248C296.402 62.8547 296.584 63.354 296.948 63.746C297.312 64.1287 297.737 64.32 298.222 64.32C298.708 64.32 299.118 64.1287 299.454 63.746C299.8 63.354 299.972 62.8547 299.972 62.248C299.972 61.632 299.8 61.1233 299.454 60.722C299.118 60.3113 298.703 60.106 298.208 60.106C297.714 60.106 297.289 60.3113 296.934 60.722C296.58 61.1327 296.402 61.6413 296.402 62.248Z" fill="#737373"/>
</g>
<defs>
<clipPath id="clip0_1_4916">
<rect width="413" height="48" fill="white" transform="translate(0.5 25)"/>
</clipPath>
</defs>
</svg>
