<svg width="108" height="46" viewBox="0 0 108 46" fill="none" xmlns="http://www.w3.org/2000/svg">
<rect x="1" y="0.5" width="45" height="45" rx="4.5" stroke="#ECECEC"/>
<path d="M16.5 17.5C16.5 17.1022 16.658 16.7206 16.9393 16.4393C17.2206 16.158 17.6022 16 18 16H21C21.3978 16 21.7794 16.158 22.0607 16.4393C22.342 16.7206 22.5 17.1022 22.5 17.5V20.5C22.5 20.8978 22.342 21.2794 22.0607 21.5607C21.7794 21.842 21.3978 22 21 22H18C17.6022 22 17.2206 21.842 16.9393 21.5607C16.658 21.2794 16.5 20.8978 16.5 20.5V17.5ZM24.5 17.5C24.5 17.1022 24.658 16.7206 24.9393 16.4393C25.2206 16.158 25.6022 16 26 16H29C29.3978 16 29.7794 16.158 30.0607 16.4393C30.342 16.7206 30.5 17.1022 30.5 17.5V20.5C30.5 20.8978 30.342 21.2794 30.0607 21.5607C29.7794 21.842 29.3978 22 29 22H26C25.6022 22 25.2206 21.842 24.9393 21.5607C24.658 21.2794 24.5 20.8978 24.5 20.5V17.5ZM16.5 25.5C16.5 25.1022 16.658 24.7206 16.9393 24.4393C17.2206 24.158 17.6022 24 18 24H21C21.3978 24 21.7794 24.158 22.0607 24.4393C22.342 24.7206 22.5 25.1022 22.5 25.5V28.5C22.5 28.8978 22.342 29.2794 22.0607 29.5607C21.7794 29.842 21.3978 30 21 30H18C17.6022 30 17.2206 29.842 16.9393 29.5607C16.658 29.2794 16.5 28.8978 16.5 28.5V25.5ZM24.5 25.5C24.5 25.1022 24.658 24.7206 24.9393 24.4393C25.2206 24.158 25.6022 24 26 24H29C29.3978 24 29.7794 24.158 30.0607 24.4393C30.342 24.7206 30.5 25.1022 30.5 25.5V28.5C30.5 28.8978 30.342 29.2794 30.0607 29.5607C29.7794 29.842 29.3978 30 29 30H26C25.6022 30 25.2206 29.842 24.9393 29.5607C24.658 29.2794 24.5 28.8978 24.5 28.5V25.5Z" fill="#252B42"/>
<rect x="62" y="0.5" width="45" height="45" rx="4.5" stroke="#ECECEC"/>
<path fill-rule="evenodd" clip-rule="evenodd" d="M81.0006 27.5009C81.0006 27.3683 81.0533 27.2411 81.1471 27.1473C81.2408 27.0536 81.368 27.0009 81.5006 27.0009H90.5006C90.6332 27.0009 90.7604 27.0536 90.8542 27.1473C90.948 27.2411 91.0006 27.3683 91.0006 27.5009C91.0006 27.6335 90.948 27.7607 90.8542 27.8544C90.7604 27.9482 90.6332 28.0009 90.5006 28.0009H81.5006C81.368 28.0009 81.2408 27.9482 81.1471 27.8544C81.0533 27.7607 81.0006 27.6335 81.0006 27.5009ZM81.0006 23.5009C81.0006 23.3683 81.0533 23.2411 81.1471 23.1473C81.2408 23.0536 81.368 23.0009 81.5006 23.0009H90.5006C90.6332 23.0009 90.7604 23.0536 90.8542 23.1473C90.948 23.2411 91.0006 23.3683 91.0006 23.5009C91.0006 23.6335 90.948 23.7607 90.8542 23.8544C90.7604 23.9482 90.6332 24.0009 90.5006 24.0009H81.5006C81.368 24.0009 81.2408 23.9482 81.1471 23.8544C81.0533 23.7607 81.0006 23.6335 81.0006 23.5009ZM81.0006 19.5009C81.0006 19.3683 81.0533 19.2411 81.1471 19.1473C81.2408 19.0536 81.368 19.0009 81.5006 19.0009H90.5006C90.6332 19.0009 90.7604 19.0536 90.8542 19.1473C90.948 19.2411 91.0006 19.3683 91.0006 19.5009C91.0006 19.6335 90.948 19.7607 90.8542 19.8544C90.7604 19.9482 90.6332 20.0009 90.5006 20.0009H81.5006C81.368 20.0009 81.2408 19.9482 81.1471 19.8544C81.0533 19.7607 81.0006 19.6335 81.0006 19.5009ZM79.8546 18.1469C79.9012 18.1933 79.9381 18.2485 79.9633 18.3093C79.9886 18.37 80.0015 18.4351 80.0015 18.5009C80.0015 18.5667 79.9886 18.6318 79.9633 18.6925C79.9381 18.7533 79.9012 18.8084 79.8546 18.8549L78.3546 20.3549C78.3082 20.4015 78.253 20.4384 78.1923 20.4636C78.1315 20.4888 78.0664 20.5018 78.0006 20.5018C77.9349 20.5018 77.8697 20.4888 77.809 20.4636C77.7483 20.4384 77.6931 20.4015 77.6466 20.3549L77.1466 19.8549C77.1001 19.8084 77.0633 19.7532 77.0381 19.6925C77.0129 19.6317 77 19.5666 77 19.5009C77 19.4351 77.0129 19.37 77.0381 19.3093C77.0633 19.2486 77.1001 19.1934 77.1466 19.1469C77.1931 19.1004 77.2483 19.0635 77.309 19.0384C77.3698 19.0132 77.4349 19.0003 77.5006 19.0003C77.5664 19.0003 77.6315 19.0132 77.6922 19.0384C77.753 19.0635 77.8081 19.1004 77.8546 19.1469L78.0006 19.2939L79.1466 18.1469C79.1931 18.1003 79.2483 18.0634 79.309 18.0382C79.3697 18.013 79.4349 18 79.5006 18C79.5664 18 79.6315 18.013 79.6923 18.0382C79.753 18.0634 79.8082 18.1003 79.8546 18.1469ZM79.8546 22.1469C79.9012 22.1933 79.9381 22.2485 79.9633 22.3093C79.9886 22.37 80.0015 22.4351 80.0015 22.5009C80.0015 22.5667 79.9886 22.6318 79.9633 22.6925C79.9381 22.7533 79.9012 22.8084 79.8546 22.8549L78.3546 24.3549C78.3082 24.4015 78.253 24.4384 78.1923 24.4636C78.1315 24.4888 78.0664 24.5018 78.0006 24.5018C77.9349 24.5018 77.8697 24.4888 77.809 24.4636C77.7483 24.4384 77.6931 24.4015 77.6466 24.3549L77.1466 23.8549C77.0527 23.761 77 23.6337 77 23.5009C77 23.3681 77.0527 23.2408 77.1466 23.1469C77.2405 23.053 77.3679 23.0003 77.5006 23.0003C77.6334 23.0003 77.7607 23.053 77.8546 23.1469L78.0006 23.2939L79.1466 22.1469C79.1931 22.1003 79.2483 22.0634 79.309 22.0382C79.3697 22.013 79.4349 22 79.5006 22C79.5664 22 79.6315 22.013 79.6923 22.0382C79.753 22.0634 79.8082 22.1003 79.8546 22.1469ZM79.8546 26.1469C79.9012 26.1933 79.9381 26.2485 79.9633 26.3093C79.9886 26.37 80.0015 26.4351 80.0015 26.5009C80.0015 26.5667 79.9886 26.6318 79.9633 26.6925C79.9381 26.7533 79.9012 26.8084 79.8546 26.8549L78.3546 28.3549C78.3082 28.4015 78.253 28.4384 78.1923 28.4636C78.1315 28.4888 78.0664 28.5018 78.0006 28.5018C77.9349 28.5018 77.8697 28.4888 77.809 28.4636C77.7483 28.4384 77.6931 28.4015 77.6466 28.3549L77.1466 27.8549C77.0527 27.761 77 27.6337 77 27.5009C77 27.3681 77.0527 27.2408 77.1466 27.1469C77.2405 27.053 77.3679 27.0003 77.5006 27.0003C77.6334 27.0003 77.7607 27.053 77.8546 27.1469L78.0006 27.2939L79.1466 26.1469C79.1931 26.1003 79.2483 26.0634 79.309 26.0382C79.3697 26.013 79.4349 26 79.5006 26C79.5664 26 79.6315 26.013 79.6923 26.0382C79.753 26.0634 79.8082 26.1003 79.8546 26.1469Z" fill="#737373"/>
</svg>
