<svg width="118" height="15" viewBox="0 0 118 15" fill="none" xmlns="http://www.w3.org/2000/svg">
<path d="M0.528951 12V2.214H2.71295V10.054H6.88495V12H0.528951ZM10.0603 8.234C10.0603 8.85 10.2329 9.354 10.5783 9.746C10.9329 10.1287 11.3809 10.32 11.9223 10.32C12.4729 10.32 12.9209 10.1287 13.2663 9.746C13.6209 9.354 13.7983 8.85 13.7983 8.234C13.7983 7.618 13.6209 7.114 13.2663 6.722C12.9209 6.33 12.4729 6.134 11.9223 6.134C11.3809 6.134 10.9329 6.33 10.5783 6.722C10.2329 7.114 10.0603 7.618 10.0603 8.234ZM15.9123 8.234C15.9123 9.326 15.5343 10.2453 14.7783 10.992C14.0223 11.7387 13.0703 12.112 11.9223 12.112C10.7836 12.112 9.83628 11.7387 9.08028 10.992C8.32428 10.2453 7.94628 9.326 7.94628 8.234C7.94628 7.142 8.32428 6.22267 9.08028 5.476C9.83628 4.72 10.7836 4.342 11.9223 4.342C13.0703 4.342 14.0223 4.72 14.7783 5.476C15.5343 6.22267 15.9123 7.142 15.9123 8.234ZM22.9501 8.08C22.9501 7.47333 22.7821 6.99733 22.4461 6.652C22.1101 6.30667 21.6947 6.134 21.2001 6.134C20.7054 6.134 20.2761 6.30667 19.9121 6.652C19.5574 6.99733 19.3801 7.46867 19.3801 8.066C19.3801 8.66333 19.5527 9.14867 19.8981 9.522C20.2527 9.886 20.6821 10.068 21.1861 10.068C21.6901 10.068 22.1101 9.886 22.4461 9.522C22.7821 9.158 22.9501 8.67733 22.9501 8.08ZM23.2441 10.726C22.5814 11.4633 21.7554 11.832 20.7661 11.832C19.7861 11.832 18.9554 11.5007 18.2741 10.838C17.6021 10.166 17.2661 9.27467 17.2661 8.164C17.2661 7.044 17.6114 6.12933 18.3021 5.42C19.0021 4.70133 19.8001 4.342 20.6961 4.342C21.5921 4.342 22.3341 4.71067 22.9221 5.448V4.454H25.0221V11.02C25.0221 11.692 24.9054 12.2893 24.6721 12.812C24.4387 13.3347 24.1261 13.7453 23.7341 14.044C22.9594 14.66 22.0447 14.968 20.9901 14.968C20.4301 14.968 19.8561 14.8747 19.2681 14.688C18.6894 14.5107 18.1807 14.254 17.7421 13.918L18.5541 12.336C19.2447 12.8587 19.9727 13.12 20.7381 13.12C21.5127 13.12 22.1241 12.9287 22.5721 12.546C23.0201 12.1633 23.2441 11.5567 23.2441 10.726ZM29.31 12H27.21V4.468H29.31V12ZM27.378 3.516C27.1446 3.27333 27.028 2.97933 27.028 2.634C27.028 2.28867 27.1446 1.99933 27.378 1.766C27.6206 1.52333 27.9146 1.402 28.26 1.402C28.6053 1.402 28.8946 1.52333 29.128 1.766C29.3706 1.99933 29.492 2.28867 29.492 2.634C29.492 2.97933 29.3706 3.27333 29.128 3.516C28.8946 3.74933 28.6053 3.866 28.26 3.866C27.9146 3.866 27.6206 3.74933 27.378 3.516ZM33.5979 7.8V12H31.4979V4.468H33.5979V5.308C34.2325 4.664 34.9465 4.342 35.7399 4.342C36.5332 4.342 37.1959 4.622 37.7279 5.182C38.2692 5.742 38.5399 6.48867 38.5399 7.422V12H36.4399V7.744C36.4399 6.58667 36.0152 6.008 35.1659 6.008C34.7459 6.008 34.3772 6.162 34.0599 6.47C33.7519 6.76867 33.5979 7.212 33.5979 7.8ZM49.7807 0.729999H51.7687L45.8887 13.568H43.9147L49.7807 0.729999ZM65.3697 5.462C65.3697 7.03 64.749 8.04267 63.5077 8.5L65.9857 12H63.2977L61.1277 8.878H59.6157V12H57.4317V2.214H61.1417C62.663 2.214 63.7457 2.47067 64.3897 2.984C65.043 3.49733 65.3697 4.32333 65.3697 5.462ZM61.2117 6.988C61.9584 6.988 62.467 6.86667 62.7377 6.624C63.0084 6.38133 63.1437 5.99867 63.1437 5.476C63.1437 4.944 63.0037 4.58 62.7237 4.384C62.4437 4.188 61.9537 4.09 61.2537 4.09H59.6157V6.988H61.2117ZM74.1176 10.908C73.2682 11.7107 72.2696 12.112 71.1216 12.112C69.9829 12.112 69.0402 11.762 68.2936 11.062C67.5469 10.3527 67.1736 9.40533 67.1736 8.22C67.1736 7.03467 67.5516 6.092 68.3076 5.392C69.0729 4.692 69.9736 4.342 71.0096 4.342C72.0456 4.342 72.9229 4.65467 73.6416 5.28C74.3696 5.90533 74.7336 6.764 74.7336 7.856V8.976H69.2456C69.3109 9.38667 69.5256 9.72267 69.8896 9.984C70.2536 10.2453 70.6642 10.376 71.1216 10.376C71.8589 10.376 72.4656 10.1287 72.9416 9.634L74.1176 10.908ZM72.6056 7.478C72.5589 7.03 72.3909 6.68467 72.1016 6.442C71.8122 6.19933 71.4576 6.078 71.0376 6.078C70.6269 6.078 70.2489 6.204 69.9036 6.456C69.5582 6.708 69.3576 7.04867 69.3016 7.478H72.6056ZM81.7259 8.08C81.7259 7.47333 81.5579 6.99733 81.2219 6.652C80.8859 6.30667 80.4705 6.134 79.9759 6.134C79.4812 6.134 79.0519 6.30667 78.6879 6.652C78.3332 6.99733 78.1559 7.46867 78.1559 8.066C78.1559 8.66333 78.3285 9.14867 78.6739 9.522C79.0285 9.886 79.4579 10.068 79.9619 10.068C80.4659 10.068 80.8859 9.886 81.2219 9.522C81.5579 9.158 81.7259 8.67733 81.7259 8.08ZM82.0199 10.726C81.3572 11.4633 80.5312 11.832 79.5419 11.832C78.5619 11.832 77.7312 11.5007 77.0499 10.838C76.3779 10.166 76.0419 9.27467 76.0419 8.164C76.0419 7.044 76.3872 6.12933 77.0779 5.42C77.7779 4.70133 78.5759 4.342 79.4719 4.342C80.3679 4.342 81.1099 4.71067 81.6979 5.448V4.454H83.7979V11.02C83.7979 11.692 83.6812 12.2893 83.4479 12.812C83.2145 13.3347 82.9019 13.7453 82.5099 14.044C81.7352 14.66 80.8205 14.968 79.7659 14.968C79.2059 14.968 78.6319 14.8747 78.0439 14.688C77.4652 14.5107 76.9565 14.254 76.5179 13.918L77.3299 12.336C78.0205 12.8587 78.7485 13.12 79.5139 13.12C80.2885 13.12 80.8999 12.9287 81.3479 12.546C81.7959 12.1633 82.0199 11.5567 82.0199 10.726ZM88.0857 12H85.9857V4.468H88.0857V12ZM86.1537 3.516C85.9204 3.27333 85.8037 2.97933 85.8037 2.634C85.8037 2.28867 85.9204 1.99933 86.1537 1.766C86.3964 1.52333 86.6904 1.402 87.0357 1.402C87.3811 1.402 87.6704 1.52333 87.9037 1.766C88.1464 1.99933 88.2677 2.28867 88.2677 2.634C88.2677 2.97933 88.1464 3.27333 87.9037 3.516C87.6704 3.74933 87.3811 3.866 87.0357 3.866C86.6904 3.866 86.3964 3.74933 86.1537 3.516ZM95.9436 9.662C95.9436 10.3993 95.6683 10.992 95.1176 11.44C94.5763 11.888 93.8856 12.112 93.0456 12.112C92.4856 12.112 91.9023 12.014 91.2956 11.818C90.689 11.6127 90.143 11.314 89.6576 10.922L90.5816 9.606C91.3656 10.2127 92.201 10.516 93.0876 10.516C93.3583 10.516 93.573 10.4647 93.7316 10.362C93.8903 10.25 93.9696 10.1053 93.9696 9.928C93.9696 9.75067 93.8576 9.58733 93.6336 9.438C93.419 9.28867 93.1016 9.14867 92.6816 9.018C92.271 8.88733 91.9536 8.77533 91.7296 8.682C91.515 8.58867 91.2676 8.45333 90.9876 8.276C90.4183 7.92133 90.1336 7.39867 90.1336 6.708C90.1336 6.008 90.4136 5.43867 90.9736 5C91.5336 4.56133 92.257 4.342 93.1436 4.342C94.0303 4.342 94.917 4.64067 95.8036 5.238L95.0196 6.638C94.3663 6.19 93.713 5.966 93.0596 5.966C92.4156 5.966 92.0936 6.14333 92.0936 6.498C92.0936 6.694 92.1963 6.848 92.4016 6.96C92.607 7.072 92.9476 7.20267 93.4236 7.352C93.8996 7.50133 94.2356 7.618 94.4316 7.702C94.637 7.77667 94.8796 7.898 95.1596 8.066C95.6823 8.38333 95.9436 8.91533 95.9436 9.662ZM100.198 5.98V9.354C100.198 9.64333 100.273 9.872 100.422 10.04C100.572 10.1987 100.749 10.278 100.954 10.278C101.346 10.278 101.678 10.1007 101.948 9.746L102.732 11.216C102.079 11.8133 101.388 12.112 100.66 12.112C99.9417 12.112 99.3304 11.874 98.8264 11.398C98.3317 10.922 98.0844 10.2733 98.0844 9.452V5.98H97.2024V4.468H98.0844V2.214H100.198V4.468H102.018V5.98H100.198ZM110.582 10.908C109.733 11.7107 108.734 12.112 107.586 12.112C106.448 12.112 105.505 11.762 104.758 11.062C104.012 10.3527 103.638 9.40533 103.638 8.22C103.638 7.03467 104.016 6.092 104.772 5.392C105.538 4.692 106.438 4.342 107.474 4.342C108.51 4.342 109.388 4.65467 110.106 5.28C110.834 5.90533 111.198 6.764 111.198 7.856V8.976H105.71C105.776 9.38667 105.99 9.72267 106.354 9.984C106.718 10.2453 107.129 10.376 107.586 10.376C108.324 10.376 108.93 10.1287 109.406 9.634L110.582 10.908ZM109.07 7.478C109.024 7.03 108.856 6.68467 108.566 6.442C108.277 6.19933 107.922 6.078 107.502 6.078C107.092 6.078 106.714 6.204 106.368 6.456C106.023 6.708 105.822 7.04867 105.766 7.478H109.07ZM116.875 6.316C116.249 6.316 115.783 6.54 115.475 6.988C115.167 7.42667 115.013 8.01 115.013 8.738V12H112.913V4.468H115.013V5.462C115.283 5.154 115.619 4.89267 116.021 4.678C116.431 4.46333 116.847 4.35133 117.267 4.342L117.281 6.316H116.875Z" fill="#23A6F0"/>
</svg>
