<svg width="328" height="952" viewBox="0 0 328 952" fill="none" xmlns="http://www.w3.org/2000/svg">
<g clip-path="url(#clip0_232_568)">
<path d="M123.142 96.9481L132.059 97.1359C128.986 96.0561 126.006 94.7416 123.142 93.1923V96.9481ZM136.575 95.704V96.9481L132.059 97.1359C140.556 100.07 148.332 100.469 154.106 98.8261C149.473 98.873 143.443 98.2157 136.575 95.704ZM231.772 68.6618C235.474 68.6618 238.501 65.6336 238.501 61.8777C238.501 58.1218 235.497 56.1265 231.772 56.1265C228.071 56.1265 225.044 58.1453 225.044 61.8777C225.044 65.6101 228.047 68.6618 231.772 68.6618ZM225.021 96.9481H238.501V71.0092H225.021V96.9481ZM207.862 96.9481H221.342V51.1031L207.862 57.5115V96.9481ZM200.645 68.92C196.408 64.6477 188.911 64.9059 188.911 64.9059C188.911 64.9059 181.392 64.6477 177.178 68.92C172.941 73.1923 173.266 76.8777 173.266 81.2674C173.266 85.6571 172.941 89.319 177.178 93.5913C181.415 97.8636 188.911 97.6054 188.911 97.6054C188.911 97.6054 196.431 97.8636 200.645 93.5913C204.882 89.319 204.556 85.6571 204.556 81.2674C204.533 76.8542 204.859 73.1688 200.645 68.92ZM191.379 85.7979C191.379 86.643 190.96 88.7322 188.888 88.7322C186.816 88.7322 186.397 86.643 186.397 85.7979V76.3143C186.397 74.2721 188.097 73.7556 188.888 73.7556C189.68 73.7556 191.379 74.2486 191.379 76.3143V85.7979ZM166.655 68.92C162.417 64.6477 154.921 64.9059 154.921 64.9059C154.921 64.9059 147.424 64.6477 143.187 68.92C142.745 69.366 142.326 69.8355 141.953 70.3284C133.06 63.3801 125.074 59.4129 118.183 55.9857V51.1265L112.945 53.6148C100.28 48.427 92.2245 49.3425 90.2921 53.6383C90.2921 53.6383 84.4951 61.3378 104.68 79.6477V96.9481H118.16V90.2345C116.646 89.2486 115.133 88.1923 113.643 87.042C110.198 84.4129 107.264 81.9716 104.703 79.6711V72.3941C107.753 75.8449 111.804 79.765 117.135 84.2017L118.183 85.0467V78.0514C118.183 76.4317 118.579 73.7791 120.697 73.7791C122.816 73.7791 123.165 75.3988 123.165 77.3002V88.7322C127.356 91.596 131.849 93.92 136.599 95.6805V73.6383C136.599 69.2486 133.479 64.8589 127.146 64.8589C123.468 64.8355 120.046 66.7838 118.183 69.9998V57.2533C127.938 62.1594 137.716 68.1688 141.441 70.9387C139.066 74.366 139.276 77.535 139.276 81.197C139.276 85.5866 138.95 89.2486 143.187 93.5209C147.424 97.7932 154.921 97.535 154.921 97.535C154.921 97.535 162.441 97.7932 166.655 93.5209C170.892 89.2486 170.543 85.5866 170.543 81.197C170.543 76.8542 170.892 73.1688 166.655 68.92ZM104.68 57.5115V72.3707C93.342 59.5772 95.6235 54.5303 96.4849 53.8026C99.6279 51.1265 105.215 51.9247 111.478 54.2956L104.68 57.5115ZM157.412 85.7979C157.412 86.643 156.993 88.7322 154.921 88.7322C152.849 88.7322 152.43 86.643 152.43 85.7979V76.3143C152.43 74.2721 154.129 73.7556 154.921 73.7556C155.712 73.7556 157.412 74.2486 157.412 76.3143V85.7979Z" fill="#737373"/>
</g>
<g clip-path="url(#clip1_232_568)">
<path d="M94.5 161.67H115.621V218.746C115.621 227.798 119.694 233.185 123.006 235.428C119.558 238.464 109.106 241.144 101.233 234.662C96.6176 230.833 94.5 224.461 94.5 218.527V161.67ZM226.414 209.119V203.103H232.876V182.099H225.79C223.048 169.437 211.89 160.029 198.56 160.029C183.194 160.029 170.679 172.609 170.679 188.116V237.123C175.022 237.752 180.289 237.041 184.714 233.295C189.357 229.466 191.447 223.121 191.447 217.159V215.327H201.981V194.324H191.447V187.952C191.447 178.489 205.619 178.489 205.619 187.952V209.037C205.619 224.516 218.107 237.123 233.5 237.123V216.202C229.563 216.202 226.414 213.002 226.414 209.119ZM146.516 182.044V212.948C146.516 217.159 140.055 217.159 140.055 212.948V182.044H119.205V218.335C119.205 224.844 121.377 233.103 131.422 235.811C141.467 238.491 147.222 232.912 147.222 232.912C146.652 236.577 143.286 239.284 137.747 239.831C133.539 240.269 128.191 238.846 125.531 237.698V256.923C132.345 258.975 139.512 259.604 146.598 258.209C159.385 255.72 167.448 244.972 167.448 230.642V181.908H146.516V182.044Z" fill="#737373"/>
</g>
<g clip-path="url(#clip2_232_568)">
<path d="M238.5 319.212C219.689 331.83 217.687 340.988 216.057 343.79C214.497 346.662 213.333 357.986 210.632 363.471C207.908 369.027 198.014 373.406 195.243 375.242C192.52 377.078 188.655 384.212 185.489 390.356C160.322 389.32 146.516 399.491 125.144 412.392C131.988 410.108 135.224 408.46 135.224 408.46C157.155 399.985 167.655 392.381 200.668 396.877C200.924 396.877 201.11 397.019 201.32 397.066C202.228 397.584 202.554 398.69 202.042 399.608L189.493 422.162C188.911 423.268 187.677 423.857 186.443 423.598C156.922 417.995 133.618 427.67 112.199 427.976C95.1108 428.235 89.5 420.09 89.5 419.713C89.5 419.454 89.6397 419.313 89.8958 419.313C89.8958 419.313 98.8125 419.313 113.899 415.711C131.034 382.681 146.306 371.122 162.929 371.122C162.929 371.122 179.622 371.122 184.022 385.695C189.33 376.349 190.61 374.112 190.61 374.112C191.844 371.899 198.759 355.938 210.725 340.824C222.715 325.757 231.772 322.013 238.5 319.212Z" fill="#737373"/>
</g>
<g clip-path="url(#clip3_232_568)">
<g clip-path="url(#clip4_232_568)">
<path d="M127.916 492.705L117.835 494.795L117.788 527.159C117.788 533.136 122.398 537 128.521 537C131.92 537 134.411 536.386 135.785 535.659V527.977C134.458 528.5 127.939 530.364 127.939 524.409V510.045H135.785V501.455H127.939L127.916 492.705ZM148.659 504.432L148.031 501.455H139.091V536.273H149.404V512.841C151.849 509.705 155.97 510.318 157.297 510.727V501.455C155.9 500.977 151.081 500.091 148.659 504.432ZM170.148 488L159.764 490.159V498.386L170.148 496.227V488ZM99.9549 511.705C99.9549 510.136 101.305 509.523 103.47 509.5C106.613 509.5 110.618 510.432 113.761 512.091V502.591C110.338 501.273 106.916 500.75 103.494 500.75C95.1124 500.75 89.5249 505.023 89.5249 512.159C89.5249 523.341 105.24 521.523 105.24 526.341C105.24 528.205 103.587 528.818 101.282 528.818C97.8596 528.818 93.4362 527.432 89.9672 525.591V534.682C93.8087 536.295 97.6966 536.977 101.259 536.977C109.849 536.977 115.763 533.386 115.763 526.114C115.763 514.091 99.9549 516.25 99.9549 511.705ZM238.502 519.273C238.502 508.932 233.38 500.773 223.555 500.773C213.73 500.773 207.747 508.932 207.747 519.205C207.747 531.364 214.801 536.977 224.859 536.977C229.794 536.977 233.496 535.886 236.313 534.364V526.773C233.496 528.159 230.26 529 226.163 529C222.135 529 218.596 527.614 218.131 522.886H238.362C238.408 522.364 238.502 520.25 238.502 519.273ZM218.037 515.455C218.037 510.909 220.901 509 223.485 509C226.023 509 228.723 510.909 228.723 515.455H218.037ZM191.753 500.773C187.702 500.773 185.094 502.636 183.651 503.932L183.116 501.432H174.013V547.977L184.349 545.841L184.373 534.432C185.863 535.5 188.074 536.977 191.683 536.977C199.086 536.977 205.838 531.705 205.838 518.886C205.861 507.159 199.017 500.773 191.753 500.773ZM189.285 528.614C186.864 528.614 185.42 527.75 184.419 526.705L184.349 511.705C185.42 510.545 186.91 509.705 189.285 509.705C193.057 509.705 195.664 513.841 195.664 519.114C195.687 524.545 193.126 528.614 189.285 528.614ZM159.788 536.273H170.171V501.455H159.788V536.273Z" fill="#737373"/>
</g>
</g>
<g clip-path="url(#clip5_232_568)">
<g clip-path="url(#clip6_232_568)">
<path d="M130.733 641.37C130.562 646.769 133.259 649.159 133.326 650.677C133.294 650.986 133.189 651.283 133.019 651.543C132.849 651.803 132.619 652.019 132.349 652.172L129.299 654.307C128.904 654.584 128.438 654.743 127.957 654.765C127.854 654.76 126.005 655.201 123.076 648.661C121.289 650.892 119.015 652.684 116.429 653.901C113.843 655.117 111.013 655.726 108.155 655.68C104.275 655.892 93.7606 653.478 94.3015 642.283C93.9226 633.159 102.419 627.491 111.205 627.971C112.897 627.975 116.353 628.059 122.404 629.465V625.742C123.045 619.436 118.901 614.542 111.725 615.276C111.153 615.279 107.102 615.157 100.8 617.686C99.0465 618.492 98.8224 618.358 98.2386 618.358C96.4726 618.358 97.1995 613.239 97.5379 612.59C98.7795 611.065 106.084 608.217 113.253 608.257C118.046 607.833 122.813 609.313 126.524 612.376C128.033 614.064 129.184 616.039 129.908 618.184C130.632 620.329 130.913 622.599 130.736 624.855L130.733 641.37ZM110.138 649.09C117.866 648.978 121.139 644.33 121.884 641.828C122.471 639.432 122.373 637.917 122.373 635.297C120.068 634.744 116.751 634.141 112.945 634.136C109.335 633.865 102.74 635.478 102.998 641.825C102.702 645.827 105.648 649.309 110.138 649.09ZM150.871 654.584C148.998 654.755 148.126 653.425 147.849 652.112L135.981 612.869C135.75 612.207 135.597 611.523 135.523 610.824C135.48 610.536 135.552 610.243 135.724 610.008C135.897 609.774 136.155 609.617 136.443 609.573C136.5 609.563 135.936 609.573 141.746 609.573C143.838 609.363 144.52 611.01 144.737 612.045L153.249 645.61L161.152 612.045C161.278 611.277 161.853 609.406 164.203 609.604H168.292C168.809 609.561 170.94 609.485 171.314 612.076L179.278 646.07L188.065 612.076C188.18 611.556 188.713 609.366 191.087 609.604H195.787C195.989 609.573 197.252 609.411 197.038 611.649C196.935 612.09 197.851 609.108 184.467 652.143C184.193 653.456 183.318 654.786 181.445 654.615H176.991C174.383 654.889 174.009 652.312 173.969 652.053L166.066 619.369L158.254 652.019C158.216 652.279 157.842 654.856 155.232 654.581H150.871V654.584ZM216.046 655.926C214.645 655.928 207.962 655.854 202.376 652.996C201.82 652.761 201.346 652.365 201.014 651.86C200.683 651.355 200.509 650.762 200.515 650.158V647.596C200.515 645.582 201.993 645.951 202.619 646.192C205.012 647.159 206.547 647.894 209.485 648.48C218.22 650.275 222.061 647.932 223.003 647.412C226.137 645.551 226.384 641.292 224.254 639.082C221.756 636.987 220.565 636.908 211.592 634.077C210.486 633.769 201.178 630.833 201.156 621.597C201.011 614.867 207.126 608.207 217.724 608.262C220.743 608.26 228.789 609.246 230.967 611.985C231.289 612.483 231.449 613.069 231.425 613.663V616.073C231.425 617.131 231.039 617.66 230.264 617.66C228.427 617.455 225.167 614.998 218.548 615.098C216.906 615.012 209.042 615.315 209.395 621.049C209.292 625.568 215.736 627.263 216.473 627.458C225.162 630.073 228.067 630.507 231.515 634.508C235.6 639.811 233.398 646.02 232.552 647.722C228.005 656.657 216.246 655.93 216.046 655.926ZM225.627 680.918C208.937 693.245 184.71 699.807 164.024 699.807C136.112 699.991 109.141 689.727 88.4127 671.032C86.8565 669.628 88.2292 667.705 90.1215 668.775C113.115 681.929 139.149 688.841 165.64 688.824C185.422 688.718 204.988 684.704 223.215 677.014C226.022 675.822 228.403 678.873 225.627 680.918ZM232.583 672.984C230.448 670.238 218.456 671.702 213.086 672.343C211.468 672.526 211.194 671.122 212.66 670.086C222.209 663.372 237.893 665.295 239.694 667.552C241.494 669.809 239.206 685.525 230.267 693.033C228.894 694.194 227.581 693.581 228.191 692.056C230.202 686.991 234.718 675.732 232.583 672.984Z" fill="#737373"/>
</g>
</g>
<g clip-path="url(#clip7_232_568)">
<path d="M221.69 814.555C216.995 814.555 212.863 816.515 209.827 819.583C198.652 811.772 183.595 806.743 166.911 806.205L175.582 766.736L203.19 772.998C203.19 779.829 208.7 785.396 215.461 785.396C222.348 785.396 227.888 779.671 227.888 772.84C227.888 766.009 222.379 760.285 215.461 760.285C210.64 760.285 206.477 763.226 204.411 767.242L173.923 760.411C172.389 760 170.886 761.107 170.479 762.657L160.963 806.174C144.404 806.87 129.504 811.898 118.298 819.71C115.262 816.515 110.973 814.555 106.278 814.555C88.8736 814.555 83.1766 838.147 99.1096 846.212C98.5461 848.71 98.2957 851.367 98.2957 854.024C98.2957 880.526 127.845 902 164.125 902C200.561 902 230.111 880.526 230.111 854.024C230.111 851.367 229.829 848.584 229.14 846.086C244.76 837.989 239.001 814.555 221.69 814.555ZM124.371 847.888C124.371 840.931 129.88 835.333 136.798 835.333C143.559 835.333 149.068 840.899 149.068 847.888C149.068 854.719 143.559 860.286 136.798 860.286C129.911 860.317 124.371 854.719 124.371 847.888ZM191.452 877.458C180.058 888.97 147.91 888.97 136.516 877.458C135.264 876.351 135.264 874.391 136.516 873.126C137.612 872.019 139.552 872.019 140.648 873.126C149.35 882.139 178.211 882.297 187.289 873.126C188.384 872.019 190.325 872.019 191.421 873.126C192.704 874.391 192.704 876.351 191.452 877.458ZM191.202 860.317C184.44 860.317 178.931 854.751 178.931 847.92C178.931 840.962 184.44 835.364 191.202 835.364C198.088 835.364 203.629 840.931 203.629 847.92C203.597 854.719 198.088 860.317 191.202 860.317Z" fill="#737373"/>
</g>
<defs>
<clipPath id="clip0_232_568">
<rect width="149" height="50" fill="white" transform="translate(89.5 50)"/>
</clipPath>
<clipPath id="clip1_232_568">
<rect width="139" height="99" fill="white" transform="translate(94.5 160)"/>
</clipPath>
<clipPath id="clip2_232_568">
<rect width="149" height="109" fill="white" transform="translate(89.5 319)"/>
</clipPath>
<clipPath id="clip3_232_568">
<rect width="149" height="60" fill="white" transform="translate(89.5 488)"/>
</clipPath>
<clipPath id="clip4_232_568">
<rect width="149" height="60" fill="white" transform="translate(89.5 488)"/>
</clipPath>
<clipPath id="clip5_232_568">
<rect width="151" height="92" fill="white" transform="translate(88.5 608)"/>
</clipPath>
<clipPath id="clip6_232_568">
<rect width="153" height="92" fill="white" transform="translate(87.5 608)"/>
</clipPath>
<clipPath id="clip7_232_568">
<rect width="149" height="142" fill="white" transform="translate(89.5 760)"/>
</clipPath>
</defs>
</svg>
