<svg width="414" height="952" viewBox="0 0 414 952" fill="none" xmlns="http://www.w3.org/2000/svg">
<g clip-path="url(#clip0_232_2083)">
<path d="M166.142 96.9481L175.059 97.1359C171.986 96.0561 169.006 94.7416 166.142 93.1923V96.9481ZM179.575 95.704V96.9481L175.059 97.1359C183.556 100.07 191.332 100.469 197.106 98.8261C192.473 98.873 186.443 98.2157 179.575 95.704ZM274.772 68.6618C278.474 68.6618 281.501 65.6336 281.501 61.8777C281.501 58.1218 278.497 56.1265 274.772 56.1265C271.071 56.1265 268.044 58.1453 268.044 61.8777C268.044 65.6101 271.047 68.6618 274.772 68.6618ZM268.021 96.9481H281.501V71.0092H268.021V96.9481ZM250.862 96.9481H264.342V51.1031L250.862 57.5115V96.9481ZM243.645 68.92C239.408 64.6477 231.911 64.9059 231.911 64.9059C231.911 64.9059 224.392 64.6477 220.178 68.92C215.941 73.1923 216.266 76.8777 216.266 81.2674C216.266 85.6571 215.941 89.319 220.178 93.5913C224.415 97.8636 231.911 97.6054 231.911 97.6054C231.911 97.6054 239.431 97.8636 243.645 93.5913C247.882 89.319 247.556 85.6571 247.556 81.2674C247.533 76.8542 247.859 73.1688 243.645 68.92ZM234.379 85.7979C234.379 86.643 233.96 88.7322 231.888 88.7322C229.816 88.7322 229.397 86.643 229.397 85.7979V76.3143C229.397 74.2721 231.097 73.7556 231.888 73.7556C232.68 73.7556 234.379 74.2486 234.379 76.3143V85.7979ZM209.655 68.92C205.417 64.6477 197.921 64.9059 197.921 64.9059C197.921 64.9059 190.424 64.6477 186.187 68.92C185.745 69.366 185.326 69.8355 184.953 70.3284C176.06 63.3801 168.074 59.4129 161.183 55.9857V51.1265L155.945 53.6148C143.28 48.427 135.224 49.3425 133.292 53.6383C133.292 53.6383 127.495 61.3378 147.68 79.6477V96.9481H161.16V90.2345C159.646 89.2486 158.133 88.1923 156.643 87.042C153.198 84.4129 150.264 81.9716 147.703 79.6711V72.3941C150.753 75.8449 154.804 79.765 160.135 84.2017L161.183 85.0467V78.0514C161.183 76.4317 161.579 73.7791 163.697 73.7791C165.816 73.7791 166.165 75.3988 166.165 77.3002V88.7322C170.356 91.596 174.849 93.92 179.599 95.6805V73.6383C179.599 69.2486 176.479 64.8589 170.146 64.8589C166.468 64.8355 163.046 66.7838 161.183 69.9998V57.2533C170.938 62.1594 180.716 68.1688 184.441 70.9387C182.066 74.366 182.276 77.535 182.276 81.197C182.276 85.5866 181.95 89.2486 186.187 93.5209C190.424 97.7932 197.921 97.535 197.921 97.535C197.921 97.535 205.441 97.7932 209.655 93.5209C213.892 89.2486 213.543 85.5866 213.543 81.197C213.543 76.8542 213.892 73.1688 209.655 68.92ZM147.68 57.5115V72.3707C136.342 59.5772 138.624 54.5303 139.485 53.8026C142.628 51.1265 148.215 51.9247 154.478 54.2956L147.68 57.5115ZM200.412 85.7979C200.412 86.643 199.993 88.7322 197.921 88.7322C195.849 88.7322 195.43 86.643 195.43 85.7979V76.3143C195.43 74.2721 197.129 73.7556 197.921 73.7556C198.712 73.7556 200.412 74.2486 200.412 76.3143V85.7979Z" fill="#737373"/>
</g>
<g clip-path="url(#clip1_232_2083)">
<path d="M137.5 161.67H158.621V218.746C158.621 227.798 162.694 233.185 166.006 235.428C162.558 238.464 152.106 241.144 144.233 234.662C139.618 230.833 137.5 224.461 137.5 218.527V161.67ZM269.414 209.119V203.103H275.876V182.099H268.79C266.048 169.437 254.89 160.029 241.56 160.029C226.194 160.029 213.679 172.609 213.679 188.116V237.123C218.022 237.752 223.289 237.041 227.714 233.295C232.357 229.466 234.447 223.121 234.447 217.159V215.327H244.981V194.324H234.447V187.952C234.447 178.489 248.619 178.489 248.619 187.952V209.037C248.619 224.516 261.107 237.123 276.5 237.123V216.202C272.563 216.202 269.414 213.002 269.414 209.119ZM189.516 182.044V212.948C189.516 217.159 183.055 217.159 183.055 212.948V182.044H162.205V218.335C162.205 224.844 164.377 233.103 174.422 235.811C184.467 238.491 190.222 232.912 190.222 232.912C189.652 236.577 186.286 239.284 180.747 239.831C176.539 240.269 171.191 238.846 168.531 237.698V256.923C175.345 258.975 182.512 259.604 189.598 258.209C202.385 255.72 210.448 244.972 210.448 230.642V181.908H189.516V182.044Z" fill="#737373"/>
</g>
<g clip-path="url(#clip2_232_2083)">
<path d="M281.5 319.212C262.689 331.83 260.687 340.988 259.057 343.79C257.497 346.662 256.333 357.986 253.632 363.471C250.908 369.027 241.014 373.406 238.243 375.242C235.52 377.078 231.655 384.212 228.489 390.356C203.322 389.32 189.516 399.491 168.144 412.392C174.988 410.108 178.224 408.46 178.224 408.46C200.155 399.985 210.655 392.381 243.668 396.877C243.924 396.877 244.11 397.019 244.32 397.066C245.228 397.584 245.554 398.69 245.042 399.608L232.493 422.162C231.911 423.268 230.677 423.857 229.443 423.598C199.922 417.995 176.618 427.67 155.199 427.976C138.111 428.235 132.5 420.09 132.5 419.713C132.5 419.454 132.64 419.313 132.896 419.313C132.896 419.313 141.812 419.313 156.899 415.711C174.034 382.681 189.306 371.122 205.929 371.122C205.929 371.122 222.622 371.122 227.022 385.695C232.33 376.349 233.61 374.112 233.61 374.112C234.844 371.899 241.759 355.938 253.725 340.824C265.715 325.757 274.772 322.013 281.5 319.212Z" fill="#737373"/>
</g>
<g clip-path="url(#clip3_232_2083)">
<g clip-path="url(#clip4_232_2083)">
<path d="M170.915 492.705L160.834 494.795L160.788 527.159C160.788 533.136 165.398 537 171.521 537C174.92 537 177.411 536.386 178.784 535.659V527.977C177.457 528.5 170.938 530.364 170.938 524.409V510.045H178.784V501.455H170.938L170.915 492.705ZM191.659 504.432L191.03 501.455H182.09V536.273H192.404V512.841C194.848 509.705 198.969 510.318 200.296 510.727V501.455C198.899 500.977 194.08 500.091 191.659 504.432ZM213.147 488L202.764 490.159V498.386L213.147 496.227V488ZM142.954 511.705C142.954 510.136 144.305 509.523 146.47 509.5C149.613 509.5 153.617 510.432 156.76 512.091V502.591C153.338 501.273 149.916 500.75 146.493 500.75C138.112 500.75 132.524 505.023 132.524 512.159C132.524 523.341 148.239 521.523 148.239 526.341C148.239 528.205 146.586 528.818 144.281 528.818C140.859 528.818 136.436 527.432 132.967 525.591V534.682C136.808 536.295 140.696 536.977 144.258 536.977C152.849 536.977 158.762 533.386 158.762 526.114C158.762 514.091 142.954 516.25 142.954 511.705ZM281.501 519.273C281.501 508.932 276.379 500.773 266.555 500.773C256.73 500.773 250.747 508.932 250.747 519.205C250.747 531.364 257.801 536.977 267.858 536.977C272.794 536.977 276.496 535.886 279.313 534.364V526.773C276.496 528.159 273.26 529 269.162 529C265.134 529 261.596 527.614 261.13 522.886H281.361C281.408 522.364 281.501 520.25 281.501 519.273ZM261.037 515.455C261.037 510.909 263.9 509 266.485 509C269.022 509 271.723 510.909 271.723 515.455H261.037ZM234.752 500.773C230.701 500.773 228.094 502.636 226.65 503.932L226.115 501.432H217.012V547.977L227.349 545.841L227.372 534.432C228.862 535.5 231.074 536.977 234.683 536.977C242.086 536.977 248.838 531.705 248.838 518.886C248.861 507.159 242.016 500.773 234.752 500.773ZM232.285 528.614C229.863 528.614 228.42 527.75 227.419 526.705L227.349 511.705C228.42 510.545 229.91 509.705 232.285 509.705C236.056 509.705 238.664 513.841 238.664 519.114C238.687 524.545 236.126 528.614 232.285 528.614ZM202.787 536.273H213.171V501.455H202.787V536.273Z" fill="#737373"/>
</g>
</g>
<g clip-path="url(#clip5_232_2083)">
<g clip-path="url(#clip6_232_2083)">
<path d="M173.733 641.371C173.561 646.769 176.259 649.16 176.326 650.678C176.294 650.987 176.189 651.284 176.019 651.544C175.849 651.804 175.619 652.019 175.348 652.172L172.298 654.308C171.903 654.585 171.438 654.743 170.956 654.765C170.854 654.761 169.004 655.202 166.076 648.662C164.289 650.892 162.015 652.685 159.429 653.901C156.842 655.118 154.012 655.727 151.154 655.681C147.275 655.893 136.76 653.478 137.301 642.283C136.922 633.16 145.418 627.492 154.205 627.971C155.897 627.976 159.353 628.059 165.403 629.465V625.743C166.045 619.436 161.9 614.543 154.724 615.277C154.153 615.279 150.101 615.158 143.8 617.687C142.046 618.492 141.822 618.359 141.238 618.359C139.472 618.359 140.199 613.239 140.537 612.591C141.779 611.065 149.083 608.217 156.252 608.258C161.045 607.834 165.813 609.313 169.524 612.376C171.033 614.064 172.184 616.04 172.907 618.185C173.631 620.33 173.913 622.599 173.735 624.856L173.733 641.371ZM153.137 649.091C160.866 648.979 164.138 644.331 164.884 641.828C165.47 639.433 165.373 637.917 165.373 635.298C163.068 634.745 159.751 634.142 155.945 634.137C152.334 633.865 145.74 635.479 145.997 641.826C145.702 645.828 148.647 649.31 153.137 649.091ZM193.871 654.584C191.997 654.756 191.125 653.426 190.849 652.113L178.98 612.87C178.749 612.207 178.597 611.523 178.523 610.825C178.479 610.537 178.551 610.243 178.724 610.009C178.896 609.774 179.155 609.618 179.443 609.573C179.5 609.564 178.935 609.573 184.745 609.573C186.838 609.364 187.519 611.011 187.736 612.045L196.249 645.611L204.152 612.045C204.278 611.278 204.852 609.407 207.202 609.604H211.292C211.809 609.562 213.939 609.485 214.313 612.076L222.278 646.071L231.065 612.076C231.179 611.556 231.713 609.366 234.087 609.604H238.786C238.989 609.573 240.252 609.411 240.037 611.649C239.935 612.09 240.85 609.109 227.466 652.144C227.192 653.457 226.317 654.787 224.444 654.615H219.99C217.383 654.889 217.009 652.313 216.968 652.053L209.066 619.369L201.254 652.02C201.215 652.28 200.841 654.856 198.232 654.582H193.871V654.584ZM259.046 655.926C257.644 655.929 250.962 655.855 245.376 652.997C244.819 652.761 244.345 652.366 244.014 651.86C243.683 651.355 243.509 650.763 243.515 650.158V647.596C243.515 645.582 244.992 645.952 245.619 646.192C248.012 647.16 249.546 647.894 252.485 648.48C261.219 650.275 265.061 647.932 266.002 647.413C269.136 645.551 269.384 641.292 267.253 639.083C264.756 636.988 263.564 636.909 254.592 634.077C253.486 633.77 244.177 630.834 244.156 621.598C244.01 614.867 250.125 608.208 260.723 608.263C263.743 608.26 271.789 609.247 273.967 611.985C274.288 612.484 274.448 613.07 274.424 613.663V616.073C274.424 617.131 274.038 617.66 273.264 617.66C271.426 617.455 268.166 614.998 261.548 615.098C259.906 615.012 252.042 615.315 252.394 621.05C252.292 625.569 258.736 627.263 259.472 627.459C268.161 630.073 271.066 630.507 274.515 634.509C278.6 639.812 276.398 646.021 275.552 647.722C271.004 656.658 259.246 655.931 259.046 655.926ZM268.626 680.919C251.937 693.246 227.709 699.807 207.023 699.807C179.112 699.991 152.141 689.727 131.412 671.032C129.856 669.628 131.229 667.705 133.121 668.775C156.115 681.93 182.149 688.841 208.639 688.825C228.421 688.718 247.987 684.705 266.214 677.015C269.022 675.823 271.402 678.874 268.626 680.919ZM275.583 672.984C273.447 670.239 261.455 671.702 256.086 672.343C254.468 672.527 254.194 671.123 255.659 670.086C265.209 663.372 280.892 665.295 282.694 667.553C284.493 669.81 282.205 685.526 273.266 693.034C271.893 694.194 270.58 693.582 271.19 692.056C273.202 686.992 277.718 675.732 275.583 672.984Z" fill="#737373"/>
</g>
</g>
<g clip-path="url(#clip7_232_2083)">
<path d="M264.69 814.554C259.995 814.554 255.863 816.515 252.827 819.583C241.652 811.771 226.595 806.743 209.911 806.205L218.582 766.736L246.19 772.998C246.19 779.829 251.7 785.395 258.461 785.395C265.348 785.395 270.888 779.671 270.888 772.84C270.888 766.008 265.379 760.284 258.461 760.284C253.64 760.284 249.477 763.225 247.411 767.242L216.923 760.411C215.389 760 213.886 761.106 213.479 762.656L203.963 806.173C187.404 806.869 172.504 811.898 161.298 819.709C158.262 816.515 153.973 814.554 149.278 814.554C131.874 814.554 126.177 838.147 142.11 846.212C141.546 848.71 141.296 851.367 141.296 854.023C141.296 880.526 170.845 902 207.125 902C243.561 902 273.111 880.526 273.111 854.023C273.111 851.367 272.829 848.583 272.14 846.085C287.76 837.989 282.001 814.554 264.69 814.554ZM167.371 847.888C167.371 840.93 172.88 835.332 179.798 835.332C186.559 835.332 192.068 840.898 192.068 847.888C192.068 854.719 186.559 860.285 179.798 860.285C172.911 860.317 167.371 854.719 167.371 847.888ZM234.452 877.458C223.058 888.97 190.91 888.97 179.516 877.458C178.264 876.351 178.264 874.39 179.516 873.125C180.612 872.018 182.552 872.018 183.648 873.125C192.35 882.139 221.211 882.297 230.289 873.125C231.384 872.018 233.325 872.018 234.421 873.125C235.704 874.39 235.704 876.351 234.452 877.458ZM234.202 860.317C227.44 860.317 221.931 854.751 221.931 847.919C221.931 840.962 227.44 835.364 234.202 835.364C241.088 835.364 246.629 840.93 246.629 847.919C246.597 854.719 241.088 860.317 234.202 860.317Z" fill="#737373"/>
</g>
<defs>
<clipPath id="clip0_232_2083">
<rect width="149" height="50" fill="white" transform="translate(132.5 50)"/>
</clipPath>
<clipPath id="clip1_232_2083">
<rect width="139" height="99" fill="white" transform="translate(137.5 160)"/>
</clipPath>
<clipPath id="clip2_232_2083">
<rect width="149" height="109" fill="white" transform="translate(132.5 319)"/>
</clipPath>
<clipPath id="clip3_232_2083">
<rect width="149" height="60" fill="white" transform="translate(132.5 488)"/>
</clipPath>
<clipPath id="clip4_232_2083">
<rect width="149" height="60" fill="white" transform="translate(132.5 488)"/>
</clipPath>
<clipPath id="clip5_232_2083">
<rect width="151" height="92" fill="white" transform="translate(131.5 608)"/>
</clipPath>
<clipPath id="clip6_232_2083">
<rect width="153" height="92" fill="white" transform="translate(130.5 608)"/>
</clipPath>
<clipPath id="clip7_232_2083">
<rect width="149" height="142" fill="white" transform="translate(132.5 760)"/>
</clipPath>
</defs>
</svg>
