<svg width="1050" height="175" viewBox="0 0 1050 175" fill="none" xmlns="http://www.w3.org/2000/svg">
<g clip-path="url(#clip0_232_340)">
<g clip-path="url(#clip1_232_340)">
<path d="M46.2553 102.425L52.4193 102.553C50.2949 101.818 48.2349 100.924 46.2553 99.8709V102.425ZM55.5414 101.579V102.425L52.4193 102.553C58.2935 104.548 63.6688 104.819 67.66 103.702C64.4574 103.734 60.2891 103.287 55.5414 101.579ZM121.349 83.1901C123.908 83.1901 126 81.131 126 78.577C126 76.023 123.924 74.6662 121.349 74.6662C118.79 74.6662 116.698 76.039 116.698 78.577C116.698 81.115 118.774 83.1901 121.349 83.1901ZM116.682 102.425H126V84.7864H116.682V102.425ZM104.82 102.425H114.139V71.2502L104.82 75.608V102.425ZM99.8314 83.3657C96.9024 80.4606 91.7202 80.6362 91.7202 80.6362C91.7202 80.6362 86.5219 80.4606 83.6089 83.3657C80.6799 86.2709 80.9052 88.777 80.9052 91.762C80.9052 94.747 80.6799 97.2371 83.6089 100.142C86.538 103.047 91.7202 102.872 91.7202 102.872C91.7202 102.872 96.9185 103.047 99.8314 100.142C102.76 97.2371 102.535 94.747 102.535 91.762C102.519 88.761 102.744 86.2549 99.8314 83.3657ZM93.4261 94.8427C93.4261 95.4174 93.1364 96.838 91.7041 96.838C90.2718 96.838 89.9821 95.4174 89.9821 94.8427V88.3939C89.9821 87.0052 91.1569 86.654 91.7041 86.654C92.2513 86.654 93.4261 86.9892 93.4261 88.3939V94.8427ZM76.3346 83.3657C73.4055 80.4606 68.2233 80.6362 68.2233 80.6362C68.2233 80.6362 63.0411 80.4606 60.1121 83.3657C59.8063 83.669 59.5166 83.9883 59.2591 84.3235C53.1113 79.5986 47.5911 76.9009 42.8274 74.5704V71.2662L39.2063 72.9582C30.4513 69.4305 24.8828 70.0531 23.5471 72.9742C23.5471 72.9742 19.5397 78.2099 33.493 90.6606V102.425H42.8113V97.8596C41.7652 97.1892 40.7191 96.4709 39.6891 95.6887C37.3072 93.9009 35.2794 92.2409 33.5091 90.6765V85.7282C35.6174 88.0747 38.4177 90.7404 42.1032 93.7573L42.8274 94.3319V89.5751C42.8274 88.4737 43.101 86.67 44.5655 86.67C46.03 86.67 46.2714 87.7714 46.2714 89.0643V96.838C49.1683 98.7855 52.2744 100.366 55.5575 101.563V86.5742C55.5575 83.5892 53.401 80.6042 49.0235 80.6042C46.4807 80.5883 44.1149 81.9132 42.8274 84.1V75.4324C49.5707 78.7685 56.33 82.8549 58.905 84.7385C57.2635 87.069 57.4083 89.2239 57.4083 91.7141C57.4083 94.6991 57.183 97.1892 60.1121 100.094C63.0411 103 68.2233 102.824 68.2233 102.824C68.2233 102.824 73.4216 103 76.3346 100.094C79.2636 97.1892 79.0222 94.6991 79.0222 91.7141C79.0222 88.761 79.2636 86.2549 76.3346 83.3657ZM33.493 75.608V85.7122C25.6553 77.0127 27.2325 73.5808 27.828 73.0859C30.0007 71.2662 33.8632 71.8089 38.1924 73.4211L33.493 75.608ZM69.9453 94.8427C69.9453 95.4174 69.6557 96.838 68.2233 96.838C66.791 96.838 66.5013 95.4174 66.5013 94.8427V88.3939C66.5013 87.0052 67.6761 86.654 68.2233 86.654C68.7705 86.654 69.9453 86.9892 69.9453 88.3939V94.8427Z" fill="#737373"/>
</g>
</g>
<g clip-path="url(#clip2_232_340)">
<path d="M212.5 58.9955H225.112V93.0101C225.112 98.4049 227.544 101.616 229.521 102.952C227.463 104.761 221.221 106.358 216.52 102.496C213.764 100.214 212.5 96.4165 212.5 92.8797V58.9955ZM291.269 87.2731V83.6875H295.127V71.1703H290.896C289.259 63.6242 282.596 58.0176 274.637 58.0176C265.461 58.0176 257.988 65.5148 257.988 74.756V103.963C260.582 104.337 263.727 103.914 266.369 101.681C269.141 99.3991 270.389 95.6179 270.389 92.0648V90.9728H276.679V78.4557H270.389V74.6582C270.389 69.019 278.851 69.019 278.851 74.6582V87.2242C278.851 96.4491 286.308 103.963 295.5 103.963V91.4944C293.149 91.4944 291.269 89.5875 291.269 87.2731ZM243.56 71.1377V89.5549C243.56 92.0648 239.702 92.0648 239.702 89.5549V71.1377H227.252V92.7656C227.252 96.6446 228.549 101.567 234.547 103.18C240.545 104.778 243.982 101.453 243.982 101.453C243.641 103.637 241.631 105.25 238.324 105.576C235.811 105.837 232.618 104.989 231.029 104.305V115.763C235.098 116.985 239.378 117.36 243.609 116.529C251.244 115.045 256.059 108.64 256.059 100.1V71.0563H243.56V71.1377Z" fill="#737373"/>
</g>
<g clip-path="url(#clip3_232_340)">
<path d="M484 50.1455C471.122 58.828 469.752 65.1293 468.636 67.057C467.568 69.0332 466.772 76.8248 464.923 80.5991C463.058 84.422 456.285 87.4349 454.388 88.6984C452.523 89.9619 449.878 94.8701 447.71 99.098C430.482 98.3853 421.031 105.383 406.4 114.26C411.086 112.689 413.301 111.555 413.301 111.555C428.314 105.723 435.502 100.491 458.102 103.585C458.277 103.585 458.404 103.682 458.548 103.715C459.169 104.071 459.392 104.832 459.042 105.464L450.452 120.982C450.053 121.744 449.208 122.149 448.364 121.971C428.155 118.115 412.202 124.773 397.539 124.984C385.841 125.162 382 119.557 382 119.298C382 119.12 382.096 119.022 382.271 119.022C382.271 119.022 388.375 119.022 398.702 116.544C410.432 93.8172 420.887 85.8636 432.267 85.8636C432.267 85.8636 443.694 85.8636 446.706 95.8906C450.34 89.4598 451.217 87.9209 451.217 87.9209C452.061 86.3982 456.795 75.4155 464.987 65.0159C473.194 54.6487 479.394 52.0732 484 50.1455Z" fill="#737373"/>
</g>
<g clip-path="url(#clip4_232_340)">
<g clip-path="url(#clip5_232_340)">
<path d="M589.556 69.7932L582.587 71.2568L582.555 93.9114C582.555 98.0955 585.741 100.8 589.974 100.8C592.324 100.8 594.046 100.37 594.995 99.8614V94.4841C594.078 94.85 589.572 96.1546 589.572 91.9864V81.9318H594.995V75.9182H589.572L589.556 69.7932ZM603.895 78.0023L603.461 75.9182H597.281V100.291H604.41V83.8886C606.1 81.6932 608.949 82.1227 609.866 82.4091V75.9182C608.9 75.5841 605.569 74.9636 603.895 78.0023ZM618.75 66.5L611.572 68.0114V73.7705L618.75 72.2591V66.5ZM570.227 83.0932C570.227 81.9955 571.161 81.5659 572.657 81.55C574.83 81.55 577.598 82.2023 579.771 83.3636V76.7136C577.405 75.7909 575.039 75.425 572.673 75.425C566.88 75.425 563.017 78.4159 563.017 83.4114C563.017 91.2386 573.88 89.9659 573.88 93.3386C573.88 94.6432 572.738 95.0727 571.144 95.0727C568.779 95.0727 565.721 94.1023 563.323 92.8136V99.1773C565.978 100.307 568.666 100.784 571.128 100.784C577.067 100.784 581.155 98.2705 581.155 93.1796C581.155 84.7636 570.227 86.275 570.227 83.0932ZM666.001 88.3909C666.001 81.1523 662.46 75.4409 655.669 75.4409C648.877 75.4409 644.741 81.1523 644.741 88.3432C644.741 96.8545 649.618 100.784 656.57 100.784C659.982 100.784 662.541 100.02 664.488 98.9545V93.6409C662.541 94.6114 660.304 95.2 657.471 95.2C654.687 95.2 652.241 94.2295 651.919 90.9205H665.904C665.937 90.5545 666.001 89.075 666.001 88.3909ZM651.855 85.7182C651.855 82.5364 653.834 81.2 655.621 81.2C657.375 81.2 659.242 82.5364 659.242 85.7182H651.855ZM633.685 75.4409C630.884 75.4409 629.082 76.7455 628.084 77.6523L627.714 75.9023H621.421V108.484L628.567 106.989L628.583 99.0023C629.613 99.75 631.142 100.784 633.636 100.784C638.754 100.784 643.421 97.0932 643.421 88.1205C643.438 79.9114 638.706 75.4409 633.685 75.4409ZM631.979 94.9296C630.305 94.9296 629.307 94.325 628.615 93.5932L628.567 83.0932C629.307 82.2818 630.337 81.6932 631.979 81.6932C634.586 81.6932 636.389 84.5886 636.389 88.2795C636.405 92.0818 634.634 94.9296 631.979 94.9296ZM611.588 100.291H618.766V75.9182H611.588V100.291Z" fill="#737373"/>
</g>
</g>
<g clip-path="url(#clip6_232_340)">
<g clip-path="url(#clip7_232_340)">
<path d="M772.887 78.9882C772.771 82.6263 774.604 84.2373 774.65 85.2605C774.628 85.4687 774.557 85.6688 774.441 85.844C774.325 86.0192 774.169 86.1645 773.986 86.2676L771.912 87.7068C771.644 87.8933 771.327 88.0002 771 88.0152C770.93 88.0119 769.673 88.3091 767.682 83.9016C766.468 85.405 764.922 86.6128 763.164 87.4327C761.406 88.2526 759.482 88.6628 757.54 88.6319C754.903 88.7749 747.756 87.1478 748.123 79.6034C747.866 73.4548 753.641 69.6352 759.613 69.9581C760.764 69.9613 763.113 70.0175 767.226 70.9652V68.4562C767.661 64.2062 764.844 60.9086 759.967 61.4033C759.578 61.4049 756.824 61.323 752.541 63.0272C751.349 63.5701 751.196 63.4802 750.799 63.4802C749.599 63.4802 750.093 60.03 750.323 59.5931C751.167 58.5652 756.132 56.6457 761.005 56.673C764.263 56.3873 767.504 57.3843 770.026 59.4486C771.052 60.5859 771.834 61.9175 772.326 63.363C772.818 64.8085 773.01 66.3379 772.889 67.8587L772.887 78.9882ZM758.888 84.1907C764.141 84.1153 766.365 80.9831 766.872 79.2966C767.271 77.6824 767.205 76.6608 767.205 74.8956C765.638 74.5229 763.383 74.1166 760.796 74.1133C758.342 73.9302 753.859 75.0176 754.034 79.295C753.834 81.9918 755.836 84.3385 758.888 84.1907ZM786.576 87.8931C785.302 88.0087 784.71 87.1125 784.522 86.2274L776.454 59.7811C776.297 59.3345 776.194 58.8735 776.143 58.4029C776.114 58.2089 776.163 58.0111 776.28 57.853C776.397 57.6949 776.573 57.5894 776.769 57.5597C776.807 57.5532 776.424 57.5597 780.373 57.5597C781.795 57.4183 782.259 58.5282 782.406 59.2253L788.192 81.8457L793.564 59.2253C793.65 58.7081 794.04 57.4472 795.638 57.5805H798.417C798.769 57.5516 800.217 57.5002 800.472 59.2462L805.885 82.1557L811.858 59.2462C811.936 58.896 812.299 57.4199 813.912 57.5805H817.107C817.244 57.5597 818.103 57.4504 817.957 58.9587C817.887 59.2558 818.51 57.2464 809.412 86.2483C809.226 87.1333 808.631 88.0296 807.358 87.914H804.33C802.558 88.0987 802.304 86.3624 802.276 86.1873L796.904 64.1612L791.594 86.1648C791.568 86.3399 791.314 88.0762 789.54 87.8915H786.576V87.8931ZM830.878 88.7974C829.925 88.799 825.383 88.7492 821.586 86.8233C821.208 86.6645 820.885 86.398 820.66 86.0574C820.435 85.7168 820.317 85.3176 820.321 84.9103V83.1837C820.321 81.8264 821.325 82.0754 821.751 82.2376C823.377 82.8897 824.421 83.3844 826.418 83.7796C832.355 84.989 834.966 83.4101 835.606 83.06C837.737 81.8055 837.905 78.9352 836.457 77.4462C834.759 76.0344 833.949 75.9814 827.85 74.0732C827.098 73.866 820.771 71.8871 820.756 65.663C820.658 61.1271 824.814 56.6393 832.018 56.6762C834.071 56.6746 839.54 57.3396 841.02 59.1852C841.239 59.5209 841.347 59.916 841.331 60.3159V61.9398C841.331 62.653 841.069 63.0096 840.542 63.0096C839.293 62.8714 837.077 61.2154 832.579 61.2829C831.463 61.225 826.117 61.429 826.357 65.2936C826.287 68.339 830.667 69.481 831.168 69.6127C837.074 71.3747 839.049 71.6671 841.393 74.3639C844.169 77.9377 842.673 82.1219 842.097 83.2688C839.007 89.2905 831.014 88.8006 830.878 88.7974ZM837.39 105.64C826.045 113.948 809.577 118.369 795.516 118.369C776.544 118.494 758.21 111.576 744.12 98.9776C743.063 98.0315 743.996 96.7353 745.282 97.4565C760.912 106.321 778.608 110.979 796.614 110.968C810.061 110.897 823.361 108.192 835.751 103.009C837.659 102.206 839.277 104.262 837.39 105.64ZM842.119 100.293C840.667 98.4427 832.516 99.4289 828.866 99.861C827.766 99.9847 827.58 99.0386 828.576 98.3399C835.067 93.8152 845.728 95.1114 846.952 96.6325C848.175 98.1536 846.62 108.745 840.544 113.805C839.611 114.587 838.718 114.174 839.133 113.146C840.5 109.733 843.57 102.145 842.119 100.293Z" fill="#737373"/>
</g>
</g>
<g clip-path="url(#clip8_232_340)">
<g clip-path="url(#clip9_232_340)">
<path d="M1005.93 79.1617C1003.53 79.1617 1001.42 80.1559 999.875 81.7113C994.175 77.7505 986.495 75.2009 977.985 74.9283L982.407 54.9158L996.49 58.0909C996.49 61.5546 999.3 64.3768 1002.75 64.3768C1006.26 64.3768 1009.09 61.4744 1009.09 58.0107C1009.09 54.547 1006.28 51.6445 1002.75 51.6445C1000.29 51.6445 998.166 53.1358 997.113 55.1724L981.561 51.7087C980.779 51.5002 980.013 52.0615 979.805 52.8472L974.951 74.9122C966.505 75.265 958.905 77.8147 953.189 81.7755C951.64 80.1559 949.453 79.1617 947.058 79.1617C938.181 79.1617 935.275 91.1243 943.402 95.2133C943.114 96.4802 942.986 97.8271 942.986 99.1741C942.986 112.612 958.059 123.5 976.564 123.5C995.149 123.5 1010.22 112.612 1010.22 99.1741C1010.22 97.8271 1010.08 96.416 1009.73 95.1492C1017.69 91.0441 1014.76 79.1617 1005.93 79.1617ZM956.286 96.0632C956.286 92.5354 959.097 89.6971 962.625 89.6971C966.074 89.6971 968.884 92.5194 968.884 96.0632C968.884 99.5269 966.074 102.349 962.625 102.349C959.113 102.365 956.286 99.5269 956.286 96.0632ZM990.502 111.057C984.691 116.894 968.293 116.894 962.481 111.057C961.843 110.495 961.843 109.501 962.481 108.86C963.04 108.298 964.03 108.298 964.589 108.86C969.028 113.43 983.749 113.51 988.379 108.86C988.938 108.298 989.928 108.298 990.486 108.86C991.141 109.501 991.141 110.495 990.502 111.057ZM990.375 102.365C986.926 102.365 984.116 99.543 984.116 96.0793C984.116 92.5514 986.926 89.7131 990.375 89.7131C993.887 89.7131 996.713 92.5354 996.713 96.0793C996.697 99.5269 993.887 102.365 990.375 102.365Z" fill="#737373"/>
</g>
</g>
<defs>
<clipPath id="clip0_232_340">
<rect width="153" height="34" fill="white" transform="translate(-2 70.5)"/>
</clipPath>
<clipPath id="clip1_232_340">
<rect width="103" height="34" fill="white" transform="translate(23 70.5)"/>
</clipPath>
<clipPath id="clip2_232_340">
<rect width="83" height="59" fill="white" transform="translate(212.5 58)"/>
</clipPath>
<clipPath id="clip3_232_340">
<rect width="102" height="75" fill="white" transform="translate(382 50)"/>
</clipPath>
<clipPath id="clip4_232_340">
<rect width="151" height="42" fill="white" transform="translate(539 66.5)"/>
</clipPath>
<clipPath id="clip5_232_340">
<rect width="103" height="42" fill="white" transform="translate(563 66.5)"/>
</clipPath>
<clipPath id="clip6_232_340">
<rect width="151" height="62" fill="white" transform="translate(720 56.5)"/>
</clipPath>
<clipPath id="clip7_232_340">
<rect width="104" height="62" fill="white" transform="translate(743.5 56.5)"/>
</clipPath>
<clipPath id="clip8_232_340">
<rect width="151" height="72" fill="white" transform="translate(901 51.5)"/>
</clipPath>
<clipPath id="clip9_232_340">
<rect width="76" height="72" fill="white" transform="translate(938.5 51.5)"/>
</clipPath>
</defs>
</svg>
