<svg width="242" height="51" viewBox="0 0 242 51" fill="none" xmlns="http://www.w3.org/2000/svg">
<g clip-path="url(#clip0_232_865)">
<path d="M40 13.4828C38.8766 13.9804 37.685 14.3071 36.4649 14.4519C37.7358 13.6902 38.7116 12.484 39.1711 11.0468C37.963 11.7637 36.6412 12.2689 35.2628 12.5404C34.14 11.3442 32.5405 10.5967 30.7702 10.5967C27.3711 10.5967 24.6152 13.3525 24.6152 16.7514C24.6152 17.2338 24.6696 17.7035 24.7745 18.1541C19.6593 17.8973 15.1241 15.4471 12.0884 11.7233C11.5587 12.6323 11.2552 13.6897 11.2552 14.8175C11.2552 16.9529 12.3419 18.8367 13.9933 19.9405C13.0159 19.9099 12.06 19.6459 11.2054 19.1706C11.205 19.1964 11.205 19.2221 11.205 19.248C11.205 22.2301 13.3266 24.7178 16.1421 25.2832C15.2358 25.5297 14.2851 25.5658 13.3627 25.3887C14.1459 27.8339 16.4189 29.6133 19.1121 29.6631C17.0057 31.3138 14.3518 32.2978 11.4682 32.2978C10.9714 32.2978 10.4815 32.2686 10 32.2118C12.7238 33.9581 15.959 34.9771 19.4348 34.9771C30.7559 34.9771 36.9466 25.5984 36.9466 17.4652C36.9466 17.1982 36.9407 16.9328 36.9288 16.6689C38.1337 15.7978 39.1737 14.7189 40 13.4828Z" fill="#252B42"/>
</g>
<g clip-path="url(#clip1_232_865)">
<path d="M102.344 40.5001C103.259 40.5001 104 39.7588 104 38.8444V12.1557C104 11.2412 103.259 10.5 102.344 10.5H75.6557C74.7411 10.5 74 11.2412 74 12.1557V38.8444C74 39.7588 74.7411 40.5001 75.6557 40.5001H102.344Z" fill="#252B42"/>
<path d="M94.6993 40.5003V28.8827H98.5989L99.1828 24.3552H94.6993V21.4644C94.6993 20.1535 95.0634 19.2602 96.9432 19.2602L99.3407 19.2591V15.2097C98.9259 15.1545 97.5028 15.0312 95.8471 15.0312C92.3903 15.0312 90.0239 17.1412 90.0239 21.0161V24.3552H86.1143V28.8827H90.0239V40.5003H94.6993Z" fill="white"/>
</g>
<g clip-path="url(#clip2_232_865)">
<path d="M153 17.8084C148.744 17.8084 145.309 21.2434 145.309 25.4996C145.309 29.7559 148.744 33.1909 153 33.1909C157.256 33.1909 160.691 29.7559 160.691 25.4996C160.691 21.2434 157.256 17.8084 153 17.8084ZM153 30.4984C150.247 30.4984 148.001 28.2521 148.001 25.4996C148.001 22.7471 150.247 20.5009 153 20.5009C155.752 20.5009 157.999 22.7471 157.999 25.4996C157.999 28.2521 155.752 30.4984 153 30.4984ZM161.006 15.7009C160.012 15.7009 159.21 16.5034 159.21 17.4971C159.21 18.4909 160.012 19.2934 161.006 19.2934C162 19.2934 162.802 18.4946 162.802 17.4971C162.803 17.2612 162.756 17.0275 162.666 16.8094C162.576 16.5913 162.444 16.3932 162.277 16.2263C162.11 16.0595 161.912 15.9272 161.694 15.837C161.476 15.7468 161.242 15.7006 161.006 15.7009ZM167.992 25.4996C167.992 23.4296 168.011 21.3784 167.895 19.3121C167.779 16.9121 167.231 14.7821 165.476 13.0271C163.717 11.2684 161.591 10.7246 159.191 10.6084C157.121 10.4921 155.07 10.5109 153.004 10.5109C150.934 10.5109 148.882 10.4921 146.816 10.6084C144.416 10.7246 142.286 11.2721 140.531 13.0271C138.772 14.7859 138.229 16.9121 138.112 19.3121C137.996 21.3821 138.015 23.4334 138.015 25.4996C138.015 27.5659 137.996 29.6209 138.112 31.6871C138.229 34.0871 138.776 36.2171 140.531 37.9721C142.29 39.7309 144.416 40.2746 146.816 40.3909C148.886 40.5071 150.937 40.4884 153.004 40.4884C155.074 40.4884 157.125 40.5071 159.191 40.3909C161.591 40.2746 163.721 39.7271 165.476 37.9721C167.235 36.2134 167.779 34.0871 167.895 31.6871C168.015 29.6209 167.992 27.5696 167.992 25.4996ZM164.692 34.3421C164.419 35.0246 164.089 35.5346 163.56 36.0596C163.031 36.5884 162.525 36.9184 161.842 37.1921C159.87 37.9759 155.186 37.7996 153 37.7996C150.814 37.7996 146.126 37.9759 144.154 37.1959C143.471 36.9221 142.961 36.5921 142.436 36.0634C141.907 35.5346 141.577 35.0284 141.304 34.3459C140.524 32.3696 140.7 27.6859 140.7 25.4996C140.7 23.3134 140.524 18.6259 141.304 16.6534C141.577 15.9709 141.907 15.4609 142.436 14.9359C142.965 14.4109 143.471 14.0771 144.154 13.8034C146.126 13.0234 150.814 13.1996 153 13.1996C155.186 13.1996 159.874 13.0234 161.846 13.8034C162.529 14.0771 163.039 14.4071 163.564 14.9359C164.092 15.4646 164.422 15.9709 164.696 16.6534C165.476 18.6259 165.3 23.3134 165.3 25.4996C165.3 27.6859 165.476 32.3696 164.692 34.3421Z" fill="#252B42"/>
</g>
<g clip-path="url(#clip3_232_865)">
<path d="M227.578 35.9624H223.15V29.0282C223.15 27.3747 223.121 25.2461 220.848 25.2461C218.541 25.2461 218.189 27.0477 218.189 28.9078V35.9619H213.761V21.7024H218.011V23.6512H218.071C218.496 22.9238 219.111 22.3254 219.85 21.9198C220.588 21.5142 221.423 21.3165 222.265 21.3477C226.753 21.3477 227.58 24.2996 227.58 28.1398L227.578 35.9624ZM208.765 19.7534C207.346 19.7536 206.195 18.6033 206.195 17.1842C206.195 15.7651 207.345 14.6145 208.764 14.6143C210.183 14.6139 211.334 15.7642 211.334 17.1833C211.334 17.8648 211.063 18.5184 210.582 19.0004C210.1 19.4824 209.446 19.7532 208.765 19.7534ZM210.979 35.9625H206.546V21.7024H210.979V35.9624L210.979 35.9625ZM229.786 10.5022H204.321C203.118 10.4886 202.131 11.4527 202.116 12.6562V38.2266C202.13 39.4307 203.117 40.3957 204.321 40.3831H229.786C230.992 40.398 231.983 39.433 231.999 38.2266V12.6542C231.982 11.4484 230.992 10.4844 229.786 10.5002" fill="#252B42"/>
</g>
<defs>
<clipPath id="clip0_232_865">
<rect width="30" height="24.4922" fill="white" transform="translate(10 10.5)"/>
</clipPath>
<clipPath id="clip1_232_865">
<rect width="30" height="30.0001" fill="white" transform="translate(74 10.5)"/>
</clipPath>
<clipPath id="clip2_232_865">
<rect width="30" height="30" fill="white" transform="translate(138 10.5)"/>
</clipPath>
<clipPath id="clip3_232_865">
<rect width="30" height="29.8833" fill="white" transform="translate(202 10.5)"/>
</clipPath>
</defs>
</svg>
