<svg width="113" height="44" viewBox="0 0 113 44" fill="none" xmlns="http://www.w3.org/2000/svg">
<g clip-path="url(#clip0_232_515)">
<g clip-path="url(#clip1_232_515)">
<g clip-path="url(#clip2_232_515)">
<path d="M23.54 10H1.46C0.929 10 0.5 10.429 0.5 10.96V33.04C0.5 33.571 0.929 34 1.46 34H23.54C24.071 34 24.5 33.571 24.5 33.04V10.96C24.5 10.429 24.071 10 23.54 10ZM20.768 17.005H18.851C17.348 17.005 17.057 17.719 17.057 18.769V21.082H20.645L20.177 24.703H17.057V34H13.316V24.706H10.187V21.082H13.316V18.412C13.316 15.313 15.209 13.624 17.975 13.624C19.301 13.624 20.438 13.723 20.771 13.768V17.005H20.768Z" fill="#335BF5"/>
</g>
</g>
<g clip-path="url(#clip3_232_515)">
<g clip-path="url(#clip4_232_515)">
<path d="M56.5016 15.8477C53.0966 15.8477 50.3486 18.5957 50.3486 22.0007C50.3486 25.4057 53.0966 28.1537 56.5016 28.1537C59.9066 28.1537 62.6546 25.4057 62.6546 22.0007C62.6546 18.5957 59.9066 15.8477 56.5016 15.8477ZM56.5016 25.9997C54.2996 25.9997 52.5026 24.2027 52.5026 22.0007C52.5026 19.7987 54.2996 18.0017 56.5016 18.0017C58.7036 18.0017 60.5006 19.7987 60.5006 22.0007C60.5006 24.2027 58.7036 25.9997 56.5016 25.9997ZM62.9066 14.1617C62.1116 14.1617 61.4696 14.8037 61.4696 15.5987C61.4696 16.3937 62.1116 17.0357 62.9066 17.0357C63.7016 17.0357 64.3436 16.3967 64.3436 15.5987C64.3438 15.4099 64.3068 15.2229 64.2347 15.0485C64.1625 14.874 64.0567 14.7155 63.9232 14.582C63.7897 14.4486 63.6312 14.3427 63.4568 14.2706C63.2823 14.1985 63.0954 14.1614 62.9066 14.1617ZM68.4956 22.0007C68.4956 20.3447 68.5106 18.7037 68.4176 17.0507C68.3246 15.1307 67.8866 13.4267 66.4826 12.0227C65.0756 10.6157 63.3746 10.1807 61.4546 10.0877C59.7986 9.99468 58.1576 10.0097 56.5046 10.0097C54.8486 10.0097 53.2076 9.99468 51.5546 10.0877C49.6346 10.1807 47.9306 10.6187 46.5266 12.0227C45.1196 13.4297 44.6846 15.1307 44.5916 17.0507C44.4986 18.7067 44.5136 20.3477 44.5136 22.0007C44.5136 23.6537 44.4986 25.2977 44.5916 26.9507C44.6846 28.8707 45.1226 30.5747 46.5266 31.9787C47.9336 33.3857 49.6346 33.8207 51.5546 33.9137C53.2106 34.0067 54.8516 33.9917 56.5046 33.9917C58.1606 33.9917 59.8016 34.0067 61.4546 33.9137C63.3746 33.8207 65.0786 33.3827 66.4826 31.9787C67.8896 30.5717 68.3246 28.8707 68.4176 26.9507C68.5136 25.2977 68.4956 23.6567 68.4956 22.0007ZM65.8556 29.0747C65.6366 29.6207 65.3726 30.0287 64.9496 30.4487C64.5266 30.8717 64.1216 31.1357 63.5756 31.3547C61.9976 31.9817 58.2506 31.8407 56.5016 31.8407C54.7526 31.8407 51.0026 31.9817 49.4246 31.3577C48.8786 31.1387 48.4706 30.8747 48.0506 30.4517C47.6276 30.0287 47.3636 29.6237 47.1446 29.0777C46.5206 27.4967 46.6616 23.7497 46.6616 22.0007C46.6616 20.2517 46.5206 16.5017 47.1446 14.9237C47.3636 14.3777 47.6276 13.9697 48.0506 13.5497C48.4736 13.1297 48.8786 12.8627 49.4246 12.6437C51.0026 12.0197 54.7526 12.1607 56.5016 12.1607C58.2506 12.1607 62.0006 12.0197 63.5786 12.6437C64.1246 12.8627 64.5326 13.1267 64.9526 13.5497C65.3756 13.9727 65.6396 14.3777 65.8586 14.9237C66.4826 16.5017 66.3416 20.2517 66.3416 22.0007C66.3416 23.7497 66.4826 27.4967 65.8556 29.0747Z" fill="#E61F5A"/>
</g>
</g>
<g clip-path="url(#clip5_232_515)">
<g clip-path="url(#clip6_232_515)">
<path d="M112.5 14.465C111.619 14.8509 110.659 15.1287 109.671 15.2369C110.697 14.6183 111.465 13.6411 111.832 12.4885C110.869 13.0697 109.814 13.4773 108.715 13.6931C108.255 13.1944 107.699 12.7971 107.081 12.526C106.464 12.2548 105.798 12.1157 105.125 12.1172C102.402 12.1172 100.212 14.3568 100.212 17.1052C100.212 17.4911 100.258 17.877 100.333 18.2483C96.2565 18.032 92.6205 16.0555 90.2032 13.0294C89.7627 13.7929 89.5319 14.6621 89.5348 15.5468C89.5348 17.2777 90.402 18.8039 91.7244 19.7015C90.9451 19.6703 90.184 19.4529 89.5031 19.067V19.1284C89.5031 21.5522 91.1914 23.5608 93.4416 24.0228C93.0191 24.1342 92.5845 24.1911 92.148 24.1924C91.8282 24.1924 91.5256 24.1602 91.2202 24.1164C91.8426 26.0928 93.6548 27.5284 95.8128 27.5752C94.1244 28.9172 92.0097 29.7066 89.7134 29.7066C89.3014 29.7066 88.9211 29.692 88.5264 29.6452C90.7045 31.0632 93.2889 31.8819 96.0721 31.8819C105.107 31.8819 110.051 24.2859 110.051 17.6928C110.051 17.4765 110.051 17.2601 110.037 17.0438C110.994 16.3333 111.832 15.4532 112.5 14.465Z" fill="#21A6DF"/>
</g>
</g>
</g>
<defs>
<clipPath id="clip0_232_515">
<rect width="112" height="44" fill="white" transform="translate(0.5)"/>
</clipPath>
<clipPath id="clip1_232_515">
<rect width="24" height="24" fill="white" transform="translate(0.5 10)"/>
</clipPath>
<clipPath id="clip2_232_515">
<rect width="24" height="24" fill="white" transform="translate(0.5 10)"/>
</clipPath>
<clipPath id="clip3_232_515">
<rect width="24" height="24" fill="white" transform="translate(44.5 10)"/>
</clipPath>
<clipPath id="clip4_232_515">
<rect width="24" height="24" fill="white" transform="translate(44.5 10)"/>
</clipPath>
<clipPath id="clip5_232_515">
<rect width="24" height="19.7647" fill="white" transform="translate(88.5 12.1172)"/>
</clipPath>
<clipPath id="clip6_232_515">
<rect width="24" height="19.7647" fill="white" transform="translate(88.5 12.1172)"/>
</clipPath>
</defs>
</svg>
