<svg width="112" height="25" viewBox="0 0 112 25" fill="none" xmlns="http://www.w3.org/2000/svg">
<g clip-path="url(#clip0_1_4858)">
<g clip-path="url(#clip1_1_4858)">
<g clip-path="url(#clip2_1_4858)">
<path fill-rule="evenodd" clip-rule="evenodd" d="M23.5 12.0704C23.5 5.6801 18.3515 0.5 12.0014 0.5C5.64848 0.501437 0.5 5.6801 0.5 12.0719C0.5 17.8456 4.7056 22.6319 10.2019 23.5V15.4151H7.28415V12.0719H10.2048V9.52062C10.2048 6.62155 11.9224 5.02037 14.5484 5.02037C15.8075 5.02037 17.1226 5.24603 17.1226 5.24603V8.09193H15.6724C14.2451 8.09193 13.7995 8.9845 13.7995 9.90008V12.0704H16.9875L16.4787 15.4136H13.7981V23.4986C19.2944 22.6304 23.5 17.8441 23.5 12.0704Z" fill="#23A6F0"/>
</g>
</g>
<g clip-path="url(#clip3_1_4858)">
<path d="M56.5 1.5C53.5149 1.5 53.1395 1.51375 51.9666 1.566C50.7938 1.621 49.9949 1.80525 49.295 2.0775C48.5609 2.35363 47.8959 2.78676 47.3466 3.34663C46.7871 3.89621 46.354 4.56108 46.0775 5.295C45.8052 5.9935 45.6196 6.79375 45.566 7.9625C45.5138 9.13812 45.5 9.51213 45.5 12.5014C45.5 15.4879 45.5138 15.8619 45.566 17.0347C45.621 18.2063 45.8052 19.0051 46.0775 19.705C46.3594 20.4282 46.7348 21.0415 47.3466 21.6534C47.9571 22.2652 48.5704 22.642 49.2936 22.9225C49.9949 23.1947 50.7924 23.3804 51.9639 23.434C53.1381 23.4862 53.5121 23.5 56.5 23.5C59.4879 23.5 59.8605 23.4862 61.0347 23.434C62.2049 23.379 63.0065 23.1947 63.7064 22.9225C64.44 22.6462 65.1045 22.2131 65.6534 21.6534C66.2652 21.0415 66.6406 20.4282 66.9225 19.705C67.1934 19.0051 67.379 18.2063 67.434 17.0347C67.4862 15.8619 67.5 15.4879 67.5 12.5C67.5 9.51213 67.4862 9.13813 67.434 7.96388C67.379 6.79375 67.1934 5.9935 66.9225 5.295C66.646 4.56106 66.2129 3.89618 65.6534 3.34663C65.1042 2.78655 64.4392 2.35339 63.705 2.0775C63.0037 1.80525 62.2035 1.61963 61.0334 1.566C59.8591 1.51375 59.4865 1.5 56.4973 1.5H56.5014H56.5ZM55.5141 3.48275H56.5014C59.4384 3.48275 59.7863 3.49238 60.9454 3.546C62.0179 3.59413 62.6009 3.77425 62.9886 3.92412C63.5015 4.1235 63.8686 4.36275 64.2536 4.74775C64.6386 5.13275 64.8765 5.4985 65.0759 6.01275C65.2271 6.39913 65.4059 6.98213 65.454 8.05463C65.5076 9.21375 65.5186 9.56163 65.5186 12.4973C65.5186 15.4329 65.5076 15.7821 65.454 16.9412C65.4059 18.0138 65.2257 18.5954 65.0759 18.9831C64.8995 19.4607 64.618 19.8926 64.2522 20.2467C63.8672 20.6318 63.5015 20.8696 62.9873 21.069C62.6023 21.2203 62.0192 21.399 60.9454 21.4485C59.7863 21.5007 59.4384 21.5131 56.5014 21.5131C53.5644 21.5131 53.2151 21.5007 52.056 21.4485C50.9835 21.399 50.4019 21.2203 50.0141 21.069C49.5363 20.8929 49.104 20.6119 48.7491 20.2467C48.383 19.892 48.1011 19.4598 47.9241 18.9818C47.7743 18.5954 47.5941 18.0124 47.546 16.9399C47.4938 15.7808 47.4828 15.4329 47.4828 12.4945C47.4828 9.5575 47.4938 9.211 47.546 8.05187C47.5955 6.97937 47.7743 6.39638 47.9255 6.00863C48.1249 5.49575 48.3641 5.12862 48.7491 4.74362C49.1341 4.35862 49.4999 4.12075 50.0141 3.92138C50.4019 3.77013 50.9835 3.59138 52.056 3.54188C53.0708 3.49513 53.464 3.48138 55.5141 3.48V3.48275ZM62.3726 5.30875C62.1993 5.30875 62.0276 5.34289 61.8675 5.40923C61.7073 5.47557 61.5618 5.5728 61.4392 5.69537C61.3167 5.81794 61.2194 5.96346 61.1531 6.12361C61.0868 6.28376 61.0526 6.45541 61.0526 6.62875C61.0526 6.80209 61.0868 6.97374 61.1531 7.13389C61.2194 7.29404 61.3167 7.43956 61.4392 7.56213C61.5618 7.6847 61.7073 7.78193 61.8675 7.84827C62.0276 7.91461 62.1993 7.94875 62.3726 7.94875C62.7227 7.94875 63.0585 7.80968 63.306 7.56213C63.5536 7.31458 63.6926 6.97884 63.6926 6.62875C63.6926 6.27866 63.5536 5.94292 63.306 5.69537C63.0585 5.44782 62.7227 5.30875 62.3726 5.30875ZM56.5014 6.8515C55.7521 6.83981 55.008 6.97729 54.3123 7.25594C53.6167 7.5346 52.9835 7.94885 52.4495 8.47458C51.9155 9.00032 51.4914 9.62703 51.2019 10.3182C50.9124 11.0094 50.7634 11.7513 50.7634 12.5007C50.7634 13.2501 50.9124 13.9919 51.2019 14.6831C51.4914 15.3743 51.9155 16.0011 52.4495 16.5268C52.9835 17.0525 53.6167 17.4668 54.3123 17.7454C55.008 18.0241 55.7521 18.1616 56.5014 18.1499C57.9844 18.1267 59.3988 17.5214 60.4393 16.4645C61.4799 15.4076 62.0631 13.9839 62.0631 12.5007C62.0631 11.0175 61.4799 9.59382 60.4393 8.53691C59.3988 7.47999 57.9844 6.87464 56.5014 6.8515ZM56.5014 8.83288C57.474 8.83288 58.4067 9.21923 59.0944 9.90695C59.7821 10.5947 60.1685 11.5274 60.1685 12.5C60.1685 13.4726 59.7821 14.4053 59.0944 15.093C58.4067 15.7808 57.474 16.1671 56.5014 16.1671C55.5288 16.1671 54.596 15.7808 53.9083 15.093C53.2206 14.4053 52.8342 13.4726 52.8342 12.5C52.8342 11.5274 53.2206 10.5947 53.9083 9.90695C54.596 9.21923 55.5288 8.83288 56.5014 8.83288Z" fill="#23A6F0"/>
</g>
<g clip-path="url(#clip4_1_4858)">
<path d="M96.4107 21.5C104.713 21.5 109.255 14.5731 109.255 8.57669C109.255 8.38285 109.255 8.18625 109.246 7.99241C110.131 7.34789 110.894 6.54993 111.5 5.63592C110.674 6.00262 109.799 6.2443 108.903 6.35312C109.847 5.78495 110.554 4.891 110.892 3.8374C110.005 4.36647 109.035 4.73787 108.023 4.93534C107.342 4.20572 106.442 3.72237 105.461 3.56016C104.48 3.39795 103.474 3.56592 102.597 4.03807C101.721 4.51023 101.024 5.2602 100.613 6.17182C100.203 7.08345 100.103 8.10585 100.328 9.08066C98.5334 8.99005 96.7776 8.52057 95.1747 7.70269C93.5717 6.8848 92.1574 5.73678 91.0235 4.33307C90.4478 5.33421 90.2722 6.51843 90.5321 7.64526C90.7921 8.77209 91.4683 9.75705 92.4232 10.4001C91.7076 10.3756 91.0077 10.1821 90.38 9.83524V9.89754C90.3812 10.9463 90.742 11.9625 91.4015 12.7743C92.0609 13.5861 92.9784 14.1438 93.999 14.353C93.6116 14.4605 93.2114 14.514 92.8096 14.5122C92.5264 14.5131 92.2436 14.4867 91.9654 14.4333C92.2538 15.3361 92.8155 16.1254 93.5717 16.6908C94.3279 17.2561 95.2408 17.5691 96.1825 17.5859C94.5828 18.8511 92.6067 19.5373 90.5725 19.534C90.2141 19.5355 89.8559 19.5147 89.5 19.4716C91.5646 20.797 93.9623 21.5008 96.4107 21.5Z" fill="#23A6F0"/>
</g>
</g>
<defs>
<clipPath id="clip0_1_4858">
<rect width="112" height="24" fill="white" transform="translate(0 0.5)"/>
</clipPath>
<clipPath id="clip1_1_4858">
<rect width="24" height="24" fill="white" transform="translate(0 0.5)"/>
</clipPath>
<clipPath id="clip2_1_4858">
<rect width="24" height="24" fill="white" transform="translate(0 0.5)"/>
</clipPath>
<clipPath id="clip3_1_4858">
<rect width="24" height="24" fill="white" transform="translate(44 0.5)"/>
</clipPath>
<clipPath id="clip4_1_4858">
<rect width="24" height="19.7647" fill="white" transform="translate(88 2.61768)"/>
</clipPath>
</defs>
</svg>
